<?xml version="1.0" encoding="utf-8"?>
<!-- Generator: Adobe Illustrator 24.3.0, SVG Export Plug-In . SVG Version: 6.00 Build 0)  -->
<svg version="1.1" id="Layer_1" xmlns="http://www.w3.org/2000/svg" xmlns:xlink="http://www.w3.org/1999/xlink" x="0px" y="0px"
	 viewBox="0 0 32 32" style="enable-background:new 0 0 32 32;" xml:space="preserve">
<path d="M26,2H6C3.8,2,2,3.8,2,6v22.7C2,29.4,2.6,30,3.4,30c0.3,0,0.6-0.1,0.8-0.3l6.5-5.1H26c2.2,0,4-1.8,4-4V6
	C30,3.8,28.2,2,26,2z M27.3,20.7c0,0.7-0.6,1.3-1.3,1.3H10.2c-0.3,0-0.6,0.1-0.8,0.3l-4.7,3.7V6c0-0.7,0.6-1.3,1.3-1.3h20
	c0.7,0,1.3,0.6,1.3,1.3V20.7z"/>
</svg>
