<?xml version="1.0" encoding="utf-8"?>
<svg version="1.1" xmlns="http://www.w3.org/2000/svg" xmlns:xlink="http://www.w3.org/1999/xlink" 
  viewBox="0 0 32 32" style="enable-background:new 0 0 32 32;" xml:space="preserve">
  <g>
    <path d="M30,30H2c-1.1,0-2-0.9-2-2v0c0-1.1,0.9-2,2-2h28c1.1,0,2,0.9,2,2v0C32,29.1,31.1,30,30,30z"/>
    <path d="M30,18H2c-1.1,0-2-0.9-2-2v0c0-1.1,0.9-2,2-2h28c1.1,0,2,0.9,2,2v0C32,17.1,31.1,18,30,18z"/>
    <path d="M30,6H2C0.9,6,0,5.1,0,4v0c0-1.1,0.9-2,2-2h28c1.1,0,2,0.9,2,2v0C32,5.1,31.1,6,30,6z"/>
  </g>
</svg>
