<?xml version="1.0" encoding="utf-8"?>
<!-- Generator: Adobe Illustrator 24.3.0, SVG Export Plug-In . SVG Version: 6.00 Build 0)  -->
<svg version="1.1" id="Layer_1" xmlns="http://www.w3.org/2000/svg" xmlns:xlink="http://www.w3.org/1999/xlink" x="0px" y="0px"
	 viewBox="0 0 148 24" style="enable-background:new 0 0 148 24;" xml:space="preserve">
<style type="text/css">
	.st0{fill:#FF9C19;}
</style>
<g id="DevCon_20" transform="translate(312 -86)">
	<g id="Group_896">
		<path id="Path_880" class="st0" d="M-254.3,109.6c-0.3,0-0.6-0.2-0.7-0.4c-0.2-0.3-0.3-0.6-0.3-1V87.9c0-0.4,0.1-0.7,0.3-1
			c0.2-0.3,0.4-0.4,0.7-0.4h6.1c2.9,0,4.9,0.9,6.2,2.7c1.3,1.8,1.9,4.7,1.9,8.6c0,4-0.6,6.9-1.8,8.9c-1.2,2-3.2,2.9-6.1,2.9H-254.3z
			 M-245.9,98.1c0.1-1.4-0.1-2.8-0.5-4.1c-0.4-0.7-1.2-1.2-2.1-1c-0.3,0-0.6,0.2-0.7,0.4c-0.2,0.3-0.3,0.6-0.3,1v7.2
			c0,0.4,0.1,0.7,0.3,1c0.2,0.2,0.4,0.4,0.7,0.4c0.5,0,1-0.1,1.4-0.3c0.4-0.3,0.7-0.6,0.8-1.1c0.2-0.5,0.3-1,0.3-1.5
			C-246,99.6-245.9,99-245.9,98.1z"/>
		<path id="Path_881" class="st0" d="M-238.9,87.4c0-0.2,0.1-0.5,0.2-0.7c0.1-0.2,0.3-0.3,0.5-0.3h11.2c0.2,0,0.4,0.1,0.5,0.3
			c0.1,0.2,0.2,0.4,0.2,0.7v4.4c0,0.2-0.1,0.5-0.2,0.7c-0.1,0.2-0.3,0.3-0.5,0.3h-5.3c-0.2,0-0.4,0.1-0.5,0.3
			c-0.1,0.2-0.2,0.4-0.2,0.7c0,0.3,0.1,0.5,0.2,0.7c0.1,0.2,0.3,0.3,0.5,0.3h3.2c0.2,0,0.4,0.1,0.5,0.3c0.1,0.2,0.2,0.4,0.2,0.7v4.4
			c0,0.2-0.1,0.5-0.2,0.7c-0.1,0.2-0.3,0.3-0.5,0.3h-3.2c-0.2,0-0.4,0.1-0.5,0.3c-0.1,0.2-0.2,0.4-0.2,0.7v0.1
			c0,0.2,0.1,0.5,0.2,0.7c0.1,0.2,0.3,0.3,0.5,0.3h5.3c0.2,0,0.4,0.1,0.5,0.3c0.1,0.2,0.2,0.4,0.2,0.7v4.4c0,0.3-0.1,0.5-0.2,0.7
			c-0.1,0.2-0.3,0.3-0.5,0.3h-11.2c-0.2,0-0.4-0.1-0.5-0.3c-0.1-0.2-0.2-0.5-0.2-0.7L-238.9,87.4z"/>
		<path id="Path_882" class="st0" d="M-214,108.2c0,0.3-0.2,0.7-0.4,0.9c-0.2,0.2-0.4,0.4-0.7,0.4h-6.6c-0.3,0-0.6-0.1-0.7-0.4
			c-0.2-0.3-0.4-0.6-0.4-0.9l-2.9-19.8c-0.1-0.5,0-1,0.3-1.4c0.2-0.4,0.5-0.6,0.9-0.6h3.7c0.3,0,0.6,0.2,0.8,0.4
			c0.2,0.3,0.4,0.7,0.4,1l1.2,13.6h0.4l1.1-13.6c0-0.4,0.2-0.7,0.4-1c0.2-0.2,0.5-0.4,0.8-0.4h3.7c0.4,0,0.8,0.2,0.9,0.6
			c0.2,0.4,0.3,0.9,0.3,1.4L-214,108.2z"/>
		<path id="Path_883" class="st0" d="M-198,107.9c0,0.3,0,0.6-0.2,0.9c-0.1,0.2-0.3,0.4-0.6,0.5c-1.5,0.5-3,0.7-4.6,0.7
			c-1.4,0.1-2.9-0.3-4.1-1c-1.2-0.9-2.1-2.2-2.4-3.7c-0.5-2.4-0.8-4.9-0.7-7.4c0-4.6,0.5-7.7,1.6-9.4c1-1.7,3-2.5,5.9-2.5
			c1.4,0,2.9,0.3,4.3,0.7c0.6,0.1,0.8,0.6,0.8,1.5l-0.1,3.4c0,0.4-0.1,0.7-0.3,1c-0.2,0.2-0.5,0.4-0.8,0.4c-0.9-0.1-1.8-0.2-2.7-0.2
			c-1.2,0-1.9,0.3-2.2,0.9c-0.4,1.2-0.6,2.5-0.5,3.8c0,1.3,0,2.6,0.2,4c0.1,0.6,0.4,1.1,0.8,1.5c0.5,0.2,1.1,0.4,1.6,0.3l2.8-0.2
			c0.3,0,0.6,0.1,0.8,0.4c0.2,0.3,0.3,0.7,0.3,1L-198,107.9z"/>
		<path id="Path_884" class="st0" d="M-181.2,98c0,4-0.6,7-1.8,9s-3.3,3-6.1,3c-2.9,0-4.9-1-6.2-3s-1.9-5-1.9-9.1c0-4,0.6-7,1.8-9
			s3.3-2.9,6.2-2.9c2.9,0,4.9,1,6.2,2.9S-181.2,93.9-181.2,98z M-191.4,98c-0.1,1.4,0.1,2.9,0.4,4.2c0.2,0.8,0.9,1.3,1.7,1.3
			c0.8,0,1.5-0.5,1.7-1.3c0.3-1.4,0.5-2.9,0.4-4.3c0.1-1.4-0.1-2.8-0.4-4.2c-0.2-0.8-0.9-1.3-1.7-1.2c-0.8-0.1-1.6,0.5-1.7,1.3
			C-191.3,95.1-191.4,96.6-191.4,98z"/>
		<path id="Path_885" class="st0" d="M-180.1,87.9c0-0.4,0.1-0.7,0.3-1c0.2-0.3,0.4-0.4,0.8-0.4h4c0.4,0,0.8,0.3,0.9,0.7l2.9,6.1
			c0.1,0.2,0.3,0.3,0.4,0.3c0.1,0,0.3-0.1,0.4-0.2c0.1-0.1,0.2-0.3,0.2-0.5v-5c0-0.4,0.1-0.7,0.3-1c0.2-0.3,0.4-0.4,0.7-0.4h3.7
			c0.3,0,0.6,0.2,0.7,0.4c0.2,0.3,0.3,0.7,0.3,1v20.2c0,0.4-0.1,0.7-0.3,1c-0.2,0.3-0.4,0.4-0.7,0.4h-4.1c-0.4,0-0.8-0.3-0.9-0.8
			l-2.9-6.5c0-0.2-0.2-0.3-0.4-0.3c-0.1,0-0.3,0.1-0.3,0.2c-0.1,0.2-0.2,0.3-0.2,0.5v5.5c0,0.4-0.1,0.7-0.3,1
			c-0.2,0.3-0.4,0.4-0.8,0.4h-3.7c-0.3,0-0.6-0.2-0.8-0.4c-0.2-0.3-0.3-0.7-0.3-1L-180.1,87.9z"/>
	</g>
</g>
<g id="Group_87" transform="translate(254.902 -84)">
	<path id="Path_676" class="st0" d="M-213.3,96.3l-2.5,1.3c-3.9,2-7.8,3.9-11.7,5.9c-0.2,0.1-0.3,0.2-0.3-0.2c0-0.9,0-1.9,0-2.8
		c0-0.2,0.1-0.4,0.3-0.4c1.4-0.7,2.8-1.4,4.2-2.1c0.2-0.1,0.2-0.2,0.1-0.4c-0.4-0.4-0.8-0.8-1.2-1.1c-0.2-0.2-0.2-0.3,0-0.5
		c0.4-0.4,0.7-0.8,1.1-1.1c0.2-0.2,0.2-0.3-0.1-0.4c-1.4-0.7-2.8-1.4-4.2-2.1c-0.2-0.1-0.3-0.2-0.3-0.4c0-0.9,0-1.9,0-2.8
		c0-0.3,0.1-0.3,0.3-0.2c4,2,8,4.1,11.9,6.1L-213.3,96.3z"/>
	<path id="Path_677" class="st0" d="M-245,94.7c0.5,0.5,0.9,0.9,1.4,1.3c0.2,0.2,0.2,0.3,0,0.5c-0.4,0.4-0.7,0.7-1.1,1.1
		c-0.2,0.2-0.2,0.3,0.1,0.4c1.4,0.7,2.7,1.4,4.1,2c0.2,0.1,0.3,0.3,0.3,0.5c0,0.9,0,1.8,0,2.7c0,0.4,0,0.4-0.4,0.2l-10.8-5.5
		l-3.4-1.7c0.5-0.2,0.9-0.4,1.3-0.7l12.2-6.2c0.3-0.1,0.5-0.3,0.8-0.4c0.1-0.1,0.2,0,0.2,0.1v3.1c0,0.2-0.1,0.2-0.2,0.3l-4.1,2
		C-244.7,94.5-244.8,94.6-245,94.7z"/>
	<path id="Path_678" class="st0" d="M-231.9,86.3c0.5,0,1,0,1.5,0c0.2,0,0.3,0.1,0.2,0.3c-0.8,3.8-1.6,7.5-2.4,11.3
		c-0.6,2.7-1.2,5.4-1.7,8.1c-0.1,0.2-0.1,0.3-0.4,0.3c-0.9,0-1.9,0-2.8,0c-0.3,0-0.3-0.1-0.3-0.3c1.4-6.5,2.8-12.9,4.1-19.4
		c0-0.2,0.1-0.3,0.4-0.3C-232.8,86.3-232.4,86.3-231.9,86.3z"/>
</g>
</svg>
