<?xml version="1.0" encoding="utf-8"?>
<!-- Generator: Adobe Illustrator 24.3.0, SVG Export Plug-In . SVG Version: 6.00 Build 0)  -->
<svg version="1.1" id="Layer_1" xmlns="http://www.w3.org/2000/svg" xmlns:xlink="http://www.w3.org/1999/xlink" x="0px" y="0px"
	 viewBox="0 0 224 52" style="enable-background:new 0 0 224 52;" xml:space="preserve">
<style type="text/css">
	.st0{fill:#FF9C19;}
	.st1{enable-background:new    ;}
	.st2{fill:#FFFFFF;}
</style>
<g>
	<g>
		<path class="st0" d="M6.5,4.3C6,3.8,5.4,3.6,4.8,3.6C3.2,3.5,2.1,4.2,1.4,5.4C0.8,6.5,0.6,8,0.7,9.7c0,0.1,0,0.3,0,0.4
			c-0.1,0-0.2,0.1-0.3,0.2C0.2,11,0.1,11.7,0,12.5s0,1.6,0.2,2.3c0.3,1.3,0.7,2.3,1.2,3c0.5,0.7,1.1,1.1,1.8,1.2
			c0.6,0.1,1.2,0,1.9-0.4c0.6-0.4,1.3-0.9,1.8-1.7c0.6-0.7,1-1.6,1.4-2.5s0.6-1.9,0.7-2.9c0.3-2.3-0.1-4.4-1.3-6
			C7.4,5,7,4.6,6.5,4.3z M8.3,11.5c-0.1,0.9-0.4,1.8-0.7,2.7s-0.8,1.7-1.3,2.4c-0.5,0.7-1,1.1-1.6,1.5c-0.5,0.3-1,0.4-1.5,0.4
			c-0.5-0.1-0.9-0.4-1.3-0.9c-0.5-0.6-0.8-1.6-1.1-2.8c-0.3-1.2-0.2-2.3,0.1-3.5c0.2,1.1,0.6,2.1,1,3.1c0.7,1.5,1.6,2.5,2.6,3
			c0.1,0,0.2,0,0.3,0c0.1,0,0.2-0.1,0.2-0.2c0-0.1,0-0.2,0-0.3c0-0.1-0.1-0.1-0.2-0.2C4,16.3,3.2,15.4,2.6,14
			c-0.7-1.3-1-2.8-1.2-4.3C1.3,8,1.5,6.7,2,5.8c0.6-1,1.5-1.5,2.8-1.5c0.5,0,0.9,0.2,1.4,0.5c0.4,0.3,0.7,0.7,1,1.1
			C8.2,7.5,8.6,9.3,8.3,11.5z"/>
		<path class="st0" d="M24.9,19.5c-0.1,0-0.2,0-0.3,0C24,20,23.2,20,22.1,19.7c-0.4-0.1-0.8-0.3-1.2-0.5c0.1-0.4,0.3-0.8,0.4-1.3
			c0.5-2.1,0.6-4.6,0.3-7.4c0-0.1,0-0.2-0.1-0.2c-0.1-0.1-0.1-0.1-0.2-0.1c0,0,0,0-0.1,0c-2.1-0.7-3.8-0.6-5,0.2
			c-0.1,0.1-0.2,0.2-0.3,0.3c-0.1,0-0.1,0-0.2,0c-0.1,0-0.2,0-0.4-0.1c-0.1-0.1-0.3-0.2-0.6-0.4c-0.3-0.2-0.5-0.4-0.7-0.5
			c-0.3-0.2-0.6-0.2-0.9-0.2c-0.7,0.1-1.3,0.7-1.9,1.8c-0.2,0.4-0.3,0.8-0.5,1.2c0,0.1-0.1,0.2-0.1,0.3c0-0.2,0-0.4,0-0.6
			c0-0.2,0-0.5,0-0.8C10.9,10,11,9,11,8.4c0-0.1,0-0.2-0.1-0.2C10.9,8.1,10.8,8,10.7,8c-0.1,0-0.2,0-0.2,0.1
			c-0.1,0.1-0.1,0.1-0.1,0.2c0,0.6-0.1,1.6-0.1,2.8c0,0.4,0,0.6,0,0.8c-0.1,1.5-0.1,2.7-0.1,3.7c0,0.1,0.1,0.2,0.2,0.3
			c0,0,0.1,0.1,0.1,0.1c0.1,0,0.2,0,0.2,0c0.1-0.1,0.1-0.1,0.2-0.2c0,0,0-0.1,0.1-0.3c0-0.1,0-0.2,0-0.2c0.2-1.2,0.5-2.1,0.7-2.7
			c0.1-0.4,0.3-0.7,0.5-1.1c0.3-0.5,0.5-0.9,0.8-1.2c0.2-0.2,0.4-0.3,0.5-0.3c0.1,0,0.3,0,0.5,0.1c0.1,0.1,0.3,0.2,0.6,0.4
			c0.3,0.2,0.5,0.4,0.6,0.5c0.1,0.1,0.2,0.1,0.4,0.2c-0.1,0.1-0.2,0.2-0.2,0.4c-0.2,0.5-0.3,1-0.2,1.6c0.1,0.5,0.3,1,0.7,1.2
			c0.4,0.3,0.8,0.4,1.4,0.2c1.2-0.3,2.5-1.4,4-3.6c0.2,2.5,0.1,4.7-0.3,6.6c-0.1,0.4-0.2,0.8-0.3,1.1c-0.2-0.1-0.7-0.4-1.4-0.8
			c-0.9-0.5-1.6-0.9-2.1-1.2c-0.7-0.4-1.3-0.6-1.9-0.7c-0.7-0.2-1.4-0.2-2-0.1c-1.2,0.2-2.1,0.7-2.8,1.4c-0.6,0.7-1,1.4-1,2.3
			c0,0.9,0.2,1.7,0.8,2.5c0.6,0.8,1.4,1.5,2.4,2c0.8,0.4,1.7,0.5,2.5,0.4c0.7-0.1,1.5-0.4,2.4-0.8c1.1-0.6,2-1.4,2.7-2.5
			c0.3-0.4,0.6-0.9,0.8-1.5c0.4,0.2,0.9,0.4,1.2,0.5c1.3,0.4,2.3,0.4,3.2-0.2c0.1-0.1,0.1-0.1,0.1-0.2c0-0.1,0-0.2,0-0.3
			C25.1,19.6,25,19.5,24.9,19.5z M18.4,13c-0.6,0.5-1.1,0.8-1.6,0.9c-0.4,0.1-0.6,0-0.9-0.2c-0.2-0.2-0.3-0.4-0.4-0.8
			c-0.1-0.4,0-0.7,0.2-1.1c0.2-0.4,0.5-0.8,0.9-1c0.5-0.3,1-0.5,1.7-0.5c0.6,0,1.3,0,2.1,0.2C19.7,11.6,19.1,12.5,18.4,13z
			 M16.8,23.1c-0.8,0.4-1.5,0.7-2.1,0.7c-0.7,0.1-1.4,0-2.1-0.4c-0.9-0.4-1.6-1-2.1-1.7c-0.5-0.7-0.7-1.4-0.6-2.1
			c0-0.7,0.3-1.3,0.8-1.9c0.6-0.6,1.4-1,2.4-1.2c0.9-0.2,2.1,0.1,3.5,0.8c0.5,0.2,1.2,0.6,2,1.2c0.8,0.5,1.3,0.8,1.5,0.9
			C19.3,21.1,18.3,22.3,16.8,23.1z"/>
		<path class="st0" d="M42.9,8c0.1,0,0.2,0,0.2-0.1c0.1-0.1,0.1-0.2,0.1-0.2s0-0.2-0.1-0.2c-0.1-0.1-0.1-0.1-0.2-0.1
			c-0.1,0-0.2,0-0.2,0.1c-0.1,0.1-0.1,0.1-0.1,0.2s0,0.2,0.1,0.2S42.8,8,42.9,8z"/>
		<path class="st0" d="M73.5,11.1c-0.1,0-0.2,0.1-0.2,0.2c-0.2,0.4-0.4,0.9-0.8,1.5c0,0,0,0.1,0,0.1s0,0.1,0,0.1l0,0
			c-0.3,0.7-0.6,1.3-0.8,1.6c-0.3,0.6-0.6,1-0.8,1.3c-0.4,0.5-0.7,0.8-1,0.8c-0.2,0-0.3-0.1-0.5-0.3C69,16,68.7,15,68.6,13.4
			c0-0.5-0.1-1-0.1-1.6c0-0.1,0-0.1,0-0.2c1-1,1.9-2.1,2.7-3.3c1.2-1.8,2-3.4,2.2-4.7c0.1-0.8,0.1-1.5-0.1-2c-0.3-0.6-0.7-1-1.5-1.2
			c-1.4-0.5-2.5-0.1-3.3,1.1c-0.5,0.9-0.9,2.1-1,3.9c-0.1,1,0,2.2,0,3.6c0,0.1,0,0.2,0,0.5c0,0.3,0,0.5,0,0.5c0,0.1,0,0.3,0,0.6
			c0,0,0,0.1,0,0.1c-0.9-0.4-1.7-0.6-2.5-0.5c-0.5,0.1-0.8,0.3-1.2,0.6c0,0,0,0,0,0c-0.1,0-0.2,0.1-0.2,0.1c-1.6,2.4-3,3.8-4.1,4.2
			c-0.4,0.1-0.7,0.2-1,0c-0.2-0.1-0.4-0.4-0.6-0.7c-0.2-0.6-0.3-1.4-0.1-2.2c0.9-0.2,1.6-0.5,2.3-0.9c0.6-0.4,0.9-0.8,1.1-1.2
			c0.2-0.5,0.2-0.9-0.1-1.2c-0.3-0.3-0.8-0.3-1.4-0.1c-0.5,0.2-1,0.5-1.4,0.9c-0.4,0.4-0.7,1-1,1.6c0,0,0,0.1,0,0.1
			c-0.9,1.8-2.2,3.3-4,4.6c-1.8,1.3-3.6,2-5.5,2.2c0.1-0.2,0.3-0.4,0.5-0.6c0.1-0.1,0.2-0.3,0.5-0.6c0.3-0.3,0.4-0.5,0.5-0.6
			c0.9-1.1,1.5-2,2-2.7c0.6-1,1-1.9,1.1-2.8c0-0.1,0.1-0.2,0-0.2c0,0,0,0,0,0c0-0.2-0.1-0.3-0.3-0.3c-0.1,0-0.2,0-0.3,0.1
			c-0.1,0-0.3,0-0.4,0.1c-0.2,0.1-0.6,0.1-1.1,0.3c-0.7,0.2-1.2,0.3-1.5,0.4c-0.5,0.1-1,0.1-1.4,0.2c0,0,0,0,0,0
			c0-0.1-0.1-0.2-0.2-0.2c-0.1,0-0.2-0.1-0.3,0c-0.1,0-0.2,0.1-0.2,0.2c-0.2,0.3-0.3,0.6-0.6,1c0,0.1-0.1,0.2-0.2,0.3
			s-0.2,0.3-0.2,0.5L46,13.2c-0.6,1.1-1.1,2-1.5,2.6c-0.4,0.5-0.7,0.8-0.9,0.9c-0.1,0-0.1,0-0.1,0c0,0-0.1-0.1-0.1-0.1
			c-0.2-0.4-0.4-1.3-0.4-2.6c0-0.6,0-1.3,0-2c0-0.2,0-0.5,0.1-0.9c0-0.1,0-0.2-0.1-0.3c-0.1-0.1-0.1-0.1-0.2-0.1
			c-0.1,0-0.2,0-0.2,0.1c-0.1,0.1-0.1,0.1-0.1,0.2l0,0.1c0,0,0,0,0,0c-0.4,0.7-1,1.4-1.8,2.1c-0.6,0.5-1.1,0.6-1.7,0.4
			c-0.4-0.2-0.9-0.6-1.5-1.2c0,0-0.1-0.1-0.2-0.3c-0.1-0.1-0.2-0.2-0.2-0.2c-0.2-0.2-0.3-0.3-0.4-0.4c-0.4-0.3-0.7-0.5-1-0.6
			c-0.4-0.1-0.8,0.1-1.1,0.5c-0.3,0.4-0.5,1-0.7,1.8c0,0.1-0.1,0.2-0.1,0.4c-0.1,0.3-0.2,0.6-0.2,1c-0.1-0.4-0.1-0.8-0.2-1.2
			c-0.1-1-0.2-2-0.2-2.9c0-0.1,0-0.2-0.1-0.2S32.8,10,32.7,10c-0.1,0-0.2,0-0.2,0.1c-0.1,0.1-0.1,0.1-0.1,0.2c0,0.4,0,0.8,0,1.1
			c0,0,0,0-0.1,0c-0.8,1.1-1.4,2-2,2.6c-0.5,0.5-0.9,0.8-1.2,1c-0.2,0.1-0.3,0.1-0.4,0c-0.1-0.1-0.2-0.4-0.3-0.8
			c-0.1-0.7,0-1.7,0.2-2.9c0.1-0.5,0.2-0.9,0.3-1.3C28.9,9.8,29,9.7,29,9.5c0-0.1,0.1-0.1,0.1-0.2c0,0,0,0,0-0.1
			c0.1-0.2,0.1-0.3-0.1-0.4c-0.1-0.1-0.2-0.1-0.3-0.1c-0.1,0-0.2,0.1-0.2,0.1c-0.1,0.1-0.1,0.2-0.2,0.3c-0.4,0.7-1,1.4-1.6,2.3
			s-1.4,1.6-2,2.2c-0.4,0.4-0.8,0.7-1.1,0.8c-0.2,0.1-0.3,0.1-0.4,0c-0.1-0.1-0.2-0.3-0.2-0.5c0-0.3,0-0.6,0.1-1
			c0.2-0.9,0.7-1.6,1.3-2c0.7-0.6,1.5-0.6,2.4-0.3c0.1,0,0.2,0,0.3,0c0.1,0,0.2-0.1,0.2-0.2c0-0.1,0-0.2,0-0.3
			c0-0.1-0.1-0.2-0.2-0.2c-1.2-0.5-2.2-0.4-3.1,0.4c-0.8,0.6-1.3,1.4-1.6,2.4c-0.1,0.5-0.2,0.9-0.1,1.3c0,0.4,0.2,0.7,0.4,0.9
			c0.3,0.3,0.6,0.3,1.1,0.2c0.4-0.1,0.8-0.5,1.4-0.9c0.9-0.8,1.7-1.8,2.6-3v0c-0.3,1.3-0.3,2.3-0.2,3.2c0.1,0.5,0.2,0.9,0.4,1.2
			c0.3,0.3,0.7,0.4,1.2,0.2c0.8-0.3,1.8-1.4,3.2-3.2c0,0.3,0,0.5,0.1,0.8c0.1,0.8,0.3,1.7,0.5,2.8c0,0.1,0,0.2,0.1,0.2
			c0.1,0.1,0.1,0.1,0.2,0.1c0,0,0,0,0.1,0c0,0,0.1,0,0.1,0c0.1,0,0.2-0.1,0.2-0.1c0.1-0.1,0.1-0.1,0.1-0.2c0.1-0.9,0.3-1.7,0.5-2.5
			c0-0.1,0.1-0.2,0.1-0.4c0.2-0.8,0.4-1.3,0.6-1.6c0.1-0.1,0.1-0.2,0.2-0.2c0.1,0,0.1,0,0.2,0c0.1,0,0.3,0.2,0.6,0.4
			c0.1,0.1,0.2,0.2,0.4,0.4c0,0,0.1,0.1,0.2,0.2c0.1,0.1,0.2,0.2,0.3,0.3c0.3,0.3,0.6,0.6,0.8,0.8c0.3,0.3,0.6,0.5,0.9,0.6
			c0.8,0.3,1.6,0.2,2.4-0.4c0.6-0.4,1-0.9,1.4-1.4c0,0.6,0,1.1,0,1.6c0,1.5,0.2,2.4,0.5,2.9c0.3,0.4,0.6,0.6,1.1,0.4
			c0.4-0.1,0.8-0.5,1.2-1.2c0.4-0.6,0.9-1.5,1.5-2.6c0,0,0.1-0.1,0.1-0.2c0.1-0.1,0.2-0.3,0.2-0.5s0.1-0.3,0.2-0.3
			c0.1-0.2,0.2-0.5,0.3-0.6c0,0,0.1,0.1,0.1,0.1c0.5,0,1-0.1,1.6-0.2c0.4-0.1,0.9-0.2,1.6-0.4c0.5-0.1,0.8-0.2,1-0.3
			c0,0,0.1,0,0.1,0c-0.1,0.7-0.5,1.4-0.9,2.2c-0.4,0.7-1,1.6-1.9,2.7c-0.1,0.1-0.2,0.3-0.5,0.6c-0.3,0.3-0.4,0.5-0.5,0.6
			c-0.4,0.4-0.7,0.8-0.9,1.1c-0.1,0.1-0.1,0.2-0.1,0.3s0.1,0.2,0.1,0.2h0c0.1,0.1,0.2,0.2,0.3,0.2c1.4-0.1,2.7-0.4,4.1-1.1
			c1.4-0.7,2.7-1.5,3.8-2.6c0.7-0.7,1.3-1.3,1.8-2.1c0,0.5,0.1,1,0.2,1.5c0.2,0.6,0.5,0.9,0.9,1.1c0.4,0.2,0.9,0.2,1.5,0
			c1-0.4,2-1.3,3.3-2.9c0,0.1,0,0.1,0,0.2c0,0.3,0.1,0.6,0.3,0.8s0.3,0.4,0.6,0.4c0.8,0.2,1.9-0.3,3.4-1.6c0.1-0.1,0.2-0.2,0.3-0.3
			c0,0.4,0,0.9,0.1,1.2c0.1,1.7,0.4,2.8,0.8,3.4c0.3,0.5,0.7,0.7,1.2,0.6c0.4-0.1,0.9-0.4,1.4-1.1c0.3-0.4,0.6-0.9,0.9-1.5
			c0.2-0.4,0.5-0.9,0.8-1.7l0,0c0,0,0,0,0-0.1c0,0,0,0,0-0.1c0,0,0,0,0-0.1c0.3-0.7,0.6-1.2,0.7-1.5c0-0.1,0.1-0.2,0-0.3
			c0-0.1-0.1-0.2-0.2-0.2S73.6,11.1,73.5,11.1z M59.2,10c0.3-0.4,0.7-0.6,1.1-0.7c0.2-0.1,0.4-0.1,0.5-0.1c0.1,0,0.2,0,0.2,0.1
			c0,0,0,0.1,0,0.1c0,0.1,0,0.2-0.1,0.3c-0.1,0.3-0.4,0.6-0.9,0.9c-0.5,0.3-1,0.5-1.6,0.7C58.6,10.8,58.9,10.3,59.2,10z M67.1,12
			c-0.6,0.5-1.2,0.9-1.6,1.2c-0.5,0.3-0.9,0.4-1.1,0.3c-0.2,0-0.3-0.2-0.3-0.6c0-0.4,0.1-0.9,0.3-1.3c0.3-0.5,0.6-0.7,1.2-0.8
			c0.6-0.1,1.4,0.1,2.3,0.6C67.6,11.6,67.3,11.8,67.1,12z M68.5,10.5c0-0.3,0-0.5,0-0.6c0-0.1,0-0.2,0-0.5c0-0.3,0-0.5,0-0.5
			c-0.1-1.3-0.1-2.5,0-3.5c0.1-1.6,0.4-2.8,0.8-3.5c0.6-0.9,1.4-1.2,2.5-0.8c0.5,0.2,0.9,0.5,1,0.9c0.2,0.4,0.2,0.9,0.1,1.6
			c-0.2,1.2-0.9,2.7-2.1,4.4c-0.7,1-1.4,1.9-2.2,2.7C68.5,10.6,68.5,10.5,68.5,10.5z"/>
		<path class="st0" d="M80.6,13.6c0.4,1.3,0.9,2.3,1.4,3.2c0,0.1,0.1,0.1,0.1,0.1c0.1,0.1,0.2,0.1,0.3,0.1c0.1,0,0.2-0.1,0.2-0.1
			c0.1-0.1,0.1-0.2,0.1-0.3c0,0,0-0.1,0-0.1c0-0.2-0.1-0.4-0.1-0.5c-0.1-0.4-0.1-0.8-0.1-1c0-0.5,0.1-1.1,0.3-1.7
			c0.2-0.6,0.4-1.1,0.7-1.5c0.2-0.3,0.4-0.5,0.6-0.5c0.1-0.1,0.3-0.1,0.4,0c0.3,0.1,0.5,0.5,0.6,1.1c0.1,0.6,0,1.2-0.3,1.7
			c-0.4,0.6-1,1-1.8,1.2c-0.1,0-0.2,0.1-0.2,0.1s-0.1,0.2,0,0.3c0,0.1,0.1,0.2,0.1,0.2c0.1,0.1,0.2,0.1,0.3,0c1-0.2,1.8-0.7,2.3-1.5
			c0.4-0.7,0.5-1.4,0.4-2.2c-0.1-0.4-0.2-0.7-0.4-1c-0.2-0.3-0.4-0.5-0.7-0.6c-0.3-0.1-0.6-0.1-0.9,0c-0.3,0.1-0.6,0.4-0.9,0.8
			c-0.3,0.5-0.6,1-0.8,1.7c-0.2,0.7-0.3,1.3-0.3,1.9c-0.5-1.1-0.9-2.2-1.2-3.3c0.9-0.4,1.9-1.2,2.9-2.5c0.9-1.2,1.7-2.5,2.2-3.8
			c0.5-1.5,0.7-2.7,0.4-3.6c-0.2-0.6-0.5-1-0.9-1.3c-0.4-0.3-1-0.4-1.7-0.4c-0.9,0-1.6,0.5-2.3,1.3c-0.9,1.1-1.5,2.5-1.7,4.3
			c-0.1,1.4-0.1,2.9,0.2,4.6C79.9,11.2,80.2,12.3,80.6,13.6z M80.2,5.7c0.2-1.6,0.7-2.9,1.5-3.9c0.6-0.7,1.2-1,1.8-1
			c1.1,0,1.7,0.4,2,1.2c0.2,0.8,0.1,1.8-0.4,3.2c-0.5,1.3-1.1,2.4-2,3.6c-0.9,1.1-1.7,1.9-2.5,2.3c-0.1-0.3-0.1-0.6-0.2-0.8
			C80.1,8.5,80,7,80.2,5.7z"/>
		<path class="st0" d="M96.1,20.8c0-0.1-0.1-0.2-0.2-0.2c-0.1,0-0.2,0-0.3,0c-0.9,0.3-2,0.4-3.2,0.1c-0.4-0.1-0.8-0.2-1.2-0.4
			c0.1-0.4,0.3-0.8,0.4-1.2c0.6-2.5,0.6-5.4-0.2-8.7c0-0.1-0.1-0.2-0.2-0.2c-0.1-0.1-0.2-0.1-0.3,0c-0.1,0-0.2,0.1-0.3,0.3
			c-0.1,0.1-0.2,0.3-0.5,0.7c-0.3,0.4-0.6,0.8-0.8,1.1c-0.3,0.4-0.5,0.7-0.7,0.9c-0.4,0.5-0.8,0.8-1,0.8c-0.1,0-0.1,0-0.2,0
			c-0.1-0.1-0.2-0.2-0.2-0.4c-0.3-1.2-0.4-2.6-0.4-4c0-0.1,0-0.2-0.1-0.2s-0.1-0.1-0.2-0.1c-0.1,0-0.2,0-0.2,0.1
			c-0.1,0.1-0.1,0.1-0.1,0.2c-0.1,1.5,0.1,3,0.4,4.2c0.1,0.4,0.2,0.6,0.4,0.8c0.2,0.2,0.5,0.2,0.8,0.1c0.4-0.1,0.8-0.4,1.3-1
			c0.2-0.3,0.5-0.6,0.8-1c0.2-0.3,0.5-0.7,0.8-1.1c0.1-0.1,0.1-0.1,0.1-0.2c0.6,2.8,0.6,5.3,0,7.5c-0.1,0.4-0.2,0.8-0.4,1.2
			c-0.4-0.1-0.9-0.4-1.7-0.7c-0.6-0.2-1-0.4-1.3-0.5c-1-0.4-1.8-0.6-2.5-0.8c-0.9-0.2-1.7-0.3-2.5-0.2c-0.9,0.1-1.8,0.4-2.5,1
			c-0.8,0.6-1.3,1.3-1.6,2.1c-0.3,0.9-0.3,1.7,0,2.5c0.3,0.9,1,1.6,2,2.1c0.8,0.4,1.8,0.7,2.8,0.7c1.1,0,2-0.2,2.9-0.6
			c2.2-1,3.8-2.6,4.7-4.7c0.5,0.2,0.9,0.3,1.3,0.4c1.4,0.3,2.6,0.3,3.6-0.1c0.1,0,0.1-0.1,0.2-0.2C96.1,21,96.1,20.9,96.1,20.8z
			 M85.9,25.1c-0.8,0.4-1.7,0.5-2.6,0.5c-1,0-1.8-0.2-2.5-0.6c-0.8-0.4-1.4-1-1.6-1.7c-0.2-0.6-0.2-1.3,0-2c0.2-0.7,0.7-1.3,1.3-1.8
			c0.7-0.5,1.4-0.8,2.2-0.9c0.7-0.1,1.4,0,2.3,0.2c0.7,0.1,1.4,0.4,2.4,0.8c0.3,0.1,0.7,0.3,1.3,0.5c0.8,0.3,1.4,0.5,1.7,0.7
			C89.4,22.7,87.9,24.2,85.9,25.1z"/>
	</g>
	<g>
		<g class="st1">
			<path class="st2" d="M129.1,42.2v0.6c0,1.2-0.4,2.2-1.2,2.9c-0.8,0.7-1.8,1.1-3,1.1c-1.3,0-2.4-0.4-3.2-1.3
				c-0.9-0.8-1.3-1.9-1.3-3.1c0-1.2,0.4-2.3,1.3-3.1c0.8-0.8,1.9-1.3,3.1-1.3c0.8,0,1.5,0.2,2.1,0.5c0.6,0.4,1.2,0.8,1.5,1.4
				l-1.4,0.8c-0.2-0.3-0.5-0.6-0.9-0.8s-0.9-0.3-1.3-0.3c-0.8,0-1.5,0.3-2,0.8c-0.5,0.5-0.8,1.2-0.8,2c0,0.8,0.3,1.4,0.8,2
				c0.5,0.5,1.2,0.8,2.1,0.8c0.6,0,1.2-0.1,1.6-0.4s0.7-0.7,0.9-1.2h-2.5v-1.5H129.1z"/>
			<path class="st2" d="M131.8,41.8c0.1-0.4,0.4-0.7,0.7-0.9c0.3-0.2,0.7-0.3,1.1-0.3v1.7c-0.5-0.1-0.9,0-1.3,0.3s-0.6,0.7-0.6,1.2
				v2.9h-1.5v-6h1.5V41.8z"/>
			<path class="st2" d="M139.4,46c-0.6,0.6-1.4,0.9-2.3,0.9c-0.9,0-1.6-0.3-2.2-0.9c-0.6-0.6-0.9-1.4-0.9-2.2s0.3-1.6,0.9-2.2
				c0.6-0.6,1.4-0.9,2.2-0.9c0.9,0,1.6,0.3,2.3,0.9c0.6,0.6,0.9,1.4,0.9,2.2S140,45.4,139.4,46z M136,44.9c0.3,0.3,0.7,0.5,1.2,0.5
				c0.5,0,0.9-0.2,1.2-0.5c0.3-0.3,0.5-0.7,0.5-1.2s-0.2-0.9-0.5-1.2c-0.3-0.3-0.7-0.5-1.2-0.5c-0.5,0-0.8,0.2-1.2,0.5
				c-0.3,0.3-0.5,0.7-0.5,1.2S135.7,44.6,136,44.9z"/>
			<path class="st2" d="M145.4,40.7h1.5v6h-1.5v-0.7c-0.4,0.6-1,0.8-1.8,0.8c-0.7,0-1.2-0.2-1.6-0.7c-0.4-0.4-0.6-1-0.6-1.8v-3.7
				h1.5v3.5c0,0.4,0.1,0.7,0.3,0.9c0.2,0.2,0.5,0.3,0.9,0.3c0.4,0,0.7-0.1,1-0.4c0.2-0.2,0.4-0.6,0.4-1.1V40.7z"/>
			<path class="st2" d="M151.8,40.6c0.8,0,1.5,0.3,2.1,0.9s0.9,1.4,0.9,2.2s-0.3,1.6-0.9,2.2s-1.3,0.9-2.1,0.9
				c-0.8,0-1.5-0.3-1.9-0.9v3.1h-1.5v-8.4h1.5v0.7C150.3,40.9,151,40.6,151.8,40.6z M150.4,45c0.3,0.3,0.7,0.5,1.2,0.5
				c0.5,0,0.9-0.2,1.2-0.5c0.3-0.3,0.5-0.7,0.5-1.2s-0.2-0.9-0.5-1.2c-0.3-0.3-0.7-0.5-1.2-0.5c-0.5,0-0.9,0.2-1.2,0.5
				c-0.3,0.3-0.5,0.7-0.5,1.2S150,44.6,150.4,45z"/>
			<path class="st2" d="M164,42.4c0.7,0.4,1.1,1.1,1.1,1.9c0,0.7-0.3,1.3-0.8,1.8s-1.1,0.7-1.9,0.7h-3.6v-8.4h3.3
				c0.7,0,1.3,0.2,1.8,0.7c0.5,0.4,0.7,1,0.7,1.7C164.8,41.4,164.5,42,164,42.4z M162.2,39.9h-1.7v1.8h1.7c0.3,0,0.5-0.1,0.6-0.3
				c0.2-0.2,0.3-0.4,0.3-0.7c0-0.3-0.1-0.5-0.3-0.7C162.7,40,162.5,39.9,162.2,39.9z M162.5,45.2c0.3,0,0.5-0.1,0.7-0.3
				c0.2-0.2,0.3-0.4,0.3-0.7c0-0.3-0.1-0.5-0.3-0.7c-0.2-0.2-0.4-0.3-0.7-0.3h-1.9v2H162.5z"/>
			<path class="st2" d="M170.8,40.7h1.5v6h-1.5V46c-0.5,0.6-1.1,0.9-2,0.9c-0.8,0-1.5-0.3-2.1-0.9c-0.6-0.6-0.9-1.4-0.9-2.2
				s0.3-1.6,0.9-2.2c0.6-0.6,1.3-0.9,2.1-0.9c0.8,0,1.5,0.3,2,0.9V40.7z M167.9,45c0.3,0.3,0.7,0.5,1.2,0.5c0.5,0,0.9-0.2,1.2-0.5
				c0.3-0.3,0.5-0.7,0.5-1.2s-0.2-0.9-0.5-1.2c-0.3-0.3-0.7-0.5-1.2-0.5c-0.5,0-0.9,0.2-1.2,0.5c-0.3,0.3-0.5,0.7-0.5,1.2
				S167.6,44.6,167.9,45z"/>
			<path class="st2" d="M177.1,40.6c0.7,0,1.2,0.2,1.6,0.7c0.4,0.4,0.6,1,0.6,1.8v3.7h-1.5v-3.5c0-0.4-0.1-0.7-0.3-0.9
				s-0.5-0.3-0.9-0.3c-0.4,0-0.7,0.1-1,0.4c-0.2,0.2-0.4,0.6-0.4,1.1v3.2h-1.5v-6h1.5v0.7C175.6,40.9,176.2,40.6,177.1,40.6z"/>
			<path class="st2" d="M185.2,40.7h1.5v5.7c0,0.9-0.3,1.6-0.9,2.1c-0.6,0.5-1.3,0.7-2.2,0.7c-0.6,0-1.2-0.1-1.7-0.4
				c-0.5-0.2-0.9-0.6-1.1-1.1l1.3-0.8c0.3,0.6,0.8,0.8,1.6,0.8c0.5,0,0.9-0.1,1.2-0.4c0.3-0.3,0.4-0.6,0.4-1.1v-0.6
				c-0.5,0.6-1.1,0.9-1.9,0.9c-0.8,0-1.6-0.3-2.1-0.9c-0.6-0.6-0.9-1.3-0.9-2.2c0-0.8,0.3-1.6,0.9-2.2c0.6-0.6,1.3-0.9,2.1-0.9
				c0.8,0,1.5,0.3,1.9,0.9V40.7z M182.4,44.8c0.3,0.3,0.7,0.5,1.2,0.5c0.5,0,0.9-0.2,1.2-0.5c0.3-0.3,0.5-0.7,0.5-1.2
				c0-0.5-0.2-0.9-0.5-1.2c-0.3-0.3-0.7-0.5-1.2-0.5c-0.5,0-0.9,0.2-1.2,0.5c-0.3,0.3-0.5,0.7-0.5,1.2
				C181.9,44.1,182,44.5,182.4,44.8z"/>
			<path class="st2" d="M188.2,46.7V38h1.5v8.8H188.2z"/>
			<path class="st2" d="M195.7,40.7h1.5v6h-1.5V46c-0.5,0.6-1.1,0.9-2,0.9c-0.8,0-1.5-0.3-2.1-0.9c-0.6-0.6-0.9-1.4-0.9-2.2
				s0.3-1.6,0.9-2.2c0.6-0.6,1.3-0.9,2.1-0.9c0.8,0,1.5,0.3,2,0.9V40.7z M192.8,45c0.3,0.3,0.7,0.5,1.2,0.5c0.5,0,0.9-0.2,1.2-0.5
				c0.3-0.3,0.5-0.7,0.5-1.2s-0.2-0.9-0.5-1.2c-0.3-0.3-0.7-0.5-1.2-0.5c-0.5,0-0.9,0.2-1.2,0.5c-0.3,0.3-0.5,0.7-0.5,1.2
				S192.5,44.6,192.8,45z"/>
			<path class="st2" d="M203.2,38.3h1.5v8.4h-1.5V46c-0.5,0.6-1.1,0.9-1.9,0.9c-0.8,0-1.5-0.3-2.1-0.9c-0.6-0.6-0.9-1.4-0.9-2.2
				s0.3-1.6,0.9-2.2c0.6-0.6,1.3-0.9,2.1-0.9c0.8,0,1.5,0.3,1.9,0.9V38.3z M200.3,45c0.3,0.3,0.7,0.5,1.2,0.5c0.5,0,0.9-0.2,1.2-0.5
				c0.3-0.3,0.5-0.7,0.5-1.2s-0.2-0.9-0.5-1.2c-0.3-0.3-0.7-0.5-1.2-0.5c-0.5,0-0.9,0.2-1.2,0.5c-0.3,0.3-0.5,0.7-0.5,1.2
				S200,44.6,200.3,45z"/>
			<path class="st2" d="M207.5,44.4c0.2,0.8,0.8,1.1,1.7,1.1c0.6,0,1-0.2,1.3-0.6l1.2,0.7c-0.6,0.9-1.5,1.3-2.6,1.3
				c-1,0-1.8-0.3-2.4-0.9c-0.6-0.6-0.9-1.4-0.9-2.3c0-0.9,0.3-1.7,0.9-2.3c0.6-0.6,1.4-0.9,2.3-0.9c0.9,0,1.6,0.3,2.2,0.9
				c0.6,0.6,0.9,1.4,0.9,2.3c0,0.2,0,0.4-0.1,0.6H207.5z M207.4,43.2h3.1c-0.1-0.4-0.3-0.7-0.5-0.9c-0.3-0.2-0.6-0.3-0.9-0.3
				c-0.4,0-0.8,0.1-1,0.3C207.7,42.5,207.5,42.8,207.4,43.2z"/>
			<path class="st2" d="M214.3,42.4c0,0.2,0.1,0.3,0.3,0.4c0.2,0.1,0.5,0.2,0.8,0.3s0.6,0.2,0.9,0.3c0.3,0.1,0.6,0.3,0.8,0.6
				c0.2,0.3,0.3,0.6,0.3,1c0,0.6-0.2,1.1-0.7,1.4c-0.5,0.3-1,0.5-1.7,0.5c-1.2,0-2.1-0.5-2.5-1.4l1.3-0.8c0.2,0.5,0.6,0.8,1.2,0.8
				c0.6,0,0.8-0.2,0.8-0.5c0-0.2-0.1-0.3-0.3-0.4c-0.2-0.1-0.5-0.2-0.8-0.3c-0.3-0.1-0.6-0.2-0.9-0.3c-0.3-0.1-0.6-0.3-0.8-0.6
				c-0.2-0.3-0.3-0.6-0.3-1c0-0.6,0.2-1.1,0.7-1.4c0.4-0.3,1-0.5,1.6-0.5c0.5,0,0.9,0.1,1.3,0.3c0.4,0.2,0.7,0.5,0.9,0.9l-1.3,0.7
				c-0.2-0.4-0.5-0.6-1-0.6c-0.2,0-0.4,0-0.5,0.1S214.3,42.3,214.3,42.4z"/>
			<path class="st2" d="M221.7,40.6c0.7,0,1.2,0.2,1.6,0.7c0.4,0.4,0.6,1,0.6,1.8v3.7h-1.5v-3.5c0-0.4-0.1-0.7-0.3-0.9
				s-0.5-0.3-0.9-0.3c-0.4,0-0.7,0.1-1,0.4c-0.2,0.2-0.4,0.6-0.4,1.1v3.2h-1.5v-8.4h1.5v3.1C220.3,40.9,220.9,40.6,221.7,40.6z"/>
		</g>
		<g>
			<path class="st2" d="M111.4,36.1c-1.2,0-2.5,0-3.7,0c-1.6-0.1-3.1,0-4.7,0.1c-1.6,0.2-2.4,1.1-2.5,2.3c-0.1,0.7-0.2,1.3-0.4,1.9
				c-0.3,1.5,0.2,2.3,1.8,2.4c1.1,0.1,2.2,0,3.4,0.1c2.3,0,2.2-0.4,1.6,2.2c0,0.4-0.4,0.8-0.9,0.7c0,0-0.1,0-0.1,0
				c-3.6,0-7.2,0-10.8,0c-0.7,0-0.9-0.2-0.7-0.9c0.3-1.4,0.6-2.9,0.9-4.3c0.6-2.6,0.6-2.5,3.2-2.5c1.3,0,1.3,0,1.5-1.3
				c0.1-0.5,0-0.7-0.5-0.7c-0.8,0-1.7,0-2.5,0c-0.5,0-0.7-0.2-0.6-0.7c0.2-0.7,0.3-1.5,0.4-2.2c0.2-1.1,0.2-1.1-0.9-1.1
				c-2.2,0-2.2,0-2.7,2.2c-0.4,1.8-0.4,1.8-2.2,1.9c-0.4,0-0.7,0-0.8,0.6c-0.3,1.4-0.4,1.4,1.1,1.4c0.1,0,0.2,0,0.4,0
				c0.6-0.1,0.9,0.2,0.7,0.8c-0.5,2.2-0.9,4.4-1.4,6.6c-0.3,1.3,0.1,1.8,1.3,2.2c0.5,0.1,1,0.2,1.4,0.1c2.1,0,4.3,0,6.4,0v0
				c2.3,0,4.6,0,6.9,0c2,0,2.8-0.8,3.3-2.7c0.1-0.5,0.2-0.9,0.3-1.4c0.4-1.8-0.2-2.6-2.1-2.7c-1,0-2.1,0-3.1,0c-2.1,0-2,0-1.6-2
				c0.1-0.6,0.4-0.9,1.1-0.9c1.9,0,3.8,0,5.7,0c1,0,1.3-0.3,1.4-1.2C112.1,36.3,111.9,36.1,111.4,36.1z"/>
			<path class="st2" d="M48.8,40.8c-0.2-0.5-0.1-1.1,0.2-1.5c1.7-2.2,3.3-4.4,4.9-6.6c0.1-0.2,0.4-0.3,0.3-0.6
				c-1.3-0.5-2.7,0.1-3.2,1.4c-0.8,1.4-1.9,2.7-2.9,4c-0.2,0.2-0.3,0.6-0.6,0.5c-0.3-0.1-0.3-0.4-0.4-0.7c-0.3-0.9-0.5-1.7-0.8-2.6
				c-0.3-0.9-0.3-2.1-1-2.5c-0.7-0.4-1.8-0.1-2.8-0.2c-0.7,0-0.8,0.2-0.6,0.8c0.7,2.1,1.3,4.1,2,6.2c0.2,0.5,0.1,1.1-0.3,1.6
				c-1.6,2.1-3.2,4.2-4.7,6.3c-0.2,0.2-0.5,0.5-0.5,0.8c1.2,0.4,2.5-0.1,3.1-1.1c1-1.7,2.3-3.2,3.6-5.1c0.4,1.4,0.8,2.5,1.2,3.6
				c0.9,2.8,0.9,2.8,3.8,2.7c0.6,0,0.7-0.1,0.5-0.7C50.1,45.1,49.5,43,48.8,40.8z"/>
			<path class="st2" d="M69.6,42.9c1.5,0,3.1,0,4.6-0.1c1.4,0,2.7-1,2.8-2.5c0.1-0.6,0.3-1.2,0.4-1.9c0.3-1.4-0.1-2.2-1.6-2.3
				c-2.4-0.3-4.8-0.2-7.2,0c-1.2,0-2.2,1-2.4,2.2c-0.5,2.2-0.9,4.4-1.4,6.6c-0.4,1.7,0.2,2.6,2,2.6c1.2,0,2.4,0,3.6,0v0
				c1.3,0,2.6,0,3.9,0c1,0,0.6-1,0.8-1.5c0.1-0.6-0.4-0.4-0.7-0.4c-1.4,0-2.8,0-4.3,0c-2.1,0-2.1,0-1.6-2
				C68.7,43.2,68.9,42.9,69.6,42.9z M69.6,38.8c0.1-0.5,0.3-0.7,0.8-0.7c1,0,1.9,0,2.9,0c0.6,0,0.7,0.3,0.6,0.8
				C73.6,41,73.6,41,71.4,41h-0.1C69.1,41,69.1,41,69.6,38.8z"/>
			<path class="st2" d="M63.8,36.3c-0.5-0.1-1-0.1-1.4-0.1c-2.2,0-4.5,0-6.7,0c-0.8,0-1.2,0.2-1.3,1c-0.8,4.1-1.7,8.2-2.6,12.3
				c-0.2,0.8-0.8,1.8-0.3,2.3c0.5,0.5,1.5,0.1,2.3,0.2c0.7,0.1,0.9-0.2,1-0.8c0.1-0.6,0.2-1.2,0.4-1.8c0.4-1.7,0-1.5,1.9-1.5
				c0.5,0,0.9,0,1.4,0v0c0.8,0,1.6,0,2.4,0c1.5,0.1,2.8-1,2.9-2.5c0.5-2.2,0.9-4.5,1.4-6.7C65.5,37.2,65.1,36.5,63.8,36.3z
				 M61.8,38.8c-0.5,2.2-0.9,4.4-1.4,6.5c0,0.3-0.3,0.6-0.7,0.5c0,0,0,0,0,0c-0.5,0-1,0-1.5,0c-2.2,0-2.2,0-1.8-2.2
				c0.3-1.6,0.7-3.2,1-4.8c0.1-0.6,0.4-0.8,1-0.8c0.9,0,1.9,0,2.8,0C61.6,38.1,61.9,38.2,61.8,38.8z"/>
			<path class="st2" d="M86.9,36.1c-1.8-0.1-3.6-0.1-5.4,0.1c-1.4,0-2.5,1-2.6,2.4c-0.5,2.2-1,4.5-1.4,6.7c-0.2,0.8-0.7,1.7-0.3,2.2
				c0.4,0.6,1.5,0.1,2.3,0.2c0.7,0.1,1-0.2,1.1-0.8c0.5-2.3,1-4.5,1.4-6.8c0.5-2.3,0.5-2.2,2.7-2.1c0.5,0,0.8,0.2,0.6,0.7
				c-0.3,0.8,0.2,0.9,0.8,0.8c0.3,0,0.5,0,0.8,0c1.7,0,1.6,0.3,1.9-1.2c0.1-0.7,0.7-1.6,0.3-2.1C88.6,35.8,87.6,36.1,86.9,36.1z"/>
			<path class="st2" d="M9.8,36.6c-2.1-0.2-4.3,0-6.4-0.1c-0.6,0-0.7,0.2-0.8,0.7C1.8,41.4,1,45.6,0.2,49.8
				c-0.3,1.7-0.4,1.7,1.3,1.7c0.2,0,0.4,0,0.6,0c0.8,0.2,1.1-0.2,1.1-0.9c0.1-0.8,0.3-1.6,0.4-2.4c0.1-0.5,0.3-0.7,0.8-0.7
				c1,0.1,2,0,3,0c3.2,0,6-2.3,6.4-5.5C14.5,38.8,13,36.8,9.8,36.6z M7.9,45c-0.4,0.1-0.8,0.1-1.2,0.1c-0.5,0-1,0-1.5,0
				c-0.7,0.1-0.9-0.2-0.7-0.9c0.3-1.4,0.6-2.8,0.8-4.3c0.1-0.9,0.4-1.4,1.4-1.2c0.2,0,0.5,0,0.7,0c0.7,0,1.4,0,2.1,0.2
				c0.6,0.2,1,0.6,1.1,1.2C11.2,42.3,10,44.5,7.9,45z"/>
			<path class="st2" d="M36.4,36.7c-0.3-0.1-0.5-0.1-0.8-0.1c-1.3-0.1-2.6-0.1-3.9-0.1c-0.9,0-1.8,0-2.7,0c-0.5,0-0.7,0.1-0.8,0.7
				c-0.9,4.5-1.7,9-2.6,13.5c-0.1,0.7,0,0.9,0.7,0.8c0.6,0,1.2,0,1.8,0c0.4,0,0.6-0.1,0.7-0.5c0.1-0.9,0.4-1.8,0.5-2.7
				c0.1-0.7,0.4-0.8,1-0.8c0.9,0,1.8,0,2.6,0c3.5,0.1,6.5-2.5,6.7-6C40,39.2,38.6,37.1,36.4,36.7z M32.1,45.1c-0.4,0-0.7,0-1.1,0
				c-1.2,0-1.2,0-1-1.2c0.3-1.4,0.6-2.7,0.8-4.1c0.1-0.8,0.4-1.2,1.2-1c0.3,0,0.5,0,0.8,0c0.8-0.1,1.5,0,2.2,0.2
				c0.6,0.2,1.1,0.8,1.1,1.4C36.3,43.1,35.2,45.2,32.1,45.1z"/>
			<path class="st2" d="M23.1,36.6c-1.2-0.1-2.4-0.1-3.5-0.1c-0.7,0-0.8-0.2-0.6-0.8c0.2-0.9,0.3-1.7,0.5-2.6c0.1-0.4,0-0.7-0.5-0.7
				c-0.7,0-1.3,0-2,0c-0.3-0.1-0.6,0.1-0.7,0.4c0,0,0,0.1,0,0.1c-0.9,4.6-1.8,9.3-2.7,13.9c-0.1,0.4,0,0.5,0.4,0.5
				c0.7,0,1.4,0,2.1,0c0.4,0,0.6-0.1,0.7-0.6c0.4-2.2,0.8-4.3,1.2-6.5c0.3-1.5,0.3-1.5,1.8-1.5c0.3,0,0.7,0,1,0
				c1.9,0,2.3,0.4,1.9,2.3c-0.4,2-0.8,4.1-1.2,6.2c0.9,0,1.7,0,2.5,0c0.6,0,0.8-0.2,0.9-0.8c0.4-2.1,0.8-4.1,1.2-6.2
				C26.5,38.1,25.6,36.8,23.1,36.6z"/>
		</g>
	</g>
</g>
</svg>
