<?xml version="1.0" encoding="utf-8"?>
<!-- Generator: Adobe Illustrator 24.3.0, SVG Export Plug-In . SVG Version: 6.00 Build 0)  -->
<svg version="1.1" id="Layer_1" xmlns="http://www.w3.org/2000/svg" xmlns:xlink="http://www.w3.org/1999/xlink" x="0px" y="0px"
	 viewBox="0 0 144 32" style="enable-background:new 0 0 144 32;" xml:space="preserve">
<style type="text/css">
	.st0{fill:#FF0000;}
	.st1{fill:#FFFFFF;}
</style>
<g id="youtube" transform="translate(-84.55 -85.039)">
	<g id="Group_97" transform="translate(84.55 85.039)">
		<path id="Path_732" class="st0" d="M45.1,5c-0.5-2-2.1-3.5-4-4c-3.6-1-17.9-1-17.9-1S8.9,0,5.3,1c-2,0.5-3.5,2.1-4,4
			c-1,3.6-1,11-1,11s0,7.4,1,11c0.5,2,2.1,3.5,4,4c3.6,1,17.9,1,17.9,1s14.3,0,17.9-1c2-0.5,3.5-2.1,4-4c1-3.6,1-11,1-11
			S46,8.6,45.1,5z"/>
		<path id="Path_733" class="st1" d="M18.6,22.9L30.5,16L18.6,9.1V22.9z"/>
	</g>
	<g id="Group_99" transform="translate(134.786 86.297)">
		<g id="Group_98">
			<path id="Path_734" class="st1" d="M16.4,27.9c-1-0.7-1.6-1.7-1.9-2.8c-0.4-1.7-0.6-3.4-0.6-5.1V17c-0.1-1.8,0.2-3.5,0.7-5.2
				c0.3-1.2,1.1-2.2,2-2.9C17.7,8.3,19,8,20.3,8c1.3-0.1,2.5,0.3,3.6,0.9c1,0.7,1.7,1.7,2,2.9c0.5,1.7,0.7,3.4,0.6,5.2v2.9
				c0.1,1.7-0.2,3.5-0.6,5.1c-0.3,1.1-1,2.2-2,2.8C21.5,29.1,18.8,29.1,16.4,27.9L16.4,27.9z M21.5,24.7c0.3-1,0.4-2.1,0.4-3.2v-6.2
				c0-1.1-0.1-2.1-0.4-3.2c-0.2-0.6-0.7-1-1.3-1c-0.6,0-1.1,0.4-1.3,1c-0.3,1-0.4,2.1-0.4,3.2v6.2c-0.1,1.1,0.1,2.2,0.4,3.2
				c0.2,0.6,0.7,1,1.3,1C20.8,25.7,21.3,25.3,21.5,24.7L21.5,24.7z"/>
			<path id="Path_735" class="st1" d="M85.9,19.9v1c0,1,0,1.9,0.1,2.9c0,0.5,0.2,1,0.5,1.4c0.3,0.3,0.7,0.5,1.1,0.4
				c0.6,0.1,1.1-0.3,1.4-0.8c0.3-0.8,0.4-1.7,0.4-2.6l3.9,0.2c0,0.2,0,0.5,0,0.7c0.1,1.5-0.4,3.1-1.5,4.2c-1.2,1-2.7,1.5-4.3,1.4
				c-2.2,0-3.8-0.7-4.7-2.1c-0.9-1.4-1.3-3.6-1.3-6.5v-3.5c0-3,0.5-5.2,1.4-6.6C83.8,8.7,85.4,8,87.6,8c1.2-0.1,2.5,0.2,3.6,0.8
				c0.9,0.6,1.5,1.6,1.7,2.6c0.4,1.6,0.6,3.3,0.5,5v3.4L85.9,19.9z M86.4,11.5c-0.3,0.4-0.4,0.9-0.5,1.4c-0.1,1-0.1,1.9-0.1,2.9v1.4
				h3.3v-1.4c0-1,0-2-0.1-2.9c0-0.5-0.2-1-0.5-1.4c-0.3-0.3-0.7-0.4-1.1-0.4C87.1,11,86.7,11.2,86.4,11.5z"/>
			<path id="Path_736" class="st1" d="M5.5,19.6L0.3,1h4.5l1.8,8.4c0.5,2.1,0.8,3.8,1,5.3h0.1c0.2-1,0.5-2.8,1-5.3L10.6,1h4.5
				L9.9,19.6v8.9H5.5L5.5,19.6z"/>
			<path id="Path_737" class="st1" d="M41,8.4v20h-3.5L37.1,26H37c-0.7,1.7-2.4,2.8-4.3,2.8c-1.1,0.1-2.2-0.4-2.9-1.3
				c-0.7-1.2-1.1-2.7-0.9-4.1v-15h4.5v14.7c0,0.7,0.1,1.3,0.3,1.9c0.2,0.4,0.6,0.6,1,0.6c0.4,0,0.8-0.1,1.1-0.4
				c0.3-0.2,0.6-0.5,0.8-0.9V8.4H41z"/>
			<path id="Path_738" class="st1" d="M64.1,8.4v20h-3.5L60.2,26h-0.1c-0.7,1.7-2.4,2.8-4.3,2.8c-1.1,0.1-2.2-0.4-2.9-1.3
				c-0.7-1.2-1.1-2.7-0.9-4.1v-15h4.5v14.7c0,0.7,0.1,1.3,0.3,1.9c0.2,0.4,0.6,0.6,1,0.6c0.4,0,0.8-0.1,1.1-0.4
				c0.3-0.2,0.6-0.5,0.8-0.9V8.4H64.1z"/>
			<path id="Path_739" class="st1" d="M53.3,4.6h-4.5v23.8h-4.4V4.6h-4.5V1h13.4V4.6z"/>
			<path id="Path_740" class="st1" d="M79.1,11.6c-0.2-1-0.6-2-1.3-2.7C77,8.3,76.1,8,75.2,8c-0.8,0-1.6,0.2-2.3,0.7
				c-0.7,0.5-1.3,1.1-1.7,1.8h0V0h-4.3v28.4h3.7l0.5-1.9h0.1c0.4,0.7,0.9,1.2,1.6,1.6c0.7,0.4,1.5,0.6,2.3,0.6
				c1.4,0,2.8-0.8,3.4-2.1c0.8-2.1,1.2-4.3,1.1-6.6v-3.2C79.5,15.1,79.4,13.3,79.1,11.6z M74.9,19.8c0,1.1,0,2.3-0.2,3.4
				c0,0.6-0.3,1.2-0.6,1.8c-0.3,0.3-0.7,0.5-1.1,0.5c-0.4,0-0.7-0.1-1-0.3c-0.3-0.2-0.6-0.5-0.8-0.8V13.1c0.1-0.5,0.4-1,0.8-1.3
				c0.3-0.3,0.7-0.5,1.2-0.5c0.4,0,0.8,0.2,1.1,0.5c0.3,0.6,0.5,1.2,0.5,1.8c0.1,1.2,0.2,2.4,0.1,3.6L74.9,19.8z"/>
		</g>
	</g>
</g>
</svg>
