<?xml version="1.0" encoding="utf-8"?>
<!-- Generator: Adobe Illustrator 24.3.0, SVG Export Plug-In . SVG Version: 6.00 Build 0)  -->
<svg version="1.1" id="Layer_1" xmlns="http://www.w3.org/2000/svg" xmlns:xlink="http://www.w3.org/1999/xlink" x="0px" y="0px"
	 viewBox="0 0 32 32" style="enable-background:new 0 0 32 32;" xml:space="preserve">
<style type="text/css">
	.st0{fill:#FFFFFF;}
</style>
<g id="Group_89" transform="translate(400 3936)">
	<path id="Path_138" d="M-372-3920c0-6.6-5.4-12-12-12c-6.6,0-12,5.4-12,12c0,5.9,4.3,10.9,10.1,11.9v-8.4h-3v-3.5h3v-2.6
		c0-3,1.8-4.7,4.5-4.7c0.9,0,1.8,0.1,2.7,0.2v3h-1.5c-0.9-0.1-1.8,0.5-1.9,1.5c0,0.1,0,0.3,0,0.4v2.3h3.3l-0.5,3.5h-2.8v8.4
		C-376.3-3909.1-372-3914.1-372-3920z"/>
	<path id="Path_139" class="st0" d="M-379.3-3916.5l0.5-3.5h-3.3v-2.3c-0.1-1,0.6-1.8,1.6-1.9c0.1,0,0.3,0,0.4,0h1.5v-3
		c-0.9-0.1-1.8-0.2-2.7-0.2c-2.7,0-4.5,1.7-4.5,4.7v2.6h-3v3.5h3v8.4c1.2,0.2,2.5,0.2,3.8,0v-8.4L-379.3-3916.5z"/>
</g>
</svg>
