<?xml version="1.0" encoding="utf-8"?>
<!-- Generator: Adobe Illustrator 24.3.0, SVG Export Plug-In . SVG Version: 6.00 Build 0)  -->
<svg version="1.1" id="Layer_1" xmlns="http://www.w3.org/2000/svg" xmlns:xlink="http://www.w3.org/1999/xlink" x="0px" y="0px"
	 viewBox="0 0 32 32" style="enable-background:new 0 0 32 32;" xml:space="preserve">
<g id="Group_90" transform="translate(357.921 3931.921)">
	<path id="Path_136" d="M-341.9-3925.8c3.2,0,3.6,0,4.8,0.1c0.8,0,1.5,0.1,2.2,0.4c1,0.4,1.9,1.2,2.3,2.3c0.3,0.7,0.4,1.5,0.4,2.2
		c0.1,1.3,0.1,1.6,0.1,4.8c0,3.2,0,3.6-0.1,4.8c0,0.8-0.1,1.5-0.4,2.2c-0.4,1-1.2,1.9-2.3,2.3c-0.7,0.3-1.5,0.4-2.2,0.4
		c-1.3,0.1-1.6,0.1-4.8,0.1c-3.2,0-3.6,0-4.8-0.1c-0.8,0-1.5-0.1-2.2-0.4c-1-0.4-1.9-1.2-2.3-2.3c-0.3-0.7-0.4-1.5-0.4-2.2
		c-0.1-1.3-0.1-1.6-0.1-4.8c0-3.2,0-3.6,0.1-4.8c0-0.8,0.1-1.5,0.4-2.2c0.4-1,1.2-1.9,2.3-2.3c0.7-0.3,1.5-0.4,2.2-0.4
		C-345.5-3925.7-345.1-3925.8-341.9-3925.8 M-341.9-3927.9c-3.3,0-3.7,0-4.9,0.1c-1,0-2,0.2-2.9,0.6c-1.6,0.6-2.9,1.9-3.5,3.5
		c-0.3,0.9-0.5,1.9-0.6,2.9c-0.1,1.3-0.1,1.7-0.1,4.9s0,3.7,0.1,4.9c0,1,0.2,2,0.6,2.9c0.6,1.6,1.9,2.9,3.5,3.5
		c0.9,0.3,1.9,0.5,2.9,0.6c1.3,0.1,1.7,0.1,4.9,0.1s3.7,0,4.9-0.1c1,0,2-0.2,2.9-0.6c1.6-0.6,2.9-1.9,3.5-3.5
		c0.3-0.9,0.5-1.9,0.6-2.9c0.1-1.3,0.1-1.7,0.1-4.9s0-3.7-0.1-4.9c0-1-0.2-2-0.6-2.9c-0.6-1.6-1.9-2.9-3.5-3.5
		c-0.9-0.3-1.9-0.5-2.9-0.6C-338.3-3927.9-338.7-3927.9-341.9-3927.9z"/>
	<path id="Path_137" d="M-341.9-3922.1c-3.4,0-6.2,2.8-6.2,6.2c0,3.4,2.8,6.2,6.2,6.2s6.2-2.8,6.2-6.2l0,0
		C-335.8-3919.3-338.5-3922.1-341.9-3922.1z M-341.9-3911.9c-2.2,0-4-1.8-4-4c0-2.2,1.8-4,4-4s4,1.8,4,4
		C-337.9-3913.7-339.7-3911.9-341.9-3911.9C-341.9-3911.9-341.9-3911.9-341.9-3911.9L-341.9-3911.9z"/>
	<circle id="Ellipse_5" cx="-335.5" cy="-3922.3" r="1.4"/>
</g>
</svg>
