<svg id="Group_838" data-name="Group 838" xmlns="http://www.w3.org/2000/svg" width="32" height="32" viewBox="0 0 32 32">
  <rect id="Image_45" data-name="Image 45" width="32" height="32" rx="7" fill="#fff"/>
  <path id="Path_839" data-name="Path 839" d="M82.258,117.2a13.381,13.381,0,0,0,13.473-13.473c0-.2,0-.409-.014-.612a9.635,9.635,0,0,0,2.362-2.451,9.452,9.452,0,0,1-2.72.745,4.752,4.752,0,0,0,2.082-2.619,9.49,9.49,0,0,1-3.007,1.149,4.74,4.74,0,0,0-8.07,4.319,13.443,13.443,0,0,1-9.759-4.947,4.739,4.739,0,0,0,1.466,6.321,4.7,4.7,0,0,1-2.149-.593v.06a4.737,4.737,0,0,0,3.8,4.642,4.728,4.728,0,0,1-2.138.081,4.741,4.741,0,0,0,4.424,3.288,9.5,9.5,0,0,1-5.881,2.031A9.643,9.643,0,0,1,75,115.077a13.406,13.406,0,0,0,7.258,2.123" transform="translate(-70.54 -91.825)"/>
</svg>
