<?xml version="1.0" encoding="utf-8"?>
<!-- Generator: Adobe Illustrator 24.3.0, SVG Export Plug-In . SVG Version: 6.00 Build 0)  -->
<svg version="1.1" id="Layer_1" xmlns="http://www.w3.org/2000/svg" xmlns:xlink="http://www.w3.org/1999/xlink" x="0px" y="0px"
	 viewBox="0 0 32 32" style="enable-background:new 0 0 32 32;" xml:space="preserve">
<style type="text/css">
	.st0{fill:#000000;}
	.st1{fill:#FFFFFF;}
</style>
<g id="Group_114" transform="translate(321.333 3937.667)">
	<path id="Path_146" class="st0" d="M-291.3-3928.8c-0.3-1.3-1.3-2.3-2.6-2.6c-2.3-0.6-11.5-0.6-11.5-0.6s-9.2,0-11.5,0.6
		c-1.3,0.3-2.3,1.3-2.6,2.6c-0.4,2.3-0.6,4.7-0.6,7.1c0,2.4,0.2,4.8,0.6,7.1c0.3,1.3,1.3,2.3,2.6,2.6c2.3,0.6,11.5,0.6,11.5,0.6
		s9.2,0,11.5-0.6c1.3-0.3,2.3-1.3,2.6-2.6c0.4-2.3,0.6-4.7,0.6-7.1C-290.7-3924-290.9-3926.4-291.3-3928.8z"/>
	<path id="Path_147" class="st1" d="M-308.3-3917.3l7.7-4.4l-7.7-4.4V-3917.3z"/>
</g>
</svg>
