<?xml version="1.0" encoding="utf-8"?>
<!-- Generator: Adobe Illustrator 24.3.0, SVG Export Plug-In . SVG Version: 6.00 Build 0)  -->
<svg version="1.1" id="Layer_1" xmlns="http://www.w3.org/2000/svg" xmlns:xlink="http://www.w3.org/1999/xlink" x="0px" y="0px"
	 viewBox="0 0 90 40" style="enable-background:new 0 0 90 40;" xml:space="preserve">
<style type="text/css">
	.st0{fill:#242424;}
</style>
<g id="Group_51" transform="translate(666 1682)">
	<path id="Path_415" class="st0" d="M-654.2-1666.7v13.5c0,0.1-0.1,0.2-0.3,0.3h-2.3c-0.1,0-0.2-0.1-0.3-0.3v-1.4h-0.1
		c-1.1,1.1-2.5,1.8-4,1.9c-2,0-3.4-1.1-4.3-3.2c-0.3-0.9-0.4-1.8-0.5-2.7c0-4.2,1.9-6.9,5.7-8.1c0.1,0,0.7-0.1,1.7-0.2
		c0.5,0.1,0.9,0.1,1.2,0.1L-654.2-1666.7z M-663.2-1658.3c0.2,2,1,2.9,2.3,2.9h0.3c0.9,0,2-0.9,3.3-2.7v-5.8
		c-0.1-0.2-0.2-0.3-0.6-0.3h-1.6c-1.8,0-3,1.4-3.7,4.3L-663.2-1658.3z"/>
	<path id="Path_416" class="st0" d="M-649.5-1666.6v9c0,0.6,0.1,1.2,0.4,1.7c0.3,0.4,0.8,0.6,1.3,0.6c0.6,0,1.2-0.3,1.6-0.7
		c0.6-0.6,1.1-1.2,1.6-1.8v-8.7h3.3v13.8h-2.9l-0.1-2c-0.3,0.3-0.6,0.7-0.9,1c-0.3,0.3-0.6,0.5-1,0.7c-0.4,0.2-0.7,0.4-1.1,0.5
		c-0.4,0.1-0.9,0.2-1.4,0.2c-0.6,0-1.3-0.1-1.8-0.3c-0.5-0.2-1-0.6-1.3-1c-0.4-0.4-0.6-1-0.8-1.5c-0.2-0.6-0.3-1.3-0.3-2v-9.2
		L-649.5-1666.6z"/>
	<path id="Path_417" class="st0" d="M-628.6-1653c-0.6,0.1-1.2,0.2-1.8,0.3c-0.6,0.1-1.1,0.1-1.7,0.1c-0.8,0-1.6-0.1-2.3-0.3
		c-0.6-0.2-1.2-0.5-1.6-0.9c-0.4-0.4-0.8-0.9-0.9-1.5c-0.2-0.7-0.3-1.4-0.3-2.1v-6.7h-3.7v-2.6h3.7v-3.5l3.4-0.9v4.4h5.3v2.6h-5.4
		v6.5c0,0.6,0.1,1.3,0.5,1.8c0.5,0.4,1.2,0.7,1.8,0.6c0.5,0,1.1,0,1.6-0.1c0.5-0.1,1-0.2,1.4-0.3V-1653z"/>
	<path id="Path_418" class="st0" d="M-618.8-1652.9v-9c0-1.5-0.6-2.3-1.7-2.3c-0.6,0-1.2,0.3-1.6,0.7c-0.6,0.6-1.1,1.2-1.6,1.8v8.7
		h-3.3v-19.1h3.3v4.7l-0.2,2.5c0.3-0.3,0.6-0.6,0.9-0.9c0.3-0.3,0.6-0.5,0.9-0.7c0.3-0.2,0.7-0.3,1.1-0.4c0.4-0.1,0.9-0.1,1.3-0.1
		c0.6,0,1.3,0.1,1.8,0.3c0.5,0.2,1,0.6,1.3,1c0.4,0.4,0.6,1,0.8,1.5c0.2,0.6,0.3,1.3,0.3,2v9.2H-618.8z"/>
	<path id="Path_419" class="st0" d="M-613.4-1652.9v-17.7h3.4v14.8h7.5v2.9L-613.4-1652.9z"/>
	<path id="Path_420" class="st0" d="M-589.8-1666.7v13.5c0,0.1-0.1,0.2-0.3,0.3h-2.3c-0.1,0-0.2-0.1-0.3-0.3v-1.4h-0.1
		c-1.1,1.1-2.5,1.8-4,1.9c-2,0-3.4-1.1-4.3-3.2c-0.3-0.9-0.4-1.8-0.5-2.7c0-4.2,1.9-6.9,5.7-8.1c0.1,0,0.7-0.1,1.7-0.2
		c0.5,0.1,0.9,0.1,1.2,0.1L-589.8-1666.7z M-598.8-1658.3c0.2,2,1,2.9,2.3,2.9h0.3c0.9,0,2-0.9,3.3-2.7v-5.8
		c-0.1-0.2-0.2-0.3-0.6-0.3h-1.6c-1.8,0-3,1.4-3.7,4.3L-598.8-1658.3z"/>
	<path id="Path_421" class="st0" d="M-576-1660c0,1.1-0.2,2.2-0.5,3.3c-0.3,0.9-0.8,1.7-1.5,2.3c-0.6,0.6-1.4,1.1-2.3,1.4
		c-0.9,0.3-1.9,0.5-2.8,0.4c-0.9,0-1.9-0.1-2.8-0.2c-0.8-0.1-1.7-0.3-2.5-0.6v-18.5h3.3v4.5l-0.1,2.7c0.5-0.6,1.1-1.1,1.7-1.5
		c1.4-0.7,3.1-0.8,4.6-0.1c0.6,0.3,1.2,0.8,1.6,1.4c0.5,0.7,0.8,1.4,1,2.2C-576.1-1661.9-576-1661-576-1660z M-579.5-1659.9
		c0-0.6,0-1.3-0.2-1.9c-0.1-0.5-0.2-0.9-0.5-1.3c-0.2-0.3-0.4-0.6-0.7-0.8c-0.3-0.2-0.7-0.2-1-0.2c-0.6,0-1.2,0.3-1.6,0.7
		c-0.6,0.6-1.1,1.2-1.6,1.8v6c0.3,0.1,0.6,0.2,1,0.2c0.4,0.1,0.8,0.1,1.2,0.1c0.5,0,1-0.1,1.4-0.3c0.4-0.2,0.8-0.5,1.1-0.9
		c0.3-0.4,0.6-0.9,0.7-1.5C-579.5-1658.6-579.5-1659.2-579.5-1659.9L-579.5-1659.9z"/>
</g>
</svg>
