<?xml version="1.0" encoding="utf-8"?>
<!-- Generator: Adobe Illustrator 24.3.0, SVG Export Plug-In . SVG Version: 6.00 Build 0)  -->
<svg version="1.1" id="Layer_1" xmlns="http://www.w3.org/2000/svg" xmlns:xlink="http://www.w3.org/1999/xlink" x="0px" y="0px"
	 viewBox="0 0 126 40" style="enable-background:new 0 0 126 40;" xml:space="preserve">
<style type="text/css">
	.st0{fill:#71BF44;}
</style>
<g>
	<g id="Group_763" transform="translate(41.733 11.671)">
		<path id="Path_407" d="M9,0c0.2,0,0.2,0,0.3,0c1.4,0,2.7,0,4.1,0c0.8,0,1.2,0.4,1.2,1.2c0,4.7,0,9.5,0,14.2c0.1,0.6-0.4,1.2-1,1.3
			c-0.1,0-0.2,0-0.3,0c-0.5,0-0.9,0-1.4,0c-0.3-0.1-0.6-0.1-0.9-0.2c-0.4-0.1-0.8-0.2-1.2-0.2c-0.5,0.1-1.1,0.3-1.6,0.5
			C6,17.5,2,16.5,1,13.1c-0.7-2.6,0-5.8,2.8-7.2c1.7-0.9,3.7-1,5.5-0.3c0.2,0.1,0.4,0.2,0.5,0.2c0.6,0.2,1-0.1,1-0.7
			c0-0.7,0-1.4,0-2.2c0-0.2-0.1-0.4-0.2-0.6C10.2,1.6,9.6,0.8,9,0z M4.9,11.4c0,1.1,0.5,2.2,1.4,2.9c0.3,0.3,0.7,0.5,1.1,0.6
			c1.2,0.2,2.4-0.4,2.8-1.6c0.6-1.2,0.7-2.7,0.2-4c-0.2-0.9-0.9-1.6-1.9-1.8c-1.1-0.3-2.2,0.1-2.9,1C5.2,9.3,4.9,10.3,4.9,11.4
			L4.9,11.4z"/>
		<path id="Path_408" d="M44.5,16.8c0.6-0.8,1.2-1.5,1.7-2.2c0.2-0.2,0.2-0.5,0.3-0.7c0-1.8,0-3.7,0-5.5c0-0.3-0.1-0.5-0.3-0.8
			c-0.5-0.7-1.1-1.4-1.7-2.2c0.1,0,0.2,0,0.3,0c1.3,0,2.7,0,4,0c0.3,0,0.5,0.1,0.8,0.2c0.3,0.2,0.7,0.3,1.1,0.1
			c1.5-0.5,3.1-0.7,4.7-0.6c2.6,0.1,4.7,2.1,4.9,4.6c0.2,2,0.2,4.1,0.2,6.1c0,0.7-0.4,1-1.1,1c-0.6,0-1.1,0-1.7,0
			c-0.6,0.1-1.1-0.3-1.2-0.9c0-0.1,0-0.2,0-0.3c0-1.4,0-2.9,0-4.3c0-0.8-0.2-1.5-0.5-2.2c-0.5-1.3-1.8-2.1-3.2-1.8
			c-1.3,0.2-2.2,1.2-2.3,2.5c-0.1,1-0.1,2.1-0.1,3.2c0,0.9,0,1.7,0,2.6c0,0.6-0.4,1.2-1,1.2c0,0,0,0-0.1,0
			C47.8,16.8,46.2,16.8,44.5,16.8z"/>
		<path id="Path_409" d="M24.2,17c-1.5,0.1-3-0.2-4.3-0.8c-1.7-0.8-2.9-2.5-3-4.4c-0.2-1.4,0.1-2.8,0.8-4c1.3-2,3.7-3,6-2.7
			c1.5,0.1,2.9,0.6,3.9,1.6c1.1,0.9,1.7,2.3,1.5,3.7c0,0.7-0.6,1.3-1.3,1.3c-0.1,0-0.1,0-0.2,0c-1.3,0-2.6,0-3.8,0
			c-0.4,0-0.9,0.1-1.3,0.1c-1.1,0.2-1.5,0.9-1.1,2c0.2,0.6,0.7,1,1.3,1.2c1.2,0.4,2.5,0.5,3.8,0.4c0.3,0,0.6,0,0.9,0
			c0.3,0,0.4,0.3,0.2,0.5c-0.3,0.3-0.6,0.5-1,0.6C25.7,16.8,24.7,17,24.2,17z M23.2,10.5c0.3,0,0.7-0.1,1-0.1
			c0.7-0.1,1.2-0.5,1.4-1.2c0.2-0.7-0.1-1.5-0.7-1.9c-1.1-0.7-2.6-0.6-3.5,0.4c-0.4,0.5-0.5,1.2-0.3,1.8c0.1,0.5,0.6,0.8,1.1,0.9
			C22.5,10.5,22.8,10.5,23.2,10.5L23.2,10.5z"/>
		<path id="Path_410" d="M69.6,17.1c-1.4,0-2.8-0.4-4.1-1c-1.6-0.9-2.7-2.5-2.8-4.4c-0.5-3.1,1.7-6,4.8-6.5c0,0,0,0,0,0
			c2.4-0.6,4.9,0.2,6.5,2.1c0.7,0.8,1.1,1.8,1.1,2.8c0.1,0.8-0.4,1.5-1.2,1.6c-0.1,0-0.3,0-0.4,0c-1.5,0-3,0-4.5,0
			c-0.2,0-0.3,0-0.5,0.1c-0.5,0.1-1.1,0.2-1.3,0.8c-0.2,0.6,0,1.3,0.4,1.8c0.5,0.5,1.1,0.8,1.8,0.9c1,0.1,2,0.1,3,0.2
			c0.3,0,0.6,0,0.9,0c0.4,0.1,0.5,0.3,0.2,0.6c-0.2,0.2-0.5,0.4-0.8,0.5C71.7,16.8,70.7,16.9,69.6,17.1z M69.1,10.5
			c0.3,0,0.6-0.1,0.9-0.1c0.7,0,1.3-0.5,1.5-1.2c0.2-0.8-0.2-1.6-0.8-1.9c-1.1-0.6-2.4-0.5-3.3,0.4c-0.4,0.5-0.6,1.2-0.3,1.8
			c0.1,0.5,0.5,0.8,1,0.9C68.4,10.5,68.8,10.5,69.1,10.5L69.1,10.5z"/>
		<path id="Path_411" d="M36.7,16.8c-0.1,0-0.2,0-0.3,0c-1.1,0.2-2.2-0.5-2.5-1.6c-1.1-2.8-2.1-5.5-3.2-8.3
			c-0.1-0.2-0.1-0.4-0.1-0.6c-0.1-0.4,0.1-0.8,0.5-0.9c0,0,0.1,0,0.1,0c0.6-0.1,1.2-0.1,1.8-0.1c0.4,0.1,0.8,0.4,0.9,0.8
			c0.3,0.8,0.5,1.6,0.8,2.4c0.3,0.9,0.7,1.7,1,2.6c0.1,0.2,0.2,0.4,0.3,0.6c0.5,0.8,0.9,0.8,1.3,0c0.6-1.5,1.2-3,1.7-4.5
			c0.5-1.6,0.8-2,2.9-1.8c0.7,0.1,1,0.5,0.8,1.2C42.4,7.8,42,9,41.5,10.2c-0.7,1.7-1.4,3.4-2.1,5.1c-0.1,0.2-0.2,0.5-0.4,0.7
			c-0.3,0.5-0.9,0.8-1.5,0.7C37.3,16.7,37,16.8,36.7,16.8z"/>
		<path id="Path_412" d="M81.6,2.6c0,0.5,0,1,0.1,1.5c0.1,0.7,0.6,1.2,1.2,1.5c0.3,0.1,0.5,0.2,0.8,0.4c0.4,0.2,0.6,0.6,0.4,1
			c-0.1,0.2-0.2,0.3-0.4,0.4c-0.2,0.1-0.4,0.3-0.7,0.3c-0.8,0.2-1.3,1-1.3,1.8c0,1.3,0,2.6,0,3.8c0,0.6,0.3,1.1,0.7,1.5
			c0.3,0.3,0.7,0.6,1.1,0.8c0.2,0.1,0.3,0.2,0.5,0.4c0.1,0.1,0.3,0.4,0.2,0.5c-0.1,0.2-0.3,0.3-0.5,0.3c-1.3,0.2-2.6-0.1-3.8-0.7
			c-1-0.6-1.6-1.7-1.5-2.8c0-1,0-2-0.1-3.1c0-0.4,0-0.8-0.1-1.2c0-0.4-0.3-0.8-0.7-1c-0.3-0.2-0.7-0.4-1-0.6c-0.8-0.5-0.7-1.2,0-1.7
			c0.1-0.1,0.2-0.1,0.3-0.2c0.7-0.3,1.2-1,1.2-1.8c0-0.9,0-1.7,0.1-2.6c0.1-0.9,0.3-1.1,1.2-1.1h1c0.7,0,0.9,0.2,1.1,0.9
			C81.7,1.5,81.7,2,81.6,2.6L81.6,2.6z"/>
	</g>
	<g id="Group_764" transform="translate(0)">
		<path id="Path_413" class="st0" d="M30.5,21.9c-0.3,6.5-5.8,11.6-12.4,11.3C11.5,33,6.5,27.4,6.8,20.9C7,14.3,12.6,9.3,19.1,9.5
			c2.1,0.1,4.2,0.8,6,1.9L29,6C20.5,0.2,9,2.5,3.2,11S-0.3,31,8.2,36.8c8.5,5.8,20.1,3.6,25.8-4.9c2-2.9,3.1-6.4,3.2-9.9H30.5z"/>
		<path id="Rectangle_28" class="st0" d="M31.2,0h5.6c0.2,0,0.4,0.2,0.4,0.4V6c0,0.2-0.2,0.4-0.4,0.4h-5.6c-0.2,0-0.4-0.2-0.4-0.4
			V0.4C30.8,0.2,31,0,31.2,0z"/>
		<path id="Rectangle_29" class="st0" d="M39.7,2.9h4.7c0.2,0,0.3,0.1,0.3,0.3V8c0,0.2-0.1,0.3-0.3,0.3h-4.7c-0.2,0-0.3-0.1-0.3-0.3
			V3.2C39.4,3.1,39.6,2.9,39.7,2.9z"/>
		<path id="Rectangle_30" class="st0" d="M29.8,8.4h8.9c0.3,0,0.6,0.2,0.6,0.6v8.9c0,0.3-0.2,0.6-0.6,0.6h-8.9
			c-0.3,0-0.6-0.2-0.6-0.6V9C29.2,8.7,29.5,8.4,29.8,8.4z"/>
		<path id="Path_414" class="st0" d="M26.1,21.4c0,4.1-3.3,7.5-7.5,7.5s-7.5-3.3-7.5-7.5c0-4.1,3.3-7.5,7.5-7.5
			C22.7,13.9,26.1,17.3,26.1,21.4C26.1,21.4,26.1,21.4,26.1,21.4z"/>
	</g>
</g>
</svg>
