<?xml version="1.0" encoding="utf-8"?>
<!-- Generator: Adobe Illustrator 24.3.0, SVG Export Plug-In . SVG Version: 6.00 Build 0)  -->
<svg version="1.1" id="Layer_1" xmlns="http://www.w3.org/2000/svg" xmlns:xlink="http://www.w3.org/1999/xlink" x="0px" y="0px"
	 viewBox="0 0 213 60" style="enable-background:new 0 0 213 60;" xml:space="preserve">
<style type="text/css">
	.st0{fill:#007BFF;}
</style>
<g>
	<g id="Group_47_2_" transform="translate(51.417 5.131)">
		<path id="Path_396_2_" class="st0" d="M9.4,8.2h4.1v25.7c0.1,2.1-0.6,4.2-1.9,5.9c-2.4,2.7-6.6,3-9.3,0.6
			c-0.2-0.2-0.4-0.4-0.6-0.6c-1.3-1.7-2-3.8-1.9-5.9v-2.1H4v2.1c0,0.4,0,0.7,0.1,1.1c0.1,0.5,0.2,0.9,0.4,1.3
			c0.2,0.4,0.5,0.8,0.8,1.1c0.4,0.3,1,0.5,1.5,0.4c0.5,0,1-0.1,1.4-0.4c0.3-0.3,0.6-0.7,0.8-1.1c0.2-0.4,0.3-0.9,0.4-1.3
			c0-0.4,0.1-0.7,0.1-1.1L9.4,8.2z"/>
		<path id="Path_397_2_" class="st0" d="M23,8.2c1.9-0.1,3.8,0.7,5,2.2c1.3,1.7,2,3.8,1.9,5.9v17.6c0.1,2.1-0.6,4.2-1.9,5.9
			c-2.4,2.7-6.6,3-9.3,0.6c-0.2-0.2-0.4-0.4-0.6-0.6c-1.3-1.7-2-3.8-1.9-5.9V16.3c-0.1-2.1,0.6-4.2,1.9-5.9C19.3,9,21.1,8.2,23,8.2z
			 M25.7,16.3c0-0.4,0-0.7-0.1-1.1c-0.1-0.5-0.2-0.9-0.4-1.3c-0.2-0.4-0.5-0.8-0.8-1.1c-0.9-0.6-2.1-0.6-2.9,0
			c-0.4,0.3-0.6,0.7-0.8,1.1c-0.2,0.4-0.3,0.9-0.3,1.3c0,0.4-0.1,0.7-0.1,1.1v17.6c0,0.4,0,0.7,0.1,1.1c0.1,0.5,0.2,0.9,0.3,1.3
			c0.2,0.4,0.5,0.8,0.8,1.1c0.9,0.6,2.1,0.6,2.9,0c0.3-0.3,0.6-0.7,0.8-1.1c0.2-0.4,0.3-0.9,0.4-1.3c0-0.4,0.1-0.7,0.1-1.1V16.3z"/>
		<path id="Path_398_2_" class="st0" d="M39.2,8.2c1.9-0.1,3.8,0.7,5,2.2c1.3,1.7,2,3.8,1.9,5.9v17.6c0.1,2.1-0.6,4.2-1.9,5.9
			c-2.4,2.7-6.6,3-9.3,0.6c-0.2-0.2-0.4-0.4-0.6-0.6c-1.3-1.7-2-3.8-1.9-5.9V16.3c-0.1-2.1,0.6-4.2,1.9-5.9
			C35.5,9,37.3,8.2,39.2,8.2z M42,16.3c0-0.4,0-0.7-0.1-1.1c-0.1-0.5-0.2-0.9-0.4-1.3c-0.2-0.4-0.5-0.8-0.8-1.1
			c-0.4-0.3-0.9-0.5-1.5-0.5c-0.5,0-1,0.1-1.5,0.5c-0.4,0.3-0.6,0.7-0.8,1.1c-0.2,0.4-0.3,0.9-0.3,1.3c0,0.4-0.1,0.7-0.1,1.1v17.6
			c0,0.4,0,0.7,0.1,1.1c0.1,0.5,0.2,0.9,0.3,1.3c0.2,0.4,0.5,0.8,0.8,1.1c0.4,0.3,0.9,0.5,1.5,0.4c0.5,0,1.1-0.1,1.5-0.4
			c0.4-0.3,0.6-0.7,0.8-1.1c0.2-0.4,0.3-0.9,0.4-1.3c0-0.4,0.1-0.7,0.1-1.1V16.3z"/>
		<path id="Path_399_2_" class="st0" d="M62.5,8.2h4.1V42h-4.1V21.8L62,25.3L58.7,42h-2l-3.5-16.8l-0.4-3.5V42h-4.1V8.2h4.1
			l4.4,19.5l0.5,5.2l0.5-5.2L62.5,8.2z"/>
		<path id="Path_400_2_" class="st0" d="M76,8.2c1.9-0.1,3.7,0.8,4.9,2.2c1.3,1.7,2,3.8,1.9,5.9v2.1h-4.1v-2.1c0-0.4,0-0.7-0.1-1.1
			c-0.1-0.5-0.2-0.9-0.4-1.3c-0.2-0.4-0.5-0.8-0.8-1.1c-0.9-0.6-2.1-0.6-2.9,0c-0.4,0.3-0.6,0.7-0.8,1.1c-0.2,0.4-0.3,0.9-0.3,1.3
			c0,0.4-0.1,0.7-0.1,1.1c0,1,0.1,1.9,0.3,2.9c0.1,0.6,0.4,1.3,0.7,1.8c0.3,0.5,0.7,0.9,1.2,1.2c0.5,0.4,1,0.7,1.5,1
			c0.6,0.4,1.3,0.8,2,1.3c0.7,0.5,1.4,1.2,1.9,1.9c0.6,0.9,1.1,1.9,1.4,3c0.4,1.5,0.6,3,0.6,4.5c0.1,2.1-0.6,4.2-1.9,5.9
			c-2.4,2.7-6.6,3-9.3,0.6c-0.2-0.2-0.4-0.4-0.6-0.6c-1.3-1.7-2-3.8-1.9-5.9v-2.1h4.1v2.1c0,0.4,0,0.7,0.1,1.1
			c0.1,0.5,0.2,0.9,0.3,1.3c0.2,0.4,0.5,0.8,0.8,1.1c0.9,0.6,2.1,0.6,2.9,0c0.3-0.3,0.6-0.7,0.8-1.1c0.2-0.4,0.3-0.9,0.4-1.3
			c0-0.4,0.1-0.7,0.1-1.1c0-1-0.1-2-0.3-3c-0.2-0.7-0.4-1.3-0.8-1.9c-0.3-0.5-0.7-0.9-1.2-1.3c-0.5-0.4-1-0.7-1.5-1
			c-0.6-0.4-1.3-0.8-2-1.3c-0.7-0.5-1.3-1.2-1.9-1.9c-0.6-0.9-1.1-1.9-1.4-2.9c-0.4-1.4-0.6-2.9-0.5-4.4c-0.1-2.1,0.6-4.2,1.9-5.9
			C72.3,8.9,74.1,8.1,76,8.2z"/>
		<path id="Path_401_2_" class="st0" d="M94.2,8.2h4.1V42h-4.1V27.3h-4.6V42h-4.1V8.2h4.1v15h4.6V8.2z"/>
		<path id="Path_402_2_" class="st0" d="M111.4,8.2l5,33.8h-4.2l-1.2-8.4h-4.8l-1.2,8.4H101l5-33.8H111.4z M110.5,29.5l-1.3-9
			l-0.6-7.6l-0.6,7.6l-1.2,9H110.5z"/>
		<path id="Path_403_2_" class="st0" d="M125.1,8.2c0.9,0,1.7,0.1,2.6,0.4c0.9,0.3,1.7,0.8,2.4,1.5c0.8,0.9,1.4,1.9,1.7,3.1
			c0.9,3.4,0.9,6.9,0,10.3c-0.4,1.2-1,2.2-1.7,3.1c-0.6,0.7-1.4,1.2-2.4,1.5c-0.8,0.3-1.7,0.4-2.6,0.4h-2V42h-4.1V8.2H125.1z
			 M125.1,24.6c0.3,0,0.7,0,1-0.1c0.4-0.1,0.8-0.3,1.1-0.7c0.4-0.5,0.7-1.1,0.8-1.8c0.3-1.2,0.4-2.4,0.3-3.6c0-1.2-0.1-2.4-0.3-3.5
			c-0.1-0.7-0.4-1.3-0.8-1.8c-0.3-0.3-0.6-0.6-1.1-0.7c-0.3-0.1-0.7-0.1-1-0.1h-2v12.2L125.1,24.6z"/>
		<path id="Path_404_2_" class="st0" d="M146.5,8.2v4.1h-7.3v10.9h5.2v4.1h-5.2v10.6h7.3V42h-11.4V8.2H146.5z"/>
		<path id="Path_405_2_" class="st0" d="M156.2,25.2c0.8,0.4,1.4,1.1,1.9,1.9c0.5,0.8,0.8,1.8,1,2.7c0.2,1,0.4,2.1,0.4,3.1
			c0.1,1.1,0.2,2.2,0.3,3.2c0.1,1.1,0.3,2.1,0.6,3.1c0.2,1,0.6,1.9,1.2,2.7h-4.2c-0.4-0.5-0.7-1-0.8-1.7c-0.2-0.9-0.4-1.8-0.5-2.7
			c-0.1-1-0.3-2.1-0.4-3.1c-0.1-1.1-0.2-2.1-0.3-3.1s-0.2-1.8-0.4-2.6c-0.1-0.5-0.2-1-0.5-1.5c-0.3-0.3-0.7-0.6-1.2-0.8
			c-0.4-0.1-0.7-0.2-1.1-0.2V42H148V8.2h5.4c0.9,0,1.7,0.1,2.6,0.4c0.9,0.3,1.7,0.8,2.4,1.5c0.8,0.9,1.4,1.9,1.7,3
			c0.5,1.6,0.7,3.3,0.7,5c0,1.1-0.1,2.1-0.4,3.1c-0.2,0.8-0.6,1.5-1,2.1c-0.4,0.5-0.9,1-1.5,1.3C157.4,24.9,156.8,25.1,156.2,25.2z
			 M152.2,23.6h1.3c0.3,0,0.7-0.1,1-0.2c0.4-0.1,0.8-0.4,1-0.7c0.4-0.5,0.7-1.1,0.8-1.7c0.3-1,0.4-2,0.3-3c0-1.1-0.1-2.2-0.3-3.3
			c-0.2-0.6-0.4-1.2-0.8-1.7c-0.3-0.3-0.6-0.6-1-0.6c-0.3-0.1-0.7-0.1-1-0.1h-1.3V23.6z"/>
	</g>
	<path id="Path_406_2_" class="st0" d="M40.4,8.2H3.3C1.5,8.2,0,9.6,0,11.4c0,0,0,0,0,0v37.1c0,1.8,1.5,3.3,3.3,3.3c0,0,0,0,0,0
		h37.1c1.8,0,3.3-1.5,3.3-3.3l0,0V11.4C43.7,9.6,42.2,8.2,40.4,8.2C40.4,8.2,40.4,8.2,40.4,8.2z M39.3,23.7c-7.9-1-11.8,3.4-14,6.4
		c-2.8,3.8-3.7,7.8-10,11.3c-2.8,1.6-6.4,2.2-12,2l1.2-7.2c7.2,0.5,9.6-2.1,11.8-5.1c2.8-3.8,4.7-8.2,11-11.7c4-2,8.5-3,13-2.7
		L39.3,23.7z"/>
</g>
</svg>
