<?xml version="1.0" encoding="utf-8"?>
<!-- Generator: Adobe Illustrator 24.3.0, SVG Export Plug-In . SVG Version: 6.00 Build 0)  -->
<svg version="1.1" id="Layer_1" xmlns="http://www.w3.org/2000/svg" xmlns:xlink="http://www.w3.org/1999/xlink" x="0px" y="0px"
	 viewBox="0 0 158 40" style="enable-background:new 0 0 158 40;" xml:space="preserve">
<style type="text/css">
	.st0{fill:#3E5287;}
</style>
<g id="Group_41" transform="translate(0 5.531)">
	<path id="Path_499" class="st0" d="M8.8,18.8c0,0.1,0,0.2,0,0.2c0,0.2,0.1,0.3,0.1,0.5c0,0.4-0.1,0.7-0.3,1
		c-0.2,0.3-0.4,0.6-0.7,0.8C7.3,21.8,6.5,22,5.7,22c-0.7,0-1.4-0.2-2.1-0.5C3,21.1,2.3,20.6,1.8,20c-0.6-0.7-1-1.5-1.3-2.4
		C0.2,16.6,0,15.5,0,14.3l0-9.2c-0.1-1,0.3-2,1-2.7C1.9,1.8,3,1.5,4,1.6C4,1.7,4,1.9,4,2.2c0,0.2,0,0.5,0,0.9c0,0.4,0,0.9,0,1.5l0,2
		h4.3c0,0.8-0.2,1.7-0.8,2.3C6.8,9.6,6,9.9,5.1,9.8H3.9l0,4.5c0,0.8,0.1,1.5,0.2,2.2c0.1,0.5,0.3,1,0.6,1.5c0.5,0.7,1.4,1.1,2.2,1.1
		c0.4,0,0.8-0.1,1.1-0.2C8.4,18.9,8.6,18.9,8.8,18.8z"/>
	<path id="Path_500" class="st0" d="M22,18.5c0.3,0.2,0.6,0.5,0.7,0.8l0.1,0.1l-0.1,0.1c-1.4,1.6-3.5,2.5-5.6,2.5
		c-0.9,0-1.9-0.2-2.8-0.6c-0.9-0.4-1.6-1-2.3-1.6c-0.6-0.7-1.2-1.5-1.5-2.4c-0.4-0.9-0.6-2-0.6-3c0-1,0.2-2,0.5-3
		c0.3-0.9,0.8-1.7,1.4-2.4c0.6-0.7,1.4-1.2,2.2-1.6c0.9-0.4,1.9-0.6,2.9-0.6c0.7,0,1.3,0.1,2,0.3c0.7,0.2,1.4,0.5,2,0.9
		c0.6,0.4,1.1,0.9,1.5,1.5c0.4,0.7,0.6,1.5,0.6,2.3c0,0.8-0.2,1.5-0.7,2.1c-0.4,0.5-1,1-1.6,1.3c-0.6,0.3-1.3,0.5-2,0.6
		c-0.6,0.1-1.2,0.2-1.8,0.2c-0.7,0-1.4,0-2.1-0.1c-0.6-0.1-1-0.2-1.2-0.2c0.1,0.6,0.2,1.3,0.5,1.9c0.2,0.4,0.5,0.8,0.9,1.1
		c0.3,0.3,0.6,0.4,1,0.6c0.3,0.1,0.6,0.1,0.9,0.1c0.4,0,0.9,0,1.3-0.1c0.4-0.1,0.7-0.2,1.1-0.3c0.3-0.1,0.6-0.2,0.9-0.3
		c0.3-0.1,0.6-0.2,0.8-0.2C21.4,18.3,21.7,18.4,22,18.5z M17.1,9.4c-0.3,0-0.6,0.1-0.8,0.2c-0.3,0.1-0.7,0.3-0.9,0.5
		c-0.3,0.3-0.6,0.7-0.8,1.1c-0.3,0.6-0.5,1.2-0.5,1.8c0.5,0.1,1,0.2,1.4,0.3c0.6,0.1,1.3,0.1,1.9,0c0.6,0,1.2-0.2,1.7-0.5
		c0.5-0.3,0.8-0.9,0.8-1.5c0-0.5-0.2-1.1-0.6-1.4C18.5,9.5,17.8,9.3,17.1,9.4L17.1,9.4z"/>
	<path id="Path_501" class="st0" d="M32.5,9.4c-0.3,0-0.7,0.1-1,0.2c-0.4,0.2-0.8,0.4-1.1,0.7c-0.4,0.4-0.7,0.9-0.9,1.5
		c-0.5,1.6-0.5,3.4,0,5c0.2,0.6,0.5,1.1,0.9,1.5c0.3,0.3,0.7,0.6,1.1,0.7c0.3,0.1,0.6,0.2,1,0.2c0.4,0,0.9,0,1.3-0.1
		c0.4-0.1,0.7-0.2,1.1-0.3c0.3-0.1,0.6-0.2,0.9-0.3c0.3-0.1,0.6-0.1,0.8-0.1c0.3,0,0.6,0.1,0.8,0.2c0.3,0.2,0.5,0.4,0.7,0.7l0.1,0.1
		l-0.1,0.1c-0.7,0.8-1.6,1.4-2.5,1.8c-1,0.4-2,0.7-3.1,0.6c-1,0-1.9-0.2-2.8-0.6c-1.7-0.8-3.1-2.2-3.8-4c-0.4-0.9-0.6-2-0.6-3
		c0-1,0.2-2,0.5-3c0.3-0.9,0.8-1.7,1.4-2.4c1.3-1.5,3.2-2.3,5.2-2.2c2.1,0,4.2,0.9,5.6,2.4l0.1,0.1l-0.1,0.1
		c-0.2,0.3-0.4,0.6-0.7,0.7c-0.2,0.2-0.5,0.2-0.8,0.2c-0.3,0-0.6,0-0.8-0.1l-0.9-0.3c-0.4-0.1-0.7-0.2-1.1-0.3
		C33.4,9.4,32.9,9.4,32.5,9.4z"/>
	<path id="Path_502" class="st0" d="M53.9,18.5c0,0.6,0,1.2,0,1.6c0,0.4,0,0.7,0,1c0,0.3,0,0.4,0.1,0.6c-1.1,0.1-2.1-0.2-3-0.8
		c-0.8-0.7-1.1-1.7-1-2.7l0-4.5c0-0.7-0.1-1.5-0.3-2.1c-0.1-0.5-0.4-0.9-0.7-1.3c-0.3-0.3-0.6-0.5-1-0.6c-0.7-0.2-1.4-0.2-2.1,0
		c-0.4,0.1-0.7,0.3-1,0.6c-0.3,0.4-0.6,0.8-0.7,1.3c-0.2,0.7-0.3,1.4-0.3,2.1v4.9c0,0.6,0,1.2,0,1.6c0,0.4,0,0.7,0,1
		c0,0.3,0,0.4,0.1,0.6c-1.1,0.1-2.1-0.2-3-0.8c-0.7-0.7-1.1-1.7-1-2.7l0-15.1c-0.1-1,0.3-2,1-2.7c0.9-0.6,1.9-0.9,3-0.8
		c0,0.1,0,0.3-0.1,0.6c0,0.2,0,0.6,0,1s0,0.9,0,1.6v4.6c0.5-0.2,1-0.3,1.5-0.4c0.5-0.1,1-0.1,1.5-0.1c0.8,0,1.7,0.1,2.5,0.3
		c0.8,0.2,1.6,0.5,2.2,1c0.7,0.6,1.3,1.3,1.6,2.1c0.5,1.1,0.7,2.3,0.6,3.5L53.9,18.5z"/>
	<path id="Path_503" class="st0" d="M76.4,13.6c0-0.7-0.1-1.5-0.3-2.1c-0.1-0.5-0.4-0.9-0.7-1.3c-0.3-0.3-0.6-0.5-1-0.6
		c-0.4-0.1-0.7-0.2-1.1-0.2c-0.4,0-0.7,0.1-1.1,0.2c-0.4,0.1-0.7,0.3-1,0.6c-0.3,0.4-0.6,0.8-0.7,1.3c-0.2,0.7-0.3,1.4-0.3,2.1v4.9
		c0,0.6,0,1.2,0,1.6c0,0.4,0,0.7,0.1,1c0,0.3,0,0.4,0.1,0.6c-1.1,0.1-2.1-0.2-3-0.8c-0.8-0.7-1.1-1.7-1-2.7l0-4.5
		c0-0.7-0.1-1.5-0.3-2.1c-0.1-0.5-0.4-0.9-0.7-1.3c-0.3-0.3-0.6-0.5-1-0.6c-0.4-0.1-0.7-0.2-1.1-0.2c-0.4,0-0.7,0.1-1.1,0.2
		c-0.4,0.1-0.7,0.3-1,0.6c-0.3,0.4-0.6,0.8-0.7,1.3c-0.2,0.7-0.3,1.4-0.3,2.1v4.9c0,0.6,0,1.2,0,1.6c0,0.4,0,0.7,0,1
		c0,0.3,0,0.4,0.1,0.6c-1.1,0.1-2.1-0.2-3-0.8c-0.8-0.7-1.1-1.7-1-2.7l0-4.5c0-1.2,0.2-2.4,0.6-3.5C57.9,8.5,59.3,7.3,61,7
		c1.7-0.4,3.4-0.4,5.1,0c0.9,0.2,1.7,0.6,2.3,1.2c0.7-0.6,1.5-1,2.3-1.2c0.9-0.2,1.8-0.3,2.6-0.3c0.8,0,1.6,0.1,2.4,0.3
		c0.8,0.2,1.6,0.5,2.2,1c0.7,0.6,1.3,1.3,1.6,2.1c0.5,1.1,0.7,2.3,0.6,3.5v4.9c0,0.6,0,1.2,0,1.6c0,0.4,0,0.7,0,1
		c0,0.3,0,0.4,0.1,0.6c-1.1,0.1-2.1-0.2-3-0.8c-0.7-0.7-1.1-1.7-1-2.7L76.4,13.6z"/>
	<path id="Path_504" class="st0" d="M84.7,13.5c0.6-0.4,1.3-0.6,1.9-0.8c0.7-0.2,1.5-0.3,2.3-0.3c1.1,0,2.1,0.2,3.1,0.5
		c0-0.6-0.2-1.2-0.4-1.7c-0.2-0.6-0.7-1.1-1.2-1.4c-0.2-0.1-0.4-0.2-0.7-0.2c-0.3-0.1-0.6-0.1-0.8-0.1h-0.3c-0.3,0-0.6,0.1-0.9,0.1
		c-0.3,0.1-0.6,0.2-0.9,0.3c-0.3,0.1-0.6,0.2-0.9,0.3c-0.3,0.1-0.6,0.1-0.9,0.1c-0.3,0-0.6-0.1-0.9-0.2c-0.3-0.2-0.5-0.4-0.7-0.7
		l-0.1-0.1L83.5,9c1.3-1.4,3.1-2.3,5.1-2.4c0.1,0,0.2,0,0.3,0h0.3c0.9,0,1.8,0.2,2.7,0.5c0.8,0.3,1.5,0.8,2.1,1.4
		c1.3,1.4,1.9,3.3,1.9,5.2v0.3c0.1,1.9-0.5,3.8-1.7,5.4c-0.5,0.7-1.2,1.2-2,1.7c-0.8,0.4-1.7,0.7-2.6,0.8c-0.1,0-0.3,0-0.4,0h-0.4
		c-0.5,0-0.9,0-1.4-0.1c-1-0.2-1.9-0.6-2.8-1.2c-0.4-0.3-0.8-0.7-1-1.2c-0.4-0.7-0.6-1.5-0.6-2.3V17c0-0.7,0.2-1.4,0.5-2.1
		C83.7,14.3,84.1,13.8,84.7,13.5z M91.3,15c-0.3,0-0.6-0.1-0.9-0.1c-0.4,0-0.7-0.1-1.1-0.1c-0.3,0-0.6,0-0.9,0
		c-0.3,0-0.5,0.1-0.8,0.2c-0.5,0.1-0.9,0.4-1.2,0.8c-0.1,0.1-0.2,0.3-0.3,0.4c-0.1,0.2-0.1,0.3-0.1,0.5c0,0.1,0,0.2,0,0.3
		c0,0.2,0,0.5,0.1,0.7c0.1,0.3,0.2,0.5,0.4,0.7c0.2,0.2,0.5,0.4,0.7,0.5c0.4,0.2,0.9,0.2,1.3,0.2c0.1,0,0.3,0,0.4,0
		c0.6,0,1.1-0.2,1.6-0.5c0.2-0.1,0.4-0.3,0.5-0.5c0.1-0.2,0.3-0.4,0.4-0.6c0.2-0.4,0.4-0.8,0.5-1.2c0.1-0.4,0.1-0.8,0.1-1.2
		c0,0,0,0,0,0c0,0,0,0,0,0c-0.1,0-0.2,0-0.3-0.1C91.6,15.1,91.4,15.1,91.3,15L91.3,15z"/>
	<path id="Path_505" class="st0" d="M105.1,17.9c0.1-0.3-0.1-0.7-0.3-0.9c-0.3-0.3-0.7-0.5-1-0.7c-0.5-0.2-1-0.5-1.6-0.7
		c-0.7-0.3-1.3-0.6-1.9-1c-0.5-0.3-0.9-0.6-1.3-1.1c-0.3-0.4-0.6-0.9-0.7-1.3c-0.1-0.5-0.2-1-0.2-1.5c0-0.5,0.1-1,0.3-1.5
		c0.2-0.4,0.5-0.8,0.8-1.2c0.3-0.3,0.7-0.6,1.1-0.8c0.4-0.2,0.8-0.3,1.3-0.4c0.4-0.1,0.8-0.1,1.2-0.1h0.4c1.1,0,2.1,0.3,3.1,0.8
		c0.9,0.5,1.7,1.1,2.4,1.9l0.1,0.1l-0.1,0.1c-0.2,0.3-0.4,0.5-0.7,0.7c-0.2,0.2-0.5,0.2-0.8,0.2c-0.3,0-0.6-0.1-0.9-0.2
		c-0.3-0.1-0.6-0.2-0.9-0.4c-0.4-0.2-0.8-0.3-1.1-0.4c-0.3-0.1-0.7-0.2-1.1-0.2c-0.4,0-0.7,0.1-1,0.3c-0.2,0.2-0.4,0.4-0.4,0.7
		c-0.1,0.4,0.1,0.8,0.4,1c0.4,0.3,0.8,0.6,1.3,0.7c0.7,0.3,1.4,0.6,2.1,0.9c0.7,0.3,1.4,0.7,2,1.2c0.6,0.5,1,1.1,1.3,1.7
		c0.3,0.8,0.3,1.6,0.1,2.4c-0.1,0.4-0.3,0.8-0.5,1.2c-0.3,0.4-0.6,0.8-1.1,1.1c-0.5,0.4-1.1,0.7-1.7,0.8c-0.7,0.2-1.5,0.4-2.3,0.3
		c-0.1,0-0.3,0-0.4,0c-1-0.1-2.1-0.3-3-0.8c-1-0.5-1.8-1.1-2.5-1.9l-0.1-0.1l0.1-0.1c0.1-0.2,0.2-0.3,0.4-0.4l0.4-0.3
		c0.2-0.1,0.5-0.2,0.8-0.2c0.3,0,0.6,0.1,0.9,0.2c0.3,0.1,0.6,0.2,0.9,0.4c0.3,0.2,0.7,0.3,1,0.4c0.4,0.1,0.8,0.2,1.2,0.2
		c0.6,0.1,1.2-0.1,1.6-0.4C104.9,18.5,105.1,18.2,105.1,17.9z"/>
	<path id="Path_506" class="st0" d="M120.1,18.8c0,0.1,0,0.2,0,0.2c0.1,0.5,0.1,1-0.2,1.5c-0.2,0.3-0.4,0.6-0.7,0.8
		c-0.6,0.4-1.4,0.7-2.2,0.6c-0.7,0-1.4-0.2-2.1-0.5c-0.7-0.3-1.3-0.8-1.8-1.4c-0.6-0.7-1-1.5-1.3-2.4c-0.4-1.1-0.5-2.2-0.5-3.3
		l0-9.2c-0.1-1,0.3-2,1-2.7c0.9-0.6,1.9-0.9,3-0.8c0,0.1,0,0.4-0.1,0.6c0,0.2,0,0.5,0,0.9s0,0.9,0,1.5l0,2h4.3
		c0,0.8-0.2,1.7-0.8,2.3c-0.6,0.6-1.4,0.9-2.3,0.9h-1.2l0,4.5c0,0.8,0.1,1.5,0.2,2.2c0.1,0.5,0.3,1,0.7,1.5c0.5,0.7,1.4,1.1,2.2,1.1
		c0.4,0,0.8-0.1,1.1-0.2C119.7,18.9,119.9,18.9,120.1,18.8z"/>
	<path id="Path_507" class="st0" d="M133.3,18.5c0.3,0.2,0.5,0.5,0.7,0.8l0.1,0.1l-0.1,0.1c-1.4,1.6-3.5,2.5-5.6,2.5
		c-0.9,0-1.9-0.2-2.8-0.6c-0.9-0.4-1.6-1-2.3-1.6c-0.6-0.7-1.2-1.5-1.5-2.4c-0.4-0.9-0.6-2-0.6-3c0-1,0.2-2,0.5-3
		c0.3-0.9,0.8-1.7,1.4-2.4c0.6-0.7,1.4-1.2,2.2-1.6c0.9-0.4,1.9-0.6,2.9-0.6c0.7,0,1.3,0.1,2,0.3c0.7,0.2,1.4,0.5,2,0.9
		c0.6,0.4,1.1,0.9,1.5,1.5c0.4,0.7,0.6,1.5,0.6,2.3c0,0.8-0.2,1.5-0.7,2.1c-0.4,0.5-1,1-1.6,1.3c-0.6,0.3-1.3,0.5-2,0.6
		c-0.6,0.1-1.2,0.2-1.8,0.2c-0.7,0-1.4,0-2.1-0.1c-0.6-0.1-1-0.2-1.2-0.2c0.1,0.6,0.2,1.3,0.5,1.9c0.2,0.4,0.5,0.8,0.9,1.1
		c0.3,0.3,0.6,0.4,1,0.6c0.3,0.1,0.6,0.1,0.9,0.1c0.4,0,0.9,0,1.3-0.1c0.4-0.1,0.7-0.2,1.1-0.3c0.3-0.1,0.6-0.2,0.9-0.3
		c0.3-0.1,0.6-0.2,0.8-0.2C132.8,18.3,133,18.4,133.3,18.5z M128.4,9.4c-0.3,0-0.6,0.1-0.8,0.2c-0.3,0.1-0.7,0.3-0.9,0.5
		c-0.3,0.3-0.6,0.7-0.8,1.1c-0.3,0.6-0.5,1.2-0.5,1.8c0.5,0.1,1,0.2,1.4,0.3c0.6,0.1,1.3,0.1,1.9,0c0.6,0,1.2-0.2,1.7-0.5
		c0.5-0.3,0.8-0.9,0.8-1.5c0-0.5-0.2-1.1-0.6-1.4C129.8,9.5,129.1,9.3,128.4,9.4L128.4,9.4z"/>
	<path id="Path_508" class="st0" d="M136.9,13.9c0-1.2,0.2-2.4,0.6-3.5c0.7-1.6,2.1-2.8,3.8-3.2c0.8-0.2,1.6-0.3,2.4-0.3h1.6
		c0.1,0.4,0.1,0.8,0.1,1.2c-0.1,0.3-0.2,0.7-0.4,0.9c-0.3,0.3-0.7,0.5-1.2,0.5c-0.4,0-0.7,0.1-1.1,0.2c-0.4,0.1-0.7,0.3-0.9,0.6
		c-0.3,0.4-0.5,0.8-0.7,1.2c-0.2,0.7-0.3,1.4-0.3,2.1v4.6c0,0.6,0,1.1,0,1.5c0,0.4,0,0.7,0,0.9c0,0.3,0,0.4,0.1,0.6
		c-1.1,0.1-2.1-0.2-3-0.8c-0.8-0.7-1.2-1.7-1-2.7L136.9,13.9z"/>
	<path id="Path_509" class="st0" d="M154.1,17.9c0.1-0.3-0.1-0.7-0.3-0.9c-0.3-0.3-0.7-0.5-1-0.7c-0.5-0.2-1-0.5-1.6-0.7
		c-0.7-0.3-1.3-0.6-1.9-1c-0.5-0.3-0.9-0.6-1.3-1.1c-0.3-0.4-0.6-0.9-0.7-1.3c-0.1-0.5-0.2-1-0.2-1.5c0-0.5,0.1-1,0.4-1.5
		c0.2-0.4,0.5-0.8,0.8-1.2c0.3-0.3,0.7-0.6,1.1-0.8c0.4-0.2,0.8-0.3,1.3-0.4c0.4-0.1,0.8-0.1,1.2-0.1h0.4c1.1,0,2.1,0.3,3.1,0.8
		c0.9,0.5,1.7,1.1,2.4,1.9l0.1,0.1l-0.1,0.1c-0.2,0.3-0.4,0.5-0.7,0.7c-0.2,0.2-0.5,0.2-0.8,0.2c-0.3,0-0.6-0.1-0.9-0.2
		c-0.3-0.1-0.6-0.2-0.9-0.4c-0.4-0.2-0.8-0.3-1.1-0.4c-0.3-0.1-0.7-0.2-1.1-0.2c-0.4,0-0.7,0.1-1,0.3c-0.2,0.2-0.4,0.4-0.4,0.7
		c-0.1,0.4,0.1,0.8,0.4,1c0.4,0.3,0.8,0.6,1.3,0.7c0.7,0.3,1.4,0.6,2.1,0.9c0.7,0.3,1.4,0.7,2,1.2c0.6,0.5,1,1.1,1.3,1.7
		c0.3,0.8,0.3,1.6,0.1,2.4c-0.1,0.4-0.3,0.8-0.5,1.2c-0.3,0.4-0.6,0.8-1.1,1.1c-0.5,0.4-1.1,0.7-1.7,0.8c-0.7,0.2-1.5,0.3-2.3,0.3
		c-0.1,0-0.3,0-0.4,0c-1-0.1-2.1-0.3-3-0.8c-1-0.5-1.8-1.1-2.5-1.9l-0.1-0.1l0.1-0.1c0.1-0.2,0.2-0.3,0.4-0.4
		c0.1-0.1,0.2-0.2,0.4-0.3c0.2-0.1,0.5-0.2,0.8-0.2c0.3,0,0.6,0.1,0.9,0.2c0.3,0.1,0.6,0.2,0.9,0.4c0.3,0.2,0.7,0.3,1,0.4
		c0.4,0.1,0.8,0.2,1.2,0.2c0.6,0.1,1.2-0.1,1.6-0.4C153.8,18.5,154,18.2,154.1,17.9z"/>
</g>
</svg>
