<?xml version="1.0" encoding="utf-8"?>
<!-- Generator: Adobe Illustrator 24.3.0, SVG Export Plug-In . SVG Version: 6.00 Build 0)  -->
<svg version="1.1" id="Layer_1" xmlns="http://www.w3.org/2000/svg" xmlns:xlink="http://www.w3.org/1999/xlink" x="0px" y="0px"
	 viewBox="0 0 163 40" style="enable-background:new 0 0 163 40;" xml:space="preserve">
<style type="text/css">
	.st0{fill:#952828;fill-opacity:0;}
	.st1{fill:#63B040;}
	.st2{fill:#539537;}
	.st3{fill:#D58F16;}
	.st4{fill:#FFA700;}
	.st5{fill:#E4291E;}
	.st6{fill:#BF241A;}
	.st7{fill:#208DBB;}
	.st8{fill:#27A2D8;}
	.st9{fill:#040505;}
</style>
<rect id="Rectangle_1815" x="0" y="0" class="st0" width="163" height="40"/>
<g id="Group_757" transform="translate(836 1662.568)">
	<g id="Layer_1_1_" transform="translate(16.739 9.432)">
		<g id="Group_757-2">
			<rect id="Rectangle_1776" x="-827.8" y="-1665.8" class="st1" width="1.2" height="1.2"/>
			<rect id="Rectangle_1777" x="-826.2" y="-1665.8" class="st1" width="1.2" height="1.2"/>
			<rect id="Rectangle_1778" x="-824.7" y="-1665.8" class="st1" width="1.2" height="1.2"/>
			<rect id="Rectangle_1779" x="-824.7" y="-1667.3" class="st1" width="1.2" height="1.2"/>
			<rect id="Rectangle_1780" x="-823.1" y="-1667.3" class="st1" width="1.2" height="1.2"/>
			<rect id="Rectangle_1781" x="-823.2" y="-1668.9" class="st1" width="1.2" height="1.2"/>
			<rect id="Rectangle_1782" x="-821.6" y="-1670.5" class="st1" width="1.2" height="1.2"/>
			<rect id="Rectangle_1783" x="-820.1" y="-1672" class="st1" width="1.2" height="1.2"/>
			<path id="Path_776" class="st1" d="M-837-1658.3c-1.6,1.2-3.8,1.5-5.7,0.7l5.1,5.2c0.6,0.6,1.6,0.6,2.2,0c0,0,0,0,0,0l12-11.9
				l-5.4,0L-837-1658.3z"/>
			<path id="Path_777" class="st2" d="M-837-1658.3c-1.6,1.2-3.8,1.4-5.7,0.7l-7.4-7.2c-0.6-0.6-1.2-1.2-0.7-1.6
				c0.3-0.2,0.9,0.2,0.9,0.2L-837-1658.3"/>
		</g>
	</g>
	<g id="Layer_2_1_" transform="translate(32.48 16.435)">
		<g id="Group_758">
			<path id="Path_778" class="st3" d="M-845.3-1657.3c-1.2-1.6-1.4-3.8-0.7-5.7l8.3-8.2c0.6-0.6,1.2-1.2,1.6-0.7
				c0.2,0.3-0.2,0.9-0.2,0.9L-845.3-1657.3"/>
			<path id="Path_779" class="st4" d="M-836.5-1643.4l-8.8-13.8c-1.2-1.7-1.4-3.8-0.7-5.7l-4.6,4.6c-0.3,0.3-0.5,0.7-0.5,1.1l0,0
				c0,0,0,0,0,0s0,0,0,0l0,0c0,0.4,0.2,0.8,0.5,1.1l12.8,12.8c0.5,0.5,1.1,1.2,1.5,0.6C-836.2-1642.9-836.3-1643.3-836.5-1643.4z"/>
		</g>
	</g>
	<g id="Layer_3" transform="translate(16.414 32.46)">
		<g id="Group_759">
			<path id="Path_780" class="st5" d="M-850.1-1657.5l13.8-8.8c1.7-1.2,3.8-1.4,5.7-0.7l-4.6-4.6c-0.3-0.3-0.7-0.5-1.1-0.5l0,0h0
				l0,0c-0.4,0-0.8,0.2-1.1,0.5l-12.8,12.8c-0.5,0.5-1.2,1.1-0.6,1.5C-850.6-1657.2-850.3-1657.3-850.1-1657.5z"/>
			<path id="Path_781" class="st6" d="M-836.3-1666.3c1.6-1.2,3.8-1.4,5.7-0.7l8.2,8.3c0.6,0.6,1.2,1.2,0.7,1.6
				c-0.3,0.2-0.9-0.2-0.9-0.2L-836.3-1666.3"/>
		</g>
	</g>
	<g id="Layer_4" transform="translate(15 16.259)">
		<path id="Path_782" class="st7" d="M-841.8-1657.3c1.2,1.6,1.4,3.8,0.7,5.7l-8.3,8.2c-0.6,0.6-1.2,1.2-1.6,0.7
			c-0.2-0.3,0.2-0.9,0.2-0.9L-841.8-1657.3"/>
		<path id="Path_783" class="st8" d="M-850.6-1671.1l8.8,13.8c1.2,1.7,1.4,3.8,0.7,5.7l4.6-4.6c0.3-0.3,0.5-0.7,0.5-1.1l0,0
			c0,0,0,0,0,0s0,0,0,0l0,0c0-0.4-0.2-0.8-0.5-1.1l-12.8-12.8c-0.5-0.4-1.1-1.2-1.5-0.6C-850.9-1671.6-850.7-1671.3-850.6-1671.1z"
			/>
	</g>
	<g id="Layer_5" transform="translate(47.184 20.627)">
		<g id="Group_760">
			<path id="Path_784" class="st9" d="M-844.5-1663c-0.1,0.8-0.2,1.5-0.3,2.3c-0.1,0.8-0.2,1.5-0.2,2.2c0,0.2,0,0.5,0.1,0.7
				c0,0.2,0.1,0.3,0.2,0.5c0.1,0.1,0.2,0.2,0.3,0.2c0.1,0,0.3,0.1,0.4,0.1c0.3,0,0.5,0,0.8-0.1c0.3-0.1,0.6-0.2,0.8-0.3
				c0.1,0,0.1-0.1,0.2-0.1c0.1,0,0.1,0,0.2,0c0.1,0,0.1,0,0.1,0.1c0,0.1,0.1,0.2,0.1,0.3c0,0.2,0.1,0.4,0.1,0.7
				c0.1,0.3,0.1,0.6,0.3,1.1c0,0,0,0.1,0,0.1c0,0,0,0,0,0.1c0,0.1,0,0.2-0.1,0.2c-0.1,0.1-0.3,0.1-0.4,0.2c-0.3,0.1-0.6,0.2-1,0.3
				c-0.3,0.1-0.7,0.2-1,0.3c-0.3,0.1-0.6,0.2-0.9,0.2c-0.3,0.1-0.5,0.1-0.8,0.1c-1,0.1-2-0.2-2.7-0.9c-0.6-0.8-0.9-1.8-0.8-2.8
				c0-0.2,0-0.4,0-0.7c0-0.2,0-0.5,0.1-0.7c0.1-0.7,0.1-1.4,0.2-2.1c0.1-0.7,0.1-1.3,0.2-1.9h-1.2c-0.3,0-0.6,0-0.9,0
				c-0.2,0-0.3-0.1-0.3-0.2c0-0.1,0.1-0.2,0.1-0.2c0.1-0.1,0.2-0.3,0.3-0.5c0.1-0.2,0.2-0.4,0.4-0.6c0.1-0.2,0.3-0.4,0.4-0.6
				l0.3-0.5c0.1-0.1,0.1-0.2,0.2-0.2h0.8c0.1-0.6,0.1-1,0.2-1.4c0-0.4,0.1-0.7,0.1-0.9c0-0.3,0-0.4,0.1-0.6c0-0.1,0-0.2,0.1-0.3
				c0-0.1,0.1-0.1,0.1-0.1c0.1,0,0.1,0,0.2,0c0.3-0.1,0.7-0.1,1-0.2c0.3-0.1,0.6-0.1,0.9-0.2c0.3-0.1,0.6-0.1,0.9-0.2
				c0.3-0.1,0.7-0.2,1-0.3c0,0,0,0,0,0c0,0,0,0,0,0c0.1,0,0.1,0,0.1,0.1v0c0,0.4-0.1,1-0.2,1.7s-0.2,1.5-0.3,2.5h3
				c0.1,0,0.1,0,0.2,0.1c0.1,0,0.1,0.1,0.1,0.2c0,0.1-0.1,0.3-0.1,0.4c-0.1,0.2-0.2,0.5-0.4,0.9l-0.4,0.9c0,0.1-0.1,0.2-0.2,0.2
				c-0.1,0.1-0.2,0.1-0.3,0.1L-844.5-1663z"/>
			<path id="Path_785" class="st9" d="M-838.9-1670.5c0,0,0-0.1,0-0.1c0,0,0-0.1,0-0.1c0-0.1,0-0.1,0.1-0.2c0.1-0.1,0.2-0.1,0.4-0.1
				l3.1-0.7c0.1,0,0.2-0.1,0.3-0.1c0.1,0,0.3-0.1,0.4-0.1c0.3,0,0.4,0.1,0.4,0.4c0,0,0,0.2,0,0.5c0,0.3-0.1,0.6-0.1,1.1
				c0,0.4-0.1,0.9-0.1,1.4s-0.1,1-0.1,1.4c0,0.5-0.1,0.9-0.1,1.2c0,0.3-0.1,0.6-0.1,0.7c0.3-0.2,0.7-0.4,1.1-0.5
				c0.4-0.2,0.7-0.3,1.1-0.4c0.4-0.1,0.8-0.2,1.1-0.3c0.4-0.1,0.7-0.1,1.1-0.1c0.4,0,0.9,0.1,1.3,0.2c0.4,0.1,0.7,0.3,1,0.6
				c0.3,0.3,0.5,0.7,0.7,1.2c0.2,0.6,0.3,1.2,0.2,1.8c0,0.2,0,0.4,0,0.5c0,0.2,0,0.4,0,0.6l-0.5,4.5c0,0.3-0.1,0.6-0.1,1s0,0.7,0,1
				c0,0.1,0,0.1,0,0.1c0,0,0,0.1,0,0.1c0,0.1,0,0.1-0.1,0.2c-0.1,0.1-0.2,0.1-0.4,0.1l-2.7,0.8c-0.1,0-0.2,0.1-0.3,0.1
				c-0.1,0-0.3,0.1-0.4,0.1c-0.1,0-0.2,0-0.3-0.1c-0.1-0.1-0.1-0.2-0.1-0.3c0.1-0.6,0.1-1,0.1-1.3c0-0.3,0.1-0.6,0.1-0.8
				c0-0.2,0-0.4,0-0.5c0-0.1,0-0.2,0-0.3c0-0.1,0-0.2,0-0.3c0-0.1,0-0.3,0-0.5c0-0.2,0-0.5,0.1-0.8s0.1-0.8,0.1-1.3
				c0-0.3,0.1-0.6,0.1-0.9c0-0.3,0-0.5,0.1-0.8c0-0.3,0-0.6-0.1-0.8c0-0.2-0.1-0.4-0.2-0.7c-0.1-0.2-0.2-0.3-0.3-0.4
				c-0.2-0.1-0.4-0.2-0.6-0.2c-0.2,0-0.5,0-0.7,0.1c-0.3,0.1-0.6,0.2-0.9,0.4c-0.3,0.2-0.6,0.4-0.8,0.7c-0.2,0.3-0.4,0.7-0.4,1
				c-0.1,0.6-0.1,1-0.1,1.4s-0.1,0.7-0.1,0.9c0,0.2,0,0.4,0,0.6c0,0.1,0,0.3,0,0.4c0,0,0,0.1,0,0.3c0,0.1,0,0.3-0.1,0.5
				c0,0.2,0,0.4-0.1,0.6c0,0.2,0,0.4-0.1,0.6c0,0.2,0,0.4,0,0.5c0,0.1,0,0.2,0,0.3c0,0.1,0,0.1,0,0.1c0,0,0,0.1,0,0.1
				c0,0.1,0,0.1-0.1,0.1c-0.1,0.1-0.2,0.1-0.4,0.1l-2.9,1c-0.1,0-0.2,0.1-0.3,0.1c-0.1,0-0.3,0.1-0.4,0.1c-0.1,0-0.2,0-0.3-0.1
				c-0.1-0.1-0.1-0.2-0.1-0.3L-838.9-1670.5z"/>
			<path id="Path_786" class="st9" d="M-818.9-1666.8c0.7,0,1.3,0.1,1.9,0.4c0.5,0.2,1,0.6,1.5,1c0.4,0.4,0.7,0.9,0.9,1.4
				c0.2,0.5,0.3,1,0.3,1.6c0,0.5-0.2,1-0.4,1.4c-0.3,0.5-0.7,0.9-1.2,1.2c-0.6,0.4-1.2,0.7-1.8,0.9c-0.8,0.2-1.5,0.4-2.3,0.3
				c-0.5,0-0.9,0-1.4-0.1c0,0.3,0.1,0.6,0.3,0.8c0.2,0.2,0.4,0.4,0.6,0.6c0.2,0.2,0.5,0.3,0.8,0.3c0.3,0.1,0.6,0.1,0.9,0.1
				c0.3,0,0.7,0,1-0.1c0.3-0.1,0.6-0.1,0.9-0.2c0.3-0.1,0.6-0.2,0.9-0.3c0.3-0.1,0.5-0.3,0.8-0.4l0.2,0c0,0,0.1,0,0.1,0
				c0,0.2,0,0.5,0,0.7c0,0.2,0,0.5,0,0.8c0,0.3,0,0.6,0,1c0,0,0,0.1,0,0.1c0,0,0,0.1,0,0.1c0,0.1-0.1,0.2-0.2,0.3
				c-0.2,0.1-0.4,0.2-0.6,0.3c-0.3,0.1-0.6,0.2-0.9,0.3c-0.3,0.1-0.7,0.2-1,0.3c-0.3,0.1-0.7,0.2-1,0.2c-0.3,0-0.6,0.1-0.9,0.1
				c-0.8,0-1.6-0.1-2.3-0.4c-0.7-0.3-1.4-0.7-2-1.2c-1.2-1.1-1.9-2.7-1.9-4.4c0-0.9,0.2-1.9,0.5-2.7c0.3-0.8,0.8-1.6,1.4-2.2
				c0.6-0.6,1.3-1.1,2.2-1.5C-820.7-1666.6-819.8-1666.8-818.9-1666.8z M-819-1663.8c-0.3,0-0.6,0.1-0.8,0.2
				c-0.3,0.1-0.5,0.3-0.7,0.6c-0.2,0.3-0.4,0.6-0.5,0.9c-0.2,0.4-0.3,0.7-0.4,1.1c0.6-0.1,1.3-0.2,1.9-0.4c0.4-0.1,0.8-0.3,1.2-0.4
				c0.2-0.1,0.5-0.3,0.6-0.5c0.1-0.1,0.2-0.3,0.2-0.4c0-0.1-0.1-0.3-0.2-0.4c-0.1-0.1-0.2-0.2-0.4-0.3c-0.2-0.1-0.3-0.2-0.5-0.2
				C-818.7-1663.8-818.8-1663.8-819-1663.8z"/>
			<path id="Path_787" class="st9" d="M-796.7-1654c-0.1,0-0.2,0.1-0.3,0.1c-0.1,0-0.3,0.1-0.4,0.1c-0.1,0-0.2,0-0.3-0.1
				c-0.1-0.1-0.1-0.2-0.1-0.3v-0.1c0.1-0.5,0.1-1,0.1-1.3s0.1-0.6,0.1-0.8c0-0.2,0-0.4,0.1-0.5c0-0.1,0-0.2,0-0.3c0-0.1,0-0.2,0-0.3
				s0-0.3,0-0.5c0-0.2,0-0.5,0.1-0.8c0-0.3,0.1-0.8,0.1-1.3c0-0.3,0.1-0.6,0.1-0.9c0-0.3,0-0.5,0-0.8c0-0.3,0-0.6,0-0.8
				c0-0.2-0.1-0.4-0.2-0.7c-0.1-0.2-0.2-0.3-0.3-0.4c-0.2-0.1-0.4-0.2-0.6-0.2c-0.2,0-0.4,0-0.5,0.1c-0.2,0.1-0.5,0.2-0.7,0.3
				c-0.2,0.2-0.4,0.4-0.6,0.6c-0.2,0.3-0.3,0.6-0.4,0.9v0c-0.1,0.8-0.2,1.6-0.2,2.2c-0.1,0.6-0.1,1.1-0.2,1.6
				c-0.1,0.4-0.1,0.8-0.1,1.1c0,0.3-0.1,0.5-0.1,0.7c0,0.2,0,0.4,0,0.5c0,0.1,0,0.3,0,0.4c0,0.1,0,0.1,0,0.1c0,0,0,0.1,0,0.1
				c0,0.1,0,0.1-0.1,0.1c-0.1,0.1-0.2,0.1-0.4,0.1l-2.6,0.8c-0.1,0-0.2,0.1-0.3,0.1c-0.1,0-0.3,0.1-0.4,0.1c-0.1,0-0.2,0-0.3-0.1
				c-0.1-0.1-0.1-0.2-0.1-0.3v-0.1c0.1-0.5,0.1-1,0.1-1.3s0.1-0.6,0.1-0.8c0-0.2,0-0.4,0.1-0.5c0-0.1,0-0.2,0-0.3c0-0.1,0-0.2,0-0.3
				s0-0.3,0-0.5c0-0.2,0-0.5,0.1-0.8c0-0.3,0.1-0.8,0.1-1.3c0-0.3,0.1-0.6,0.1-0.9c0-0.3,0-0.5,0-0.8c0-0.3,0-0.6,0-0.8
				c0-0.2-0.1-0.4-0.2-0.7c-0.1-0.2-0.2-0.3-0.3-0.4c-0.1-0.1-0.3-0.2-0.5-0.2c-0.2,0-0.4,0-0.6,0.1c-0.3,0.1-0.5,0.2-0.8,0.4
				c-0.3,0.2-0.5,0.4-0.7,0.7c-0.2,0.3-0.3,0.7-0.3,1c-0.1,0.5-0.1,1-0.1,1.3c0,0.4-0.1,0.6-0.1,0.9c0,0.2,0,0.4,0,0.5s0,0.3,0,0.4
				c0,0,0,0.1,0,0.2c0,0.1,0,0.3,0,0.5c0,0.2,0,0.4-0.1,0.6s0,0.4,0,0.6c0,0.2,0,0.4,0,0.5c0,0.1,0,0.2,0,0.2v0.2c0,0.1,0,0.1,0,0.2
				c0,0.1,0,0.1-0.1,0.1c0,0.1-0.1,0.1-0.2,0.1c-0.1,0-0.2,0.1-0.3,0.1l-2.9,1c-0.1,0-0.2,0.1-0.3,0.1c-0.1,0-0.3,0.1-0.4,0.1
				c-0.1,0-0.2,0-0.3-0.1c-0.1-0.1-0.1-0.2-0.1-0.3l1-11.3c0-0.2,0-0.3,0.1-0.5c0-0.1,0.1-0.2,0.2-0.2c0.7-0.1,1.4-0.3,2.1-0.4
				c0.7-0.1,1.4-0.3,2.1-0.5c0.1,0,0.1,0,0.1,0c0,0,0,0.1,0,0.1l-0.1,1.6c0.3-0.1,0.6-0.3,0.9-0.5c0.3-0.2,0.7-0.3,1.1-0.5
				c0.4-0.1,0.8-0.3,1.1-0.3c0.4-0.1,0.8-0.1,1.1-0.1c0.5,0,1,0.1,1.4,0.3c0.5,0.3,0.8,0.7,1.1,1.2c0.3-0.2,0.7-0.4,1.1-0.6
				c0.4-0.2,0.8-0.3,1.1-0.5c0.4-0.1,0.8-0.2,1.2-0.3c0.4-0.1,0.8-0.1,1.1-0.1c0.4,0,0.9,0.1,1.3,0.2c0.4,0.1,0.8,0.4,1.1,0.7
				c0.3,0.3,0.6,0.7,0.7,1.2c0.2,0.6,0.3,1.2,0.3,1.8c0,0.2,0,0.4,0,0.5c0,0.2,0,0.4,0,0.6l-0.5,4.7c0,0.3-0.1,0.6-0.1,0.9
				c0,0.3,0,0.6,0,0.9c0,0.1,0,0.1,0,0.1s0,0.1,0,0.1c0,0.1,0,0.1-0.1,0.2c-0.1,0.1-0.2,0.1-0.4,0.1L-796.7-1654z"/>
			<path id="Path_788" class="st9" d="M-784.6-1666.8c0.7,0,1.3,0.1,1.9,0.4c0.5,0.2,1,0.6,1.5,1c0.4,0.4,0.7,0.9,0.9,1.4
				c0.2,0.5,0.3,1,0.3,1.6c0,0.5-0.2,1-0.4,1.4c-0.3,0.5-0.7,0.9-1.2,1.2c-0.6,0.4-1.2,0.7-1.8,0.9c-0.8,0.2-1.5,0.4-2.3,0.3
				c-0.5,0-0.9,0-1.4-0.1c0,0.3,0.1,0.6,0.3,0.8c0.2,0.2,0.4,0.4,0.6,0.6c0.2,0.2,0.5,0.3,0.8,0.3c0.3,0.1,0.6,0.1,0.9,0.1
				c0.3,0,0.7,0,1-0.1c0.3-0.1,0.6-0.1,0.9-0.2c0.3-0.1,0.6-0.2,0.9-0.3c0.3-0.1,0.5-0.3,0.8-0.4l0.2,0c0,0,0.1,0,0.1,0
				c0,0.2,0,0.5,0,0.7c0,0.2,0,0.5,0,0.8c0,0.3,0,0.6,0,1c0,0,0,0.1,0,0.1c0,0,0,0.1,0,0.1c0,0.1-0.1,0.2-0.2,0.3
				c-0.2,0.1-0.4,0.2-0.6,0.3c-0.3,0.1-0.6,0.2-0.9,0.3c-0.3,0.1-0.7,0.2-1,0.3c-0.3,0.1-0.7,0.2-1,0.2c-0.3,0-0.6,0.1-0.9,0.1
				c-0.8,0-1.6-0.1-2.3-0.4c-0.7-0.3-1.4-0.7-2-1.2c-1.2-1.1-1.9-2.7-1.9-4.4c0-0.9,0.2-1.9,0.5-2.7c0.3-0.8,0.8-1.6,1.4-2.2
				c0.6-0.6,1.3-1.1,2.2-1.5C-786.5-1666.6-785.6-1666.8-784.6-1666.8z M-784.8-1663.8c-0.3,0-0.6,0.1-0.8,0.2
				c-0.3,0.1-0.5,0.3-0.7,0.6c-0.2,0.3-0.4,0.6-0.5,0.9c-0.2,0.4-0.3,0.7-0.4,1.1c0.6-0.1,1.3-0.2,1.9-0.4c0.4-0.1,0.8-0.3,1.2-0.4
				c0.2-0.1,0.5-0.3,0.6-0.5c0.1-0.1,0.2-0.3,0.2-0.4c0-0.1-0.1-0.3-0.1-0.4c-0.1-0.1-0.2-0.2-0.4-0.3c-0.2-0.1-0.3-0.2-0.5-0.2
				C-784.4-1663.8-784.6-1663.8-784.8-1663.8L-784.8-1663.8z"/>
			<path id="Path_789" class="st5" d="M-772.3-1653.8c0,0-0.1-0.1-0.2-0.3l-0.4-0.7l-0.5-1l-0.6-1.1c-0.3,0.4-0.6,0.7-0.8,1.1
				c-0.3,0.4-0.5,0.7-0.7,1c-0.2,0.3-0.4,0.5-0.5,0.7s-0.2,0.3-0.2,0.3c0,0.1-0.1,0.1-0.2,0.1c0,0-0.1,0-0.1,0
				c-0.2-0.1-0.5-0.2-0.7-0.3c-0.3-0.1-0.5-0.2-0.8-0.2c-0.3-0.1-0.5-0.1-0.8-0.2c-0.3-0.1-0.5-0.1-0.8-0.2c-0.1,0-0.1-0.1-0.1-0.1
				c0-0.1,0-0.1,0.1-0.2l0.3-0.4l3.7-5c-0.4-0.8-0.9-1.6-1.3-2.4c-0.4-0.8-0.9-1.6-1.3-2.4l-0.2-0.3c0-0.1-0.1-0.1-0.1-0.2
				c0-0.1,0-0.1,0.1-0.1c0.6-0.1,1.1-0.3,1.7-0.4c0.6-0.1,1.1-0.3,1.6-0.5c0,0,0.1,0,0.1,0c0.1,0,0.2,0,0.2,0.1l1.7,3l2.3-3
				c0-0.1,0.1-0.1,0.2-0.1c0,0,0.1,0,0.1,0c0.5,0.2,1,0.4,1.5,0.5l1.6,0.4c0.1,0,0.1,0.1,0.1,0.1c0,0.1,0,0.2-0.1,0.2
				c-0.1,0.1-0.2,0.2-0.3,0.4c-0.6,0.8-1.3,1.7-1.9,2.4c-0.6,0.8-1.2,1.6-1.8,2.4l2.7,5c0.1,0.1,0.1,0.3,0.2,0.3
				c0,0.1,0.1,0.1,0.1,0.2c0,0.1,0,0.1-0.1,0.1c-0.6,0.1-1.1,0.3-1.7,0.4c-0.6,0.1-1.1,0.3-1.6,0.5c0,0-0.1,0-0.1,0
				C-772.2-1653.7-772.3-1653.7-772.3-1653.8z"/>
			<path id="Path_790" class="st5" d="M-761.7-1665.4c0.6-0.4,1.3-0.8,1.9-1c0.7-0.3,1.4-0.4,2.1-0.4c0.6,0,1.2,0.1,1.8,0.4
				c0.5,0.3,0.9,0.7,1.3,1.2c0.3,0.5,0.6,1.1,0.7,1.7c0.2,0.6,0.2,1.3,0.2,2c0,0.6-0.1,1.2-0.2,1.8c-0.1,0.6-0.3,1.2-0.5,1.8
				c-0.2,0.6-0.5,1.1-0.9,1.6c-0.3,0.5-0.7,0.9-1.2,1.3c-0.4,0.4-0.9,0.7-1.5,0.9c-0.6,0.2-1.2,0.3-1.7,0.3c-0.5,0-1.1-0.1-1.6-0.3
				c-0.5-0.2-1-0.5-1.4-0.9c0,0,0,0.2,0,0.4c0,0.2,0,0.5-0.1,0.8c0,0.3-0.1,0.7-0.1,1.1c0,0.4-0.1,0.7-0.1,1.1
				c0,0.3-0.1,0.6-0.1,0.8c0,0.2,0,0.4,0,0.4c0,0.1,0,0.1,0,0.1c0,0,0,0.1,0,0.1c0,0.1,0,0.1-0.1,0.1c-0.1,0.1-0.2,0.1-0.4,0.1
				l-2.9,0.7c-0.1,0-0.2,0.1-0.3,0.1c-0.1,0-0.3,0.1-0.4,0.1c-0.1,0-0.2,0-0.3-0.1c-0.1-0.1-0.1-0.2-0.1-0.3l1.4-16.2
				c0-0.2,0-0.3,0.1-0.5c0-0.1,0.1-0.2,0.2-0.2c0.7-0.1,1.4-0.3,2.1-0.4c0.7-0.1,1.4-0.3,2.1-0.5c0.1,0,0.1,0,0.1,0c0,0,0,0.1,0,0.1
				c0,0,0,0,0,0.1c0,0,0,0.1,0,0.2c0,0.1,0,0.3-0.1,0.5L-761.7-1665.4z M-762-1662.2c0,0.7-0.1,1.3-0.1,1.7s-0.1,0.8-0.1,1.1
				c0,0.3,0,0.5-0.1,0.7c0,0.2,0,0.3,0,0.4c0.2,0.4,0.4,0.8,0.8,1.1c0.3,0.3,0.8,0.4,1.2,0.4c0.4,0,0.8-0.1,1.1-0.4
				c0.3-0.3,0.6-0.6,0.8-1c0.2-0.4,0.4-0.9,0.5-1.4c0.1-0.5,0.2-1,0.2-1.5c0-0.4,0-0.8-0.1-1.1c-0.1-0.3-0.2-0.6-0.3-0.9
				c-0.1-0.2-0.3-0.4-0.5-0.6c-0.2-0.1-0.5-0.2-0.7-0.2c-0.2,0-0.5,0-0.7,0.1c-0.5,0.2-0.9,0.5-1.3,0.8c-0.2,0.2-0.3,0.3-0.4,0.5
				L-762-1662.2z"/>
			<path id="Path_791" class="st5" d="M-745.7-1666.8c0.7,0,1.3,0.1,1.9,0.4c0.5,0.2,1,0.6,1.5,1c0.4,0.4,0.7,0.9,0.9,1.4
				c0.2,0.5,0.3,1,0.3,1.6c0,0.5-0.2,1-0.4,1.4c-0.3,0.5-0.7,0.9-1.2,1.2c-0.6,0.4-1.2,0.7-1.8,0.9c-0.8,0.2-1.5,0.4-2.3,0.3
				c-0.5,0-0.9,0-1.4-0.1c0,0.3,0.1,0.6,0.3,0.8c0.2,0.2,0.4,0.4,0.6,0.6c0.2,0.2,0.5,0.3,0.8,0.3c0.3,0.1,0.6,0.1,0.9,0.1
				c0.3,0,0.7,0,1-0.1c0.3-0.1,0.6-0.1,0.9-0.2c0.3-0.1,0.6-0.2,0.9-0.3c0.3-0.1,0.5-0.3,0.8-0.4l0.2,0c0,0,0.1,0,0.1,0
				c0,0.2,0,0.5,0,0.7c0,0.2,0,0.5,0,0.8c0,0.3,0,0.6,0,1c0,0,0,0.1,0,0.1c0,0,0,0.1,0,0.1c0,0.1-0.1,0.2-0.2,0.3
				c-0.2,0.1-0.4,0.2-0.6,0.3c-0.3,0.1-0.6,0.2-0.9,0.3c-0.3,0.1-0.7,0.2-1,0.3c-0.3,0.1-0.7,0.2-1,0.2c-0.3,0-0.6,0.1-0.9,0.1
				c-0.8,0-1.6-0.1-2.3-0.4c-0.7-0.3-1.4-0.7-2-1.2c-1.2-1.1-1.9-2.7-1.9-4.4c0-0.9,0.2-1.9,0.5-2.7c0.3-0.8,0.8-1.6,1.4-2.2
				c0.6-0.6,1.3-1.1,2.2-1.5C-747.5-1666.6-746.6-1666.8-745.7-1666.8z M-745.8-1663.8c-0.3,0-0.6,0.1-0.8,0.2
				c-0.3,0.1-0.5,0.3-0.7,0.6c-0.2,0.3-0.4,0.6-0.5,0.9c-0.2,0.4-0.3,0.7-0.4,1.1c0.6-0.1,1.3-0.2,1.9-0.4c0.4-0.1,0.8-0.3,1.2-0.4
				c0.2-0.1,0.5-0.3,0.6-0.5c0.1-0.1,0.2-0.3,0.2-0.4c0-0.1-0.1-0.3-0.1-0.4c-0.1-0.1-0.2-0.2-0.4-0.3c-0.2-0.1-0.3-0.2-0.5-0.2
				C-745.5-1663.8-745.6-1663.8-745.8-1663.8z"/>
			<path id="Path_792" class="st5" d="M-730.6-1663.4l-0.5,0c-0.2,0-0.4,0-0.6,0c-0.3,0-0.7,0-1,0.1c-0.3,0.1-0.6,0.2-0.9,0.3
				c-0.3,0.2-0.5,0.4-0.7,0.7c-0.2,0.3-0.4,0.7-0.4,1.1l-0.1,1.3c0,0.4-0.1,0.6-0.1,0.9c0,0.2,0,0.4,0,0.5c0,0.1,0,0.3,0,0.4
				c0,0,0,0.1,0,0.2c0,0.1,0,0.3-0.1,0.5c0,0.2,0,0.4-0.1,0.6c0,0.2,0,0.4-0.1,0.6s0,0.3-0.1,0.5c0,0.1,0,0.2,0,0.2
				c0,0.1,0,0.1,0,0.1c0,0,0,0.1,0,0.1c0,0.1,0,0.1-0.1,0.1c-0.1,0.1-0.2,0.1-0.4,0.1l-2.9,1.1c-0.1,0-0.2,0.1-0.3,0.1
				c-0.1,0-0.3,0.1-0.4,0.1c-0.1,0-0.2,0-0.3-0.1c-0.1-0.1-0.1-0.2-0.1-0.3l1-11c0-0.2,0-0.3,0.1-0.5c0-0.1,0.1-0.2,0.2-0.2
				c0.7-0.1,1.4-0.3,2.1-0.4c0.7-0.1,1.4-0.3,2.1-0.5c0.1,0,0.1,0,0.1,0c0,0,0,0.1,0,0.1c0,0,0,0,0,0.1c0,0,0,0.1,0,0.2
				c0,0.1,0,0.3-0.1,0.5l-0.1,0.9c0.4-0.3,0.7-0.5,1.1-0.7c0.4-0.2,0.8-0.4,1.2-0.6c0.4-0.2,0.8-0.3,1.2-0.4c0.3-0.1,0.7-0.1,1-0.1
				L-730.6-1663.4z"/>
			<path id="Path_793" class="st5" d="M-723.6-1663c-0.1,0.8-0.2,1.5-0.3,2.3c-0.1,0.8-0.1,1.5-0.2,2.2c0,0.2,0,0.5,0.1,0.7
				c0,0.2,0.1,0.3,0.2,0.5c0.1,0.1,0.2,0.2,0.3,0.2c0.1,0,0.3,0.1,0.4,0.1c0.3,0,0.5,0,0.8-0.1c0.3-0.1,0.6-0.2,0.8-0.3
				c0.1,0,0.2-0.1,0.2-0.1c0.1,0,0.1,0,0.2,0c0.1,0,0.1,0,0.1,0.1c0,0.1,0.1,0.2,0.1,0.3c0,0.2,0.1,0.4,0.1,0.7
				c0.1,0.3,0.1,0.6,0.3,1.1c0,0,0,0.1,0,0.1c0,0,0,0,0,0.1c0,0.1,0,0.2-0.1,0.2c-0.1,0.1-0.3,0.1-0.4,0.2c-0.3,0.1-0.6,0.2-1,0.3
				c-0.3,0.1-0.7,0.2-1,0.3c-0.3,0.1-0.6,0.2-0.9,0.2c-0.3,0.1-0.5,0.1-0.8,0.1c-1,0.1-2-0.2-2.7-0.9c-0.6-0.8-0.9-1.8-0.8-2.8
				c0-0.2,0-0.4,0-0.7c0-0.2,0-0.5,0.1-0.7c0.1-0.7,0.1-1.4,0.2-2.1c0.1-0.7,0.1-1.3,0.2-1.9h-1.2c-0.3,0-0.6,0-0.9,0
				c-0.2,0-0.3-0.1-0.3-0.2c0-0.1,0.1-0.2,0.1-0.2c0.1-0.1,0.2-0.3,0.3-0.5c0.1-0.2,0.2-0.4,0.4-0.6c0.1-0.2,0.3-0.4,0.4-0.6
				s0.2-0.3,0.3-0.5c0.1-0.1,0.1-0.2,0.2-0.2h0.8c0.1-0.6,0.1-1,0.2-1.4s0.1-0.7,0.1-0.9c0-0.3,0-0.4,0.1-0.6c0-0.1,0-0.2,0.1-0.3
				c0-0.1,0.1-0.1,0.1-0.1c0.1,0,0.1,0,0.2,0c0.3-0.1,0.7-0.1,1-0.2c0.3-0.1,0.6-0.1,0.9-0.2c0.3-0.1,0.6-0.1,0.9-0.2
				c0.3-0.1,0.7-0.2,1-0.3c0,0,0,0,0,0c0,0,0,0,0,0c0.1,0,0.1,0,0.1,0.1v0c0,0.4-0.1,1-0.2,1.7c-0.1,0.7-0.2,1.5-0.3,2.5h3
				c0.1,0,0.1,0,0.2,0.1c0.1,0,0.1,0.1,0.1,0.2c0,0.1-0.1,0.3-0.1,0.4c-0.1,0.2-0.2,0.5-0.4,0.9l-0.4,0.9c0,0.1-0.1,0.2-0.2,0.2
				c-0.1,0.1-0.2,0.1-0.3,0.1L-723.6-1663z"/>
		</g>
	</g>
</g>
</svg>
