<?xml version="1.0" encoding="utf-8"?>
<!-- Generator: Adobe Illustrator 24.3.0, SVG Export Plug-In . SVG Version: 6.00 Build 0)  -->
<svg version="1.1" id="Layer_1" xmlns="http://www.w3.org/2000/svg" xmlns:xlink="http://www.w3.org/1999/xlink" x="0px" y="0px"
	 viewBox="0 0 254 60" style="enable-background:new 0 0 254 60;" xml:space="preserve">
<style type="text/css">
	.st0{fill:#FF4545;fill-opacity:0;}
	.st1{fill:#595A5A;}
	.st2{fill:url(#Path_744_1_);}
	.st3{fill:url(#Path_748_1_);}
	.st4{fill:url(#Path_749_1_);}
	.st5{fill:url(#Path_750_1_);}
	.st6{fill:url(#Path_751_1_);}
	.st7{fill:url(#Path_752_1_);}
	.st8{fill:url(#Path_753_1_);}
	.st9{fill:#5D635C;}
</style>
<g id="Group_829" transform="translate(-551 -949)">
	<rect id="Rectangle_1810" x="551" y="949" class="st0" width="254" height="60"/>
	<g id="Group_752" transform="translate(470.308 589.971)">
		<g id="Group_752-2" transform="translate(147.723 367.502)">
			<path id="Path_742" class="st1" d="M0,8.4h6.3l4.9,14.9h0.2l5.7-13.2l5.7,13.2h0.1l4.9-14.9h6.3L23.5,36.3l-6.3-14.9H17
				l-6.4,14.9L0,8.4z"/>
			<path id="Path_743" class="st1" d="M41.4,11.5c2.7-2.6,6.2-4,9.9-4c4,0,7.8,1.6,10.6,4.4l1.2,1.2L47,29.2
				c1.4,1.3,3.3,1.9,5.3,1.8c2.2-0.1,4.4-1.1,5.9-2.7c1.3-1.2,2.1-2.9,2.5-4.6c0.2-1.3,0.3-2.6,0.1-4l5.4-1.5
				c0.3,2.2,0.1,4.4-0.4,6.5c-0.7,2.7-2.1,5.2-4,7.3c-2.8,2.9-6.6,4.5-10.6,4.6c-7.9,0-14.3-6.3-14.4-14.2
				C36.6,18.5,38.2,14.9,41.4,11.5z M43.6,25.8l11.3-11.3c-1.6-0.9-3.5-1.3-5.3-1.2c-1.9,0.2-3.7,1-5,2.4c-1.3,1.3-2.2,3-2.3,4.8
				C42.1,22.4,42.5,24.2,43.6,25.8L43.6,25.8z"/>
			
				<radialGradient id="Path_744_1_" cx="-2.4947" cy="30.7145" r="0.4516" gradientTransform="matrix(36.4578 0 0 -36.4446 175.3014 1137.5995)" gradientUnits="userSpaceOnUse">
				<stop  offset="0" style="stop-color:#FFC60B"/>
				<stop  offset="0.146" style="stop-color:#FCBC0D"/>
				<stop  offset="0.391" style="stop-color:#F4A215"/>
				<stop  offset="0.702" style="stop-color:#E87821"/>
				<stop  offset="0.903" style="stop-color:#E05A2A"/>
				<stop  offset="1" style="stop-color:#DD5330"/>
			</radialGradient>
			<path id="Path_744" class="st2" d="M98.8,0v35.3h-5.6v-2.8h-0.1c-1,1.1-2.3,2.1-3.6,2.8c-1.7,0.8-3.5,1.2-5.4,1.2
				c-3.9,0-7.6-1.5-10.3-4.4c-2.5-2.7-3.9-6.3-3.9-10c0.1-3.7,1.5-7.2,4-9.9c2.7-3,6.5-4.6,10.6-4.6c1.9,0,3.7,0.5,5.3,1.4
				c1.4,0.8,2.6,1.3,3.4,3.1h0.1V0H98.8z M93.5,22c0-2.3-0.9-4.5-2.5-6.2c-1.6-1.7-3.8-2.7-6.1-2.7c-2.4,0-4.7,1-6.3,2.7
				c-1.6,1.7-2.5,3.9-2.5,6.2c0,2.4,0.9,4.7,2.6,6.4c1.6,1.7,3.9,2.6,6.2,2.6c2.3,0,4.5-1,6.1-2.7C92.6,26.6,93.5,24.3,93.5,22
				L93.5,22z"/>
			<path id="Path_745" class="st1" d="M109.8,11.5c2.7-2.6,6.2-4,9.9-4c4,0,7.8,1.6,10.6,4.4l1.2,1.2l-16.1,16.1
				c1.4,1.3,3.3,1.9,5.2,1.8c2.2-0.1,4.4-1.1,5.9-2.7c1.3-1.2,2.1-2.9,2.5-4.6c0.2-1.3,0.3-2.6,0.1-4l5.4-1.5
				c0.3,2.2,0.1,4.4-0.4,6.5c-0.7,2.7-2.1,5.2-4,7.3c-2.8,2.9-6.6,4.5-10.6,4.6c-7.9,0-14.3-6.4-14.4-14.2
				C105.1,18.5,106.6,14.9,109.8,11.5z M112,25.8l11.3-11.3c-1.6-0.9-3.5-1.3-5.3-1.2c-1.9,0.2-3.7,1-5,2.4c-1.3,1.3-2.2,3-2.4,4.8
				C110.5,22.4,111,24.2,112,25.8L112,25.8z"/>
			<path id="Path_746" class="st1" d="M136.6,8.4h6.4l6.1,15.8h0.2l6.1-15.8h6.5l-12.6,28.1L136.6,8.4z"/>
			<path id="Path_747" class="st1" d="M175.1,7.6c2.1,0,4.2,0.4,6.2,1.2c1.6,0.7,3.1,1.5,4.5,2.6l-3.3,4.1c-0.9-0.9-2-1.6-3.2-2.1
				c-1.3-0.6-2.7-1-4.1-1c-1.3,0-2.6,0.3-3.8,1c-0.8,0.5-1.4,1.4-1.4,2.4c0.1,1.4,0.9,2.3,2.6,2.7c1.9,0.5,3.8,0.8,5.8,1.1
				c2,0.3,4,1,5.8,2c1.7,1.1,2.5,2.9,2.7,5.6c0,2.4-1.1,4.7-2.9,6.2c-1.9,1.8-4.8,2.8-8.7,2.9c-2.7,0-5.3-0.6-7.7-1.7
				c-1.7-0.7-3.3-1.8-4.6-3.1l4-4c1.1,1.1,2.3,2,3.7,2.7c1.5,0.8,3.2,1.3,5,1.3c1.4,0.1,2.8-0.3,4-1.2c0.8-0.5,1.4-1.4,1.4-2.4
				c0-0.3-0.1-0.7-0.2-1c-0.1-0.3-0.3-0.7-0.6-0.9c-1.1-0.8-2.4-1.3-3.8-1.5c-1.7-0.3-3.5-0.7-5.4-1.1c-1.8-0.4-3.4-1.1-4.8-2.2
				c-1.4-1.2-2.2-3-2.1-4.8c0-2.4,1.1-4.7,2.9-6.3C169.1,8.5,171.7,7.7,175.1,7.6z"/>
		</g>
		<g id="Group_753" transform="translate(80.692 359.029)">
			
				<linearGradient id="Path_748_1_" gradientUnits="userSpaceOnUse" x1="70.3091" y1="24.537" x2="71.3091" y2="24.537" gradientTransform="matrix(20.4765 0 0 -12.134 -1428.3821 307.3971)">
				<stop  offset="0" style="stop-color:#007BC3"/>
				<stop  offset="0.224" style="stop-color:#0275B9"/>
				<stop  offset="0.599" style="stop-color:#09659F"/>
				<stop  offset="1" style="stop-color:#12517D"/>
			</linearGradient>
			<path id="Path_748" class="st3" d="M11.4,15.7c0,0-1.9-10.8,8.5-12.1c0,0,8.6-1.2,11.8,9.3C31.8,12.9,18.8,13.8,11.4,15.7z"/>
			
				<radialGradient id="Path_749_1_" cx="63.5832" cy="40.0216" r="0.458" gradientTransform="matrix(40.1241 0 0 -40.127 -2543.5098 1632.3743)" gradientUnits="userSpaceOnUse">
				<stop  offset="0" style="stop-color:#B7D433"/>
				<stop  offset="0.123" style="stop-color:#B1D134"/>
				<stop  offset="0.286" style="stop-color:#A0CB37"/>
				<stop  offset="0.471" style="stop-color:#84C23C"/>
				<stop  offset="0.672" style="stop-color:#5EB443"/>
				<stop  offset="0.818" style="stop-color:#3EA949"/>
				<stop  offset="1" style="stop-color:#49A64B"/>
			</radialGradient>
			<path id="Path_749" class="st4" d="M31.8,12.9c0,0-28.4,0.8-30.8,9.8c0,0-6.2,12.3,12.8,28.6c0,0,8.4,5.1,14.8-1.9
				c0,0-10.9-10.6-14.5-17.4c0,0,9.9-10.4,19-14.8C32.7,15.7,32.3,14.3,31.8,12.9z"/>
			
				<linearGradient id="Path_750_1_" gradientUnits="userSpaceOnUse" x1="73.7638" y1="31.7563" x2="74.7638" y2="31.7563" gradientTransform="matrix(16.4943 0 0 -18.0754 -1206.5542 615.1588)">
				<stop  offset="0" style="stop-color:#338947"/>
				<stop  offset="0.411" style="stop-color:#196129"/>
				<stop  offset="0.787" style="stop-color:#074414"/>
				<stop  offset="1" style="stop-color:#00390C"/>
			</linearGradient>
			<path id="Path_750" class="st5" d="M14,32.1c0,0-7.7,8-1.3,15.1c0,0,6.3,6.1,13.9,0.9C26.6,48.1,17.5,37.4,14,32.1z"/>
			
				<radialGradient id="Path_751_1_" cx="64.4461" cy="39.3466" r="0.517" gradientTransform="matrix(37.8098 0 0 -37.8042 -2394.3335 1526.0527)" gradientUnits="userSpaceOnUse">
				<stop  offset="0" style="stop-color:#FFC60B"/>
				<stop  offset="0.146" style="stop-color:#FCBC0D"/>
				<stop  offset="0.391" style="stop-color:#F4A215"/>
				<stop  offset="0.702" style="stop-color:#E87821"/>
				<stop  offset="0.903" style="stop-color:#E05A2A"/>
				<stop  offset="1" style="stop-color:#DD5330"/>
			</radialGradient>
			<path id="Path_751" class="st6" d="M17.6,28.5c0,0,13.7,8.5,21.7,8.3c3.7-6.5,6.3-13.7,7.7-21.1c0,0,9.1,2.8,8.8,12.7
				c0,0,1,7.6-8.3,19c0,0-6.2,7.2-12.3,6c0,0-12-5.6-21.2-21.3C15.1,30.8,16.3,29.6,17.6,28.5z"/>
			
				<linearGradient id="Path_752_1_" gradientUnits="userSpaceOnUse" x1="77.4313" y1="33.0078" x2="76.5113" y2="32.7138" gradientTransform="matrix(14.4653 0 0 -19.4325 -1063.8242 664.9983)">
				<stop  offset="0" style="stop-color:#CA2022"/>
				<stop  offset="0.584" style="stop-color:#C7361E"/>
				<stop  offset="1" style="stop-color:#C6421D"/>
			</linearGradient>
			<path id="Path_752" class="st7" d="M46.7,18.2c0,0,7.7,3.1,7,11c0,0-1.6,10.7-14.4,8C39.2,37.2,45.1,24.1,46.7,18.2z"/>
			
				<radialGradient id="Path_753_1_" cx="64.5741" cy="39.5002" r="0.511" gradientTransform="matrix(37.181 0 0 -37.1696 -2365.657 1480.4706)" gradientUnits="userSpaceOnUse">
				<stop  offset="0" style="stop-color:#C7EAFB"/>
				<stop  offset="0.109" style="stop-color:#BDE5F9"/>
				<stop  offset="0.291" style="stop-color:#A3D9F6"/>
				<stop  offset="0.525" style="stop-color:#79C5F1"/>
				<stop  offset="0.797" style="stop-color:#3FA9EA"/>
				<stop  offset="1" style="stop-color:#1093E5"/>
			</radialGradient>
			<path id="Path_753" class="st8" d="M8.8,16.6c0,0-2.2-10.6,7.8-14.7c0,0,2.8-1.7,13.8-1.8c0,0,12.2-0.5,16.4,7.4
				c0,0,3.9,8.8-7.6,29.8l-1.3-0.3c0,0-0.9-0.2-3.6-0.8c0,0,1-20.1-4.6-27.2c0,0-3.9-6.5-11.2-5c0,0-8.1,2.4-7,11.8
				C11.4,15.7,11.1,15.9,8.8,16.6z"/>
		</g>
		<g id="Group_754" transform="translate(247.992 411.818)">
			<path id="Path_754" class="st9" d="M0.7,1.8l0.5,1.9c0.1,0.4,0.2,0.8,0.3,1.2h0c0.1-0.4,0.2-0.8,0.3-1.2l0.6-1.9h0.6l0.6,1.9
				C3.8,4.1,3.9,4.5,4,4.9h0c0.1-0.4,0.2-0.8,0.3-1.2l0.5-1.9h0.7L4.3,5.6H3.7L3.1,3.8C2.9,3.4,2.8,2.9,2.7,2.5h0
				C2.6,2.9,2.5,3.4,2.4,3.8L1.8,5.6H1.1L0,1.8L0.7,1.8z"/>
			<path id="Path_755" class="st9" d="M6.5,3.8C6.5,4.5,7,5.1,7.6,5.1c0.1,0,0.1,0,0.2,0c0.4,0,0.7-0.1,1.1-0.2L9,5.4
				C8.6,5.6,8.2,5.7,7.7,5.6C6.7,5.7,5.9,5,5.8,4c0-0.1,0-0.2,0-0.3c-0.1-1,0.6-1.9,1.6-2c0.1,0,0.1,0,0.2,0c0.9,0,1.6,0.7,1.6,1.6
				c0,0.1,0,0.1,0,0.2c0,0.1,0,0.2,0,0.3L6.5,3.8z M8.5,3.3c0.1-0.5-0.3-1-0.8-1.1c0,0-0.1,0-0.1,0c-0.6,0-1,0.5-1.1,1.1H8.5z"/>
			<path id="Path_756" class="st9" d="M14.4,5.4c-0.3,0.2-0.7,0.2-1.1,0.2c-1,0.1-1.8-0.7-1.9-1.7c0-0.1,0-0.2,0-0.2
				c0-1.1,0.8-2,1.8-2c0.1,0,0.1,0,0.2,0c0.3,0,0.7,0.1,1,0.2l-0.2,0.5c-0.2-0.1-0.5-0.2-0.8-0.2c-0.8,0-1.4,0.7-1.3,1.5
				c0,0.7,0.6,1.3,1.3,1.3c0.3,0,0.6-0.1,0.8-0.2L14.4,5.4z"/>
			<path id="Path_757" class="st9" d="M15.2,3c0-0.4,0-0.8,0-1.2h0.6l0,0.7h0C16,2,16.4,1.7,16.9,1.7c0.1,0,0.1,0,0.2,0v0.7
				c-0.1,0-0.2,0-0.2,0c-0.5,0-0.9,0.4-0.9,0.9c0,0.1,0,0.2,0,0.3v2h-0.7L15.2,3z"/>
			<path id="Path_758" class="st9" d="M18.1,3.8c-0.1,0.7,0.4,1.3,1.1,1.3c0.1,0,0.1,0,0.2,0c0.4,0,0.7-0.1,1.1-0.2l0.1,0.5
				c-0.4,0.2-0.8,0.2-1.3,0.2c-1,0.1-1.8-0.7-1.9-1.6c0-0.1,0-0.2,0-0.3c-0.1-1,0.6-1.9,1.6-2c0.1,0,0.1,0,0.2,0
				c0.9,0,1.6,0.7,1.6,1.6c0,0.1,0,0.1,0,0.2c0,0.1,0,0.2,0,0.3L18.1,3.8z M20.1,3.3c0.1-0.5-0.3-1-0.8-1.1c0,0-0.1,0-0.1,0
				c-0.6,0-1,0.5-1.1,1.1H20.1z"/>
			<path id="Path_759" class="st9" d="M23.8,5.6l-0.1-0.5h0c-0.3,0.4-0.7,0.6-1.2,0.6c-0.6,0-1.1-0.4-1.2-1c0,0,0-0.1,0-0.1
				c0-0.9,0.8-1.4,2.3-1.4V3.1c0.1-0.4-0.2-0.8-0.7-0.9c-0.1,0-0.1,0-0.2,0c-0.3,0-0.7,0.1-1,0.3L21.6,2c0.4-0.2,0.8-0.3,1.2-0.3
				c1.2,0,1.4,0.8,1.4,1.6v1.4c0,0.3,0,0.6,0.1,0.9L23.8,5.6z M23.7,3.6c-0.8,0-1.6,0.1-1.6,0.9c0,0.3,0.2,0.6,0.6,0.7
				c0,0,0.1,0,0.1,0c0.4,0,0.8-0.2,0.9-0.6c0-0.1,0-0.1,0-0.2V3.6z"/>
			<path id="Path_760" class="st9" d="M26.2,0.7v1.1h1v0.5h-1v2c0,0.5,0.1,0.7,0.5,0.7c0.1,0,0.3,0,0.4,0l0,0.5
				c-0.2,0.1-0.4,0.1-0.6,0.1c-0.3,0-0.6-0.1-0.7-0.3c-0.2-0.3-0.3-0.6-0.3-1V2.3H25V1.8h0.6V0.9L26.2,0.7z"/>
			<path id="Path_761" class="st9" d="M28.3,3.8c-0.1,0.7,0.4,1.3,1.1,1.3c0.1,0,0.1,0,0.2,0c0.4,0,0.7-0.1,1.1-0.2l0.1,0.5
				c-0.4,0.2-0.8,0.2-1.3,0.2c-1,0.1-1.8-0.7-1.9-1.6c0-0.1,0-0.2,0-0.3c-0.1-1,0.6-1.9,1.6-2c0.1,0,0.1,0,0.2,0
				c0.9,0,1.6,0.8,1.6,1.6c0,0.1,0,0.1,0,0.2c0,0.1,0,0.2,0,0.3L28.3,3.8z M30.4,3.3c0.1-0.5-0.3-1-0.8-1.1c0,0-0.1,0-0.1,0
				c-0.6,0-1,0.5-1.1,1.1H30.4z"/>
			<path id="Path_762" class="st9" d="M34.4,0.7v1.1h1v0.5h-1v2c0,0.5,0.1,0.7,0.5,0.7c0.1,0,0.3,0,0.4,0l0,0.5
				c-0.2,0.1-0.4,0.1-0.6,0.1c-0.3,0-0.6-0.1-0.7-0.3c-0.2-0.3-0.3-0.6-0.3-1V2.3h-0.6V1.8h0.6V0.9L34.4,0.7z"/>
			<path id="Path_763" class="st9" d="M36.2,0h0.7v2.4h0C37,2.2,37.1,2,37.4,1.9c0.2-0.1,0.5-0.2,0.7-0.2c0.5,0,1.3,0.3,1.3,1.6v2.3
				h-0.7V3.4c0-0.6-0.2-1.1-0.9-1.1c-0.4,0-0.8,0.3-0.9,0.7c0,0.1-0.1,0.2,0,0.3v2.3h-0.7L36.2,0z"/>
			<path id="Path_764" class="st9" d="M41.3,0.7c0,0.2-0.2,0.4-0.4,0.4c-0.2,0-0.4-0.2-0.4-0.4c0-0.2,0.2-0.4,0.4-0.4c0,0,0,0,0,0
				C41.1,0.3,41.3,0.4,41.3,0.7C41.3,0.7,41.3,0.7,41.3,0.7z M40.5,5.6V1.8h0.7v3.8H40.5z"/>
			<path id="Path_765" class="st9" d="M42.3,2.8c0-0.4,0-0.7,0-1h0.6l0,0.6h0c0.3-0.5,0.7-0.7,1.3-0.7c0.5,0,1.3,0.3,1.3,1.6v2.3
				h-0.7V3.4c0-0.6-0.2-1.1-0.9-1.1c-0.5,0-1,0.5-1,1v2.3h-0.7L42.3,2.8z"/>
			<path id="Path_766" class="st9" d="M50,1.8c0,0.3,0,0.6,0,1V5c0.1,0.6-0.1,1.3-0.5,1.7C49,7.1,48.5,7.2,48,7.2
				c-0.4,0-0.9-0.1-1.3-0.3l0.2-0.5c0.3,0.2,0.7,0.3,1.1,0.3c0.7,0,1.2-0.4,1.2-1.3V4.9h0C49,5.3,48.5,5.6,48,5.6
				c-0.9,0-1.7-0.8-1.6-1.8c0,0,0-0.1,0-0.1c-0.1-1,0.6-1.9,1.6-2c0,0,0.1,0,0.1,0c0.5,0,1,0.2,1.2,0.7h0l0-0.6L50,1.8z M49.3,3.3
				c0-0.1,0-0.2,0-0.3c-0.1-0.4-0.5-0.7-1-0.7c-0.7,0-1.1,0.6-1.1,1.4c0,0.7,0.4,1.4,1.1,1.4c0.4,0,0.8-0.3,1-0.7
				c0-0.1,0.1-0.2,0.1-0.4L49.3,3.3z"/>
			<path id="Path_767" class="st9" d="M51,4.9c0.3,0.2,0.6,0.3,0.9,0.3c0.5,0,0.7-0.3,0.7-0.6c0-0.3-0.2-0.5-0.7-0.7
				c-0.7-0.2-1-0.6-1-1.1c0-0.6,0.6-1.1,1.2-1.1c0,0,0.1,0,0.1,0c0.3,0,0.6,0.1,0.9,0.2L53,2.4c-0.2-0.1-0.5-0.2-0.8-0.2
				c-0.4,0-0.6,0.2-0.6,0.5c0,0.3,0.2,0.5,0.7,0.6c0.7,0.3,1,0.6,1,1.1c0,0.7-0.5,1.1-1.4,1.1c-0.4,0-0.7-0.1-1.1-0.3L51,4.9z"/>
			<path id="Path_768" class="st9" d="M56.7,0.7v1.1h1v0.5h-1v2c0,0.5,0.1,0.7,0.5,0.7c0.1,0,0.3,0,0.4,0l0,0.5
				c-0.2,0.1-0.4,0.1-0.6,0.1c-0.3,0-0.6-0.1-0.7-0.3c-0.2-0.3-0.3-0.6-0.3-1V2.3h-0.6V1.8H56V0.9L56.7,0.7z"/>
			<path id="Path_769" class="st9" d="M58.5,0h0.7v2.4h0c0.1-0.2,0.3-0.4,0.5-0.5c0.2-0.1,0.5-0.2,0.7-0.2c0.5,0,1.3,0.3,1.3,1.6
				v2.3H61V3.4c0-0.6-0.2-1.1-0.9-1.1c-0.4,0-0.8,0.3-0.9,0.7c0,0.1-0.1,0.2,0,0.3v2.3h-0.7L58.5,0z"/>
			<path id="Path_770" class="st9" d="M64.9,5.6l-0.1-0.5h0c-0.3,0.4-0.7,0.6-1.2,0.6c-0.6,0-1.1-0.4-1.2-1c0,0,0-0.1,0-0.1
				c0-0.9,0.8-1.4,2.3-1.4V3.1c0.1-0.4-0.2-0.8-0.7-0.9c-0.1,0-0.1,0-0.2,0c-0.3,0-0.7,0.1-1,0.3L62.8,2c0.4-0.2,0.8-0.3,1.2-0.3
				c1.2,0,1.4,0.8,1.4,1.6v1.4c0,0.3,0,0.6,0.1,0.9L64.9,5.6z M64.8,3.6c-0.8,0-1.6,0.1-1.6,0.9c0,0.3,0.2,0.6,0.6,0.7
				c0,0,0.1,0,0.1,0c0.4,0,0.8-0.2,0.9-0.6c0-0.1,0-0.1,0-0.2L64.8,3.6z"/>
			<path id="Path_771" class="st9" d="M67.4,0.7v1.1h1v0.5h-1v2c0,0.5,0.1,0.7,0.5,0.7c0.1,0,0.3,0,0.4,0l0,0.5
				c-0.2,0.1-0.4,0.1-0.6,0.1c-0.3,0-0.6-0.1-0.7-0.3c-0.2-0.3-0.3-0.6-0.3-1V2.3h-0.6V1.8h0.6V0.9L67.4,0.7z"/>
			<path id="Path_772" class="st9" d="M71.1,1.8l0.5,1.9c0.1,0.4,0.2,0.8,0.3,1.2h0c0.1-0.4,0.2-0.8,0.3-1.2l0.6-1.9h0.6L74,3.7
				c0.1,0.5,0.3,0.9,0.3,1.2h0c0.1-0.4,0.2-0.8,0.3-1.2l0.5-1.9h0.7l-1.2,3.8h-0.6l-0.6-1.8c-0.1-0.4-0.2-0.8-0.3-1.2h0
				c-0.1,0.4-0.2,0.8-0.3,1.3l-0.6,1.8h-0.6l-1.1-3.8L71.1,1.8z"/>
			<path id="Path_773" class="st9" d="M80,3.6c0.1,1-0.7,1.9-1.7,2c-0.1,0-0.1,0-0.2,0c-1,0-1.8-0.8-1.8-1.8c0-0.1,0-0.1,0-0.2
				c-0.1-1,0.7-1.9,1.7-2c0.1,0,0.1,0,0.2,0c1,0,1.8,0.8,1.8,1.8C80,3.5,80,3.6,80,3.6z M76.9,3.7c0,0.8,0.5,1.5,1.2,1.5
				c0.7,0,1.2-0.6,1.2-1.5c0-0.6-0.3-1.5-1.1-1.5C77.3,2.2,77,3,76.9,3.7L76.9,3.7z"/>
			<path id="Path_774" class="st9" d="M80.8,3c0-0.4,0-0.8,0-1.2h0.6l0,0.7h0C81.6,2,82,1.7,82.5,1.7c0.1,0,0.1,0,0.2,0v0.7
				c-0.1,0-0.2,0-0.2,0c-0.5,0-0.9,0.4-0.9,0.9c0,0.1,0,0.2,0,0.3v2h-0.7L80.8,3z"/>
			<path id="Path_775" class="st9" d="M84.1,3.5L84.1,3.5c0.1-0.1,0.2-0.3,0.4-0.4l1.1-1.3h0.8l-1.5,1.6l1.7,2.2h-0.8l-1.3-1.8
				l-0.4,0.4v1.4h-0.7V0h0.7V3.5z"/>
		</g>
	</g>
</g>
</svg>
