<svg xmlns="http://www.w3.org/2000/svg" xmlns:xlink="http://www.w3.org/1999/xlink" viewBox="0 0 150 32.25"><defs><style>.cls-1{fill:#5a5b5b;}.cls-2{fill:url(#radial-gradient);}.cls-3{fill:url(#linear-gradient);}.cls-4{fill:url(#radial-gradient-2);}.cls-5{fill:url(#linear-gradient-2);}.cls-6{fill:url(#radial-gradient-3);}.cls-7{fill:url(#linear-gradient-3);}.cls-8{fill:url(#radial-gradient-4);}</style><radialGradient id="radial-gradient" cx="88.26" cy="16.07" r="9.91" gradientUnits="userSpaceOnUse"><stop offset="0" stop-color="#ffc713"/><stop offset="0.15" stop-color="#fcbd15"/><stop offset="0.39" stop-color="#f5a41a"/><stop offset="0.7" stop-color="#e97a23"/><stop offset="0.9" stop-color="#e05b29"/><stop offset="1" stop-color="#dd5430"/></radialGradient><linearGradient id="linear-gradient" x1="6.8" y1="5.82" x2="19.13" y2="5.82" gradientUnits="userSpaceOnUse"><stop offset="0" stop-color="#147bc1"/><stop offset="0.23" stop-color="#1475b7"/><stop offset="0.62" stop-color="#13659e"/><stop offset="1" stop-color="#12527e"/></linearGradient><radialGradient id="radial-gradient-2" cx="5.6" cy="15.91" r="11.07" gradientUnits="userSpaceOnUse"><stop offset="0" stop-color="#b8d435"/><stop offset="0.12" stop-color="#b2d236"/><stop offset="0.29" stop-color="#a1cc39"/><stop offset="0.47" stop-color="#86c23d"/><stop offset="0.67" stop-color="#60b543"/><stop offset="0.82" stop-color="#3fa948"/><stop offset="1" stop-color="#49a649"/></radialGradient><linearGradient id="linear-gradient-2" x1="6.1" y1="24.78" x2="16.03" y2="24.78" gradientUnits="userSpaceOnUse"><stop offset="0" stop-color="#338a47"/><stop offset="0.42" stop-color="#256232"/><stop offset="0.79" stop-color="#1a4422"/><stop offset="1" stop-color="#16391c"/></linearGradient><radialGradient id="radial-gradient-3" cx="25.99" cy="23.24" r="11.77" xlink:href="#radial-gradient"/><linearGradient id="linear-gradient-3" x1="33.86" y1="14.19" x2="25.86" y2="17.64" gradientUnits="userSpaceOnUse"><stop offset="0" stop-color="#ca2027"/><stop offset="0.6" stop-color="#c73927"/><stop offset="1" stop-color="#c64427"/></linearGradient><radialGradient id="radial-gradient-4" cx="21.44" cy="7.38" r="11.44" gradientUnits="userSpaceOnUse"><stop offset="0" stop-color="#c7eafb"/><stop offset="0.13" stop-color="#bde4f8"/><stop offset="0.35" stop-color="#a4d4f0"/><stop offset="0.62" stop-color="#79bae3"/><stop offset="0.94" stop-color="#4096d1"/><stop offset="1" stop-color="#358fce"/></radialGradient></defs><title>logo_colorfull</title><g id="Layer_2" data-name="Layer 2"><g id="Layer_1-2" data-name="Layer 1"><path class="cls-1" d="M37.47,10.14h3.81l2.94,9h.1l3.45-7.93,3.4,7.93h.08l3-9H58L51.62,27,47.8,18h-.1l-3.84,9Z"/><path class="cls-1" d="M62.39,12a8.52,8.52,0,0,1,6-2.39,9,9,0,0,1,6.39,2.64l.69.7L65.74,22.7a4.32,4.32,0,0,0,3.16,1.06,5.36,5.36,0,0,0,3.56-1.61A5.3,5.3,0,0,0,74,19.39,7.85,7.85,0,0,0,74,17l3.28-.92A10.51,10.51,0,0,1,77,20a9.59,9.59,0,0,1-2.43,4.38,9.16,9.16,0,0,1-6.37,2.78,8.67,8.67,0,0,1-8.67-8.57A9.14,9.14,0,0,1,62.39,12Zm1.3,8.61,6.8-6.8a5.79,5.79,0,0,0-3.21-.73,4.76,4.76,0,0,0-3,1.44,4.63,4.63,0,0,0-1.41,2.91A5.2,5.2,0,0,0,63.69,20.64Z"/><path class="cls-2" d="M97,5.1V26.36H93.63V24.68h-.08a7.11,7.11,0,0,1-2.19,1.66,8.1,8.1,0,0,1-3.25.7,8.52,8.52,0,0,1-6.22-2.62,8.74,8.74,0,0,1-2.35-6,8.87,8.87,0,0,1,2.4-5.94,8.58,8.58,0,0,1,6.36-2.77,6.88,6.88,0,0,1,3.2.83,3.65,3.65,0,0,1,2.05,1.88h.08V5.1ZM93.75,18.35a5.46,5.46,0,0,0-1.5-3.74A5.06,5.06,0,0,0,88.56,13a5.13,5.13,0,0,0-3.8,1.63,5.5,5.5,0,0,0-1.49,3.73,5.44,5.44,0,0,0,1.54,3.83,5.19,5.19,0,0,0,3.75,1.58,5,5,0,0,0,3.69-1.63A5.54,5.54,0,0,0,93.75,18.35Z"/><path class="cls-1" d="M103.61,12a8.52,8.52,0,0,1,6-2.39A9,9,0,0,1,116,12.28l.7.7L107,22.7a4.32,4.32,0,0,0,3.16,1.06,5.36,5.36,0,0,0,3.56-1.6,5.3,5.3,0,0,0,1.48-2.77,7.89,7.89,0,0,0,.07-2.39l3.28-.92a10.5,10.5,0,0,1-.26,3.91,9.6,9.6,0,0,1-2.43,4.38,9.16,9.16,0,0,1-6.37,2.78,8.67,8.67,0,0,1-8.67-8.57A9.14,9.14,0,0,1,103.61,12Zm1.3,8.61,6.8-6.8a5.79,5.79,0,0,0-3.21-.73,4.76,4.76,0,0,0-3,1.44,4.63,4.63,0,0,0-1.42,2.91A5.2,5.2,0,0,0,104.91,20.64Z"/><path class="cls-1" d="M119.71,10.14h3.87l3.67,9.51h.1L131,10.14h3.92L127.32,27Z"/><path class="cls-1" d="M142.93,9.67a9.78,9.78,0,0,1,3.72.73A12.59,12.59,0,0,1,149.38,12l-2,2.47a7.61,7.61,0,0,0-1.91-1.26,6,6,0,0,0-2.48-.59,4,4,0,0,0-2.26.63,1.8,1.8,0,0,0-.84,1.46q.07,1.23,1.57,1.61a34.08,34.08,0,0,0,3.47.65,8.65,8.65,0,0,1,3.47,1.23,3.9,3.9,0,0,1,1.6,3.39,5,5,0,0,1-1.74,3.75A7.74,7.74,0,0,1,143,27a11.46,11.46,0,0,1-4.66-1,9.65,9.65,0,0,1-2.79-1.84L138,21.74a9.31,9.31,0,0,0,2.21,1.65,6.48,6.48,0,0,0,3,.78,4,4,0,0,0,2.4-.69,1.91,1.91,0,0,0,.87-1.46,1.72,1.72,0,0,0-.11-.58,1.51,1.51,0,0,0-.36-.55,4.75,4.75,0,0,0-2.26-.89q-1.54-.28-3.23-.67a7.36,7.36,0,0,1-2.9-1.34,3.54,3.54,0,0,1-1.25-2.9,5,5,0,0,1,1.76-3.8A7.22,7.22,0,0,1,142.93,9.67Z"/><path class="cls-3" d="M6.88,9.47S5.77,3,12,2.19c0,0,5.19-.7,7.13,5.58A91.25,91.25,0,0,0,6.88,9.47Z"/><path class="cls-4" d="M19.13,7.77S2.06,8.23.58,13.65c0,0-3.71,7.43,7.71,17.19,0,0,5.08,3.08,8.91-1.14,0,0-6.57-6.4-8.74-10.45,0,0,5.94-6.26,11.42-8.89A15.47,15.47,0,0,0,19.13,7.77Z"/><path class="cls-5" d="M8.4,19.34s-4.63,4.8-.77,9.08a6.64,6.64,0,0,0,8.4.51S10.54,22.51,8.4,19.34Z"/><path class="cls-6" d="M10.6,17.17s8.25,5.11,13.05,5A40,40,0,0,0,28.28,9.48a7.86,7.86,0,0,1,5.31,7.65s.63,4.57-5,11.42c0,0-3.71,4.34-7.43,3.6,0,0-7.25-3.34-12.74-12.82A27.38,27.38,0,0,1,10.6,17.17Z"/><path class="cls-7" d="M28.11,10.94s4.63,1.88,4.2,6.6c0,0-1,6.47-8.68,4.84A109.51,109.51,0,0,0,28.11,10.94Z"/><path class="cls-8" d="M5.31,10S4,3.6,10,1.09c0,0,1.71-1,8.34-1.09,0,0,7.37-.29,9.88,4.45,0,0,2.34,5.33-4.6,17.92l-.8-.16s-.56-.1-2.17-.49c0,0,.6-12.08-2.78-16.37,0,0-2.36-3.9-6.77-3a6.36,6.36,0,0,0-4.22,7.1S6.68,9.55,5.31,10Z"/></g></g></svg>