<svg xmlns="http://www.w3.org/2000/svg" width="249.002" height="60" viewBox="0 0 249.002 60">
  <g id="facebook-group" transform="translate(-475.998 -285)">
    <rect id="Rectangle_15" data-name="Rectangle 15" width="249" height="60" rx="10" transform="translate(476 285)" fill="rgba(66,103,178,0)"/>
    <g id="_Facebook_Group" data-name=" Facebook Group" style="isolation: isolate">
      <g id="Group_111" data-name="Group 111" style="isolation: isolate">
        <path id="Path_671" data-name="Path 671" d="M531.657,307.8H540.8v1.776h-6.96V315.1h5.76v1.775h-5.76V324h-2.184Z" fill="#4267b2"/>
        <path id="Path_672" data-name="Path 672" d="M542.528,319.067a4.263,4.263,0,0,1,1.729-1.343,6.483,6.483,0,0,1,2.712-.517,3.767,3.767,0,0,1,1.992.385v-1.849q0-2.4-2.256-2.4a2.254,2.254,0,0,0-1.788.648,2.024,2.024,0,0,0-.276,1.872l-2.016-.24a3.035,3.035,0,0,1,.131-2,2.774,2.774,0,0,1,1.393-1.3,6.233,6.233,0,0,1,2.628-.469,4.54,4.54,0,0,1,3.228.961,3.9,3.9,0,0,1,1,2.928v5.9a2.861,2.861,0,0,0,.061.493.389.389,0,0,0,.443.324,1.077,1.077,0,0,0,.384-.084,1.1,1.1,0,0,0,.384-.252l.121,1.632a2.393,2.393,0,0,1-1.417.408,1.84,1.84,0,0,1-1.38-.5,1.99,1.99,0,0,1-.516-1.393,4.069,4.069,0,0,1-.888,1.117,3.226,3.226,0,0,1-1.236.7,4.575,4.575,0,0,1-1.308.2,4.082,4.082,0,0,1-2.016-.468,3.331,3.331,0,0,1-1.273-1.188,3.124,3.124,0,0,1-.431-1.632A3.207,3.207,0,0,1,542.528,319.067Zm4.849,3.265a5.654,5.654,0,0,0,1.584-1.261V318.72a11.632,11.632,0,0,0-1.272-.048q-3.624,0-3.625,2.208a1.615,1.615,0,0,0,.553,1.32,2.15,2.15,0,0,0,1.416.456A3.178,3.178,0,0,0,547.377,322.332Z" fill="#4267b2"/>
        <path id="Path_673" data-name="Path 673" d="M559.353,311.854a5.362,5.362,0,0,1,3.012.745,2.415,2.415,0,0,1,1.116,2.136,3.175,3.175,0,0,1-.1.888l-1.968.24a4.97,4.97,0,0,0,.1-.767,1.546,1.546,0,0,0-.588-1.3,2.583,2.583,0,0,0-1.62-.456q-2.882,0-2.881,5.136,0,4.225,2.976,4.225a2.571,2.571,0,0,0,1.717-.54,1.781,1.781,0,0,0,.636-1.429l-.024-.311,1.776.24v.288a2.989,2.989,0,0,1-.552,1.812,3.408,3.408,0,0,1-1.464,1.14,5.478,5.478,0,0,1-2.136.384,6,6,0,0,1-2.041-.336,4.19,4.19,0,0,1-1.62-1.044,4.724,4.724,0,0,1-1.056-1.848,8.744,8.744,0,0,1-.372-2.7Q554.264,311.855,559.353,311.854Z" fill="#4267b2"/>
        <path id="Path_674" data-name="Path 674" d="M566.036,316.007a6.5,6.5,0,0,1,.84-2.088,4.363,4.363,0,0,1,1.6-1.5,4.948,4.948,0,0,1,2.448-.565,4.253,4.253,0,0,1,3.349,1.334,5.8,5.8,0,0,1,1.188,3.971l-.048,1.153h-7.465v.12q0,4.27,3.1,4.272a3.712,3.712,0,0,0,1.344-.24,1.779,1.779,0,0,0,.912-.708,1.912,1.912,0,0,0,.287-1.021l-.023-.311,1.776.24.024.384a2.777,2.777,0,0,1-1.2,2.364,5.21,5.21,0,0,1-3.144.876,5.011,5.011,0,0,1-3.829-1.488,6.214,6.214,0,0,1-1.4-4.416A11.088,11.088,0,0,1,566.036,316.007Zm3.48-2.279a2.773,2.773,0,0,0-.96,1.151,6.187,6.187,0,0,0-.516,1.921H573.3v-.385a3.592,3.592,0,0,0-.636-2.256,2.137,2.137,0,0,0-1.788-.816A2.418,2.418,0,0,0,569.516,313.728Z" fill="#4267b2"/>
        <path id="Path_675" data-name="Path 675" d="M578.5,306.839h2.04v6.7a3.924,3.924,0,0,1,3.265-1.681,4.232,4.232,0,0,1,2.328.661,4.582,4.582,0,0,1,1.655,2,8.153,8.153,0,0,1,.625,3.431,9.1,9.1,0,0,1-.444,3.013,5.109,5.109,0,0,1-1.176,1.98,4.428,4.428,0,0,1-1.585,1.032,4.953,4.953,0,0,1-1.715.312,4.544,4.544,0,0,1-1.921-.408,3,3,0,0,1-1.368-1.224l-.96,1.464H578.5Zm3.408,7.032a3.974,3.974,0,0,0-1.368,1.08v6.528a3.319,3.319,0,0,0,2.592,1.2,2.689,2.689,0,0,0,2.364-1.164,7.8,7.8,0,0,0,.024-6.853,2.482,2.482,0,0,0-2.171-1.152A3.409,3.409,0,0,0,581.912,313.871Z" fill="#4267b2"/>
        <path id="Path_676" data-name="Path 676" d="M591.188,315.215a5,5,0,0,1,1.044-1.932,4.1,4.1,0,0,1,1.6-1.08,6.074,6.074,0,0,1,4.092.012,4.144,4.144,0,0,1,1.609,1.1,5.11,5.11,0,0,1,1.044,1.956,9.731,9.731,0,0,1,.372,2.844,8.569,8.569,0,0,1-.576,3.36,4.573,4.573,0,0,1-1.681,2.077,4.888,4.888,0,0,1-2.76.732,5.882,5.882,0,0,1-2.064-.348,4.071,4.071,0,0,1-1.62-1.1,5.13,5.13,0,0,1-1.056-1.968,9.738,9.738,0,0,1-.372-2.845A9.519,9.519,0,0,1,591.188,315.215Zm6.913,6.348a8.566,8.566,0,0,0-.013-6.959,2.427,2.427,0,0,0-2.232-1.261,2.4,2.4,0,0,0-2.2,1.212,6.7,6.7,0,0,0-.732,3.444,8.377,8.377,0,0,0,.36,2.665,3.435,3.435,0,0,0,1.02,1.6,2.439,2.439,0,0,0,1.6.54A2.392,2.392,0,0,0,598.1,321.563Z" fill="#4267b2"/>
        <path id="Path_677" data-name="Path 677" d="M603.715,315.215a5,5,0,0,1,1.044-1.932,4.1,4.1,0,0,1,1.6-1.08,6.074,6.074,0,0,1,4.092.012,4.152,4.152,0,0,1,1.609,1.1,5.11,5.11,0,0,1,1.044,1.956,9.728,9.728,0,0,1,.372,2.844,8.569,8.569,0,0,1-.576,3.36,4.577,4.577,0,0,1-1.68,2.077,4.894,4.894,0,0,1-2.761.732,5.876,5.876,0,0,1-2.063-.348,4.081,4.081,0,0,1-1.621-1.1,5.13,5.13,0,0,1-1.056-1.968,9.736,9.736,0,0,1-.372-2.845A9.517,9.517,0,0,1,603.715,315.215Zm6.913,6.348a8.577,8.577,0,0,0-.013-6.959,2.427,2.427,0,0,0-2.231-1.261,2.4,2.4,0,0,0-2.2,1.212,6.7,6.7,0,0,0-.732,3.444,8.379,8.379,0,0,0,.36,2.665,3.443,3.443,0,0,0,1.02,1.6,2.442,2.442,0,0,0,1.6.54A2.39,2.39,0,0,0,610.628,321.563Z" fill="#4267b2"/>
        <path id="Path_678" data-name="Path 678" d="M616.519,306.839h2.04V317.3l4.9-5.161h2.3l-4.3,4.44,4.56,7.417H623.7l-3.7-6-1.44,1.465V324h-2.04Z" fill="#4267b2"/>
        <path id="Path_679" data-name="Path 679" d="M640.327,316.3h5.521V324H644.1v-2.232a4.455,4.455,0,0,1-1.6,1.836,4.387,4.387,0,0,1-2.46.684,7.467,7.467,0,0,1-2.8-.5,5.33,5.33,0,0,1-2.137-1.548,7.317,7.317,0,0,1-1.355-2.665,13.261,13.261,0,0,1-.48-3.756,13.014,13.014,0,0,1,.48-3.732,6.746,6.746,0,0,1,1.38-2.6,5.453,5.453,0,0,1,2.172-1.489,7.99,7.99,0,0,1,2.832-.479,9.082,9.082,0,0,1,2.173.263,4.634,4.634,0,0,1,1.847.9,3.9,3.9,0,0,1,1.176,1.656,4.869,4.869,0,0,1,.2,2.436l-2.183.216q.527-3.84-3.265-3.84-4.488,0-4.488,6.7a11.738,11.738,0,0,0,.515,3.816,4.443,4.443,0,0,0,1.5,2.185,4.117,4.117,0,0,0,2.5.72,3.928,3.928,0,0,0,2.7-.865,3.269,3.269,0,0,0,1.019-2.471v-1.248h-3.5Z" fill="#4267b2"/>
        <path id="Path_680" data-name="Path 680" d="M649.183,312.143h1.584l.288,1.944a4.159,4.159,0,0,1,1.212-1.608,3.03,3.03,0,0,1,1.956-.625,2.564,2.564,0,0,1,1.14.265,2.106,2.106,0,0,1,.9.912,2.657,2.657,0,0,1,.324,1.44,3.765,3.765,0,0,1-.252,1.3l-1.8.215a3.807,3.807,0,0,0,.168-1.1,1.443,1.443,0,0,0-.265-.9,1.012,1.012,0,0,0-.863-.348,2.07,2.07,0,0,0-.961.265,2.38,2.38,0,0,0-.876.828,3.739,3.739,0,0,0-.515,1.115V324h-2.04Z" fill="#4267b2"/>
        <path id="Path_681" data-name="Path 681" d="M658.723,315.215a4.986,4.986,0,0,1,1.044-1.932,4.1,4.1,0,0,1,1.595-1.08,6.077,6.077,0,0,1,4.093.012,4.14,4.14,0,0,1,1.608,1.1,5.11,5.11,0,0,1,1.044,1.956,9.731,9.731,0,0,1,.372,2.844,8.551,8.551,0,0,1-.576,3.36,4.578,4.578,0,0,1-1.68,2.077,4.893,4.893,0,0,1-2.76.732,5.887,5.887,0,0,1-2.065-.348,4.071,4.071,0,0,1-1.62-1.1,5.129,5.129,0,0,1-1.055-1.968,9.736,9.736,0,0,1-.372-2.845A9.517,9.517,0,0,1,658.723,315.215Zm6.912,6.348a8.572,8.572,0,0,0-.012-6.959,2.427,2.427,0,0,0-2.232-1.261,2.4,2.4,0,0,0-2.2,1.212,6.706,6.706,0,0,0-.731,3.444,8.38,8.38,0,0,0,.359,2.665,3.428,3.428,0,0,0,1.021,1.6,2.435,2.435,0,0,0,1.595.54A2.391,2.391,0,0,0,665.635,321.563Z" fill="#4267b2"/>
        <path id="Path_682" data-name="Path 682" d="M671.43,312.143h2.041V320.3a2.544,2.544,0,0,0,.456,1.668,1.779,1.779,0,0,0,1.439.54,4.062,4.062,0,0,0,2.881-1.368v-9h2.04v10.128l.24,1.729H678.9l-.48-1.7a4.32,4.32,0,0,1-3.457,1.992,3.2,3.2,0,0,1-3.528-3.624Z" fill="#4267b2"/>
        <path id="Path_683" data-name="Path 683" d="M684.006,312.143h1.584l.24,1.632a4.345,4.345,0,0,1,3.649-1.921,3.836,3.836,0,0,1,2.183.661,4.506,4.506,0,0,1,1.572,1.98,8.226,8.226,0,0,1,.588,3.336,9.193,9.193,0,0,1-.443,3.024,5.344,5.344,0,0,1-1.177,2.017,4.547,4.547,0,0,1-1.6,1.08,4.679,4.679,0,0,1-1.7.336,3.313,3.313,0,0,1-2.856-1.272v5.928h-2.04Zm3.828,1.524a3.338,3.338,0,0,0-.972.48,5.459,5.459,0,0,0-.816.708v6.6a3.251,3.251,0,0,0,2.544,1.224,2.616,2.616,0,0,0,2.3-1.224,6.315,6.315,0,0,0,.815-3.505,5.859,5.859,0,0,0-.768-3.347,2.486,2.486,0,0,0-2.16-1.093A3.3,3.3,0,0,0,687.834,313.667Z" fill="#4267b2"/>
      </g>
    </g>
    <path id="facebook" d="M507.149,297h-26.3A4.851,4.851,0,0,0,476,301.849v26.3A4.851,4.851,0,0,0,480.851,333h12.97l.022-12.864H490.5a.789.789,0,0,1-.789-.786l-.011-4.15a.79.79,0,0,1,.786-.792h3.339V310.4c0-4.65,2.84-7.182,6.988-7.182h3.4a.789.789,0,0,1,.787.791v3.5a.789.789,0,0,1-.788.789h-2.086c-2.256,0-2.693,1.072-2.693,2.645v3.469h4.957a.79.79,0,0,1,.789.79.7.7,0,0,1-.006.091l-.492,4.147a.789.789,0,0,1-.783.7h-4.442L499.432,333h7.717A4.851,4.851,0,0,0,512,328.149v-26.3A4.851,4.851,0,0,0,507.149,297Z" fill="#4267b2"/>
    <g id="external-link-symbol">
      <g id="Group_27" data-name="Group 27">
        <path id="Path_437" data-name="Path 437" d="M720.125,319.5h-.75a.361.361,0,0,0-.375.346v3.779a1.88,1.88,0,0,1-1.875,1.875h-9.75a1.881,1.881,0,0,1-1.875-1.875v-9.75A1.881,1.881,0,0,1,707.375,312h8.25a.36.36,0,0,0,.375-.347.134.134,0,0,0,0-.028v-.75a.361.361,0,0,0-.346-.375h-8.279A3.38,3.38,0,0,0,704,313.875v9.75A3.38,3.38,0,0,0,707.375,327h9.75a3.381,3.381,0,0,0,3.375-3.375v-3.75a.361.361,0,0,0-.348-.375Z" fill="#8d92b1"/>
        <path id="Path_438" data-name="Path 438" d="M724.777,309.223a.718.718,0,0,0-.527-.223h-6a.746.746,0,0,0-.749.743.754.754,0,0,0,.222.534l2.062,2.062-7.641,7.641a.369.369,0,0,0-.017.521l.017.018,1.336,1.336a.369.369,0,0,0,.522.017l.017-.017,7.641-7.641,2.063,2.062a.75.75,0,0,0,1.277-.527v-6A.715.715,0,0,0,724.777,309.223Z" fill="#8d92b1"/>
      </g>
    </g>
  </g>
</svg>
